<?xml version="1.0" encoding="us-ascii" standalone="no"?><svg xmlns="http://www.w3.org/2000/svg" xmlns:xlink="http://www.w3.org/1999/xlink" contentStyleType="text/css" height="891px" preserveAspectRatio="none" style="width:1361px;height:891px;background:#FFFFFF;" version="1.1" viewBox="0 0 1361 891" width="1361px" zoomAndPan="magnify"><defs/><g><!--cluster pydantic--><g id="cluster_pydantic"><path d="M8.5,508.602 L69.5,508.602 A3.75,3.75 0 0 1 72,511.102 L79,533.6699 L141.5,533.6699 A2.5,2.5 0 0 1 144,536.1699 L144,608.102 A2.5,2.5 0 0 1 141.5,610.602 L8.5,610.602 A2.5,2.5 0 0 1 6,608.102 L6,511.102 A2.5,2.5 0 0 1 8.5,508.602 " fill="none" style="stroke:#000000;stroke-width:1.5;"/><line style="stroke:#000000;stroke-width:1.5;" x1="6" x2="79" y1="533.6699" y2="533.6699"/><text fill="#000000" font-family="sans-serif" font-size="14" font-weight="bold" lengthAdjust="spacing" textLength="60" x="10" y="525.5679">pydantic</text></g><!--cluster BL_Python--><g id="cluster_BL_Python"><path d="M170.5,6.602 L244.5,6.602 A3.75,3.75 0 0 1 247,9.102 L254,31.6699 L1351.5,31.6699 A2.5,2.5 0 0 1 1354,34.1699 L1354,882.102 A2.5,2.5 0 0 1 1351.5,884.602 L170.5,884.602 A2.5,2.5 0 0 1 168,882.102 L168,9.102 A2.5,2.5 0 0 1 170.5,6.602 " fill="none" style="stroke:#000000;stroke-width:1.5;"/><line style="stroke:#000000;stroke-width:1.5;" x1="168" x2="254" y1="31.6699" y2="31.6699"/><text fill="#000000" font-family="sans-serif" font-size="14" font-weight="bold" lengthAdjust="spacing" textLength="73" x="172" y="23.5679">BL_Python</text></g><!--cluster web--><g id="cluster_web"><path d="M194.5,52.602 L224.5,52.602 A3.75,3.75 0 0 1 227,55.102 L234,77.6699 L1278.5,77.6699 A2.5,2.5 0 0 1 1281,80.1699 L1281,440.102 A2.5,2.5 0 0 1 1278.5,442.602 L194.5,442.602 A2.5,2.5 0 0 1 192,440.102 L192,55.102 A2.5,2.5 0 0 1 194.5,52.602 " fill="none" style="stroke:#000000;stroke-width:1.5;"/><line style="stroke:#000000;stroke-width:1.5;" x1="192" x2="234" y1="77.6699" y2="77.6699"/><text fill="#000000" font-family="sans-serif" font-size="14" font-weight="bold" lengthAdjust="spacing" textLength="29" x="196" y="69.5679">web</text></g><!--cluster identity--><g id="cluster_identity"><path d="M194.5,466.602 L249.5,466.602 A3.75,3.75 0 0 1 252,469.102 L259,491.6699 L886,491.6699 A2.5,2.5 0 0 1 888.5,494.1699 L888.5,649.102 A2.5,2.5 0 0 1 886,651.602 L194.5,651.602 A2.5,2.5 0 0 1 192,649.102 L192,469.102 A2.5,2.5 0 0 1 194.5,466.602 " fill="none" style="stroke:#000000;stroke-width:1.5;"/><line style="stroke:#000000;stroke-width:1.5;" x1="192" x2="259" y1="491.6699" y2="491.6699"/><text fill="#000000" font-family="sans-serif" font-size="14" font-weight="bold" lengthAdjust="spacing" textLength="54" x="196" y="483.5679">identity</text></g><!--cluster database--><g id="cluster_database"><path d="M194.5,675.602 L258.5,675.602 A3.75,3.75 0 0 1 261,678.102 L268,700.6699 L1327.5,700.6699 A2.5,2.5 0 0 1 1330,703.1699 L1330,858.102 A2.5,2.5 0 0 1 1327.5,860.602 L194.5,860.602 A2.5,2.5 0 0 1 192,858.102 L192,678.102 A2.5,2.5 0 0 1 194.5,675.602 " fill="none" style="stroke:#000000;stroke-width:1.5;"/><line style="stroke:#000000;stroke-width:1.5;" x1="192" x2="268" y1="700.6699" y2="700.6699"/><text fill="#000000" font-family="sans-serif" font-size="14" font-weight="bold" lengthAdjust="spacing" textLength="63" x="196" y="692.5679">database</text></g><!--class pydantic_base_model--><g id="elem_pydantic_base_model"><rect codeLine="5" fill="#F1F1F1" height="48" id="pydantic_base_model" rx="2.5" ry="2.5" style="stroke:#181818;stroke-width:0.5;" width="106" x="22" y="546.602"/><ellipse cx="37" cy="562.602" fill="#ADD1B2" rx="11" ry="11" style="stroke:#181818;stroke-width:1.0;"/><path d="M39.9688,568.2426 Q39.3906,568.5395 38.75,568.6801 Q38.1094,568.8364 37.4063,568.8364 Q34.9063,568.8364 33.5781,567.1957 Q32.2656,565.5395 32.2656,562.4145 Q32.2656,559.2895 33.5781,557.6332 Q34.9063,555.977 37.4063,555.977 Q38.1094,555.977 38.75,556.1332 Q39.4063,556.2895 39.9688,556.5864 L39.9688,559.3051 Q39.3438,558.727 38.75,558.4614 Q38.1563,558.1801 37.5313,558.1801 Q36.1875,558.1801 35.5,559.2582 Q34.8125,560.3207 34.8125,562.4145 Q34.8125,564.5082 35.5,565.5864 Q36.1875,566.6489 37.5313,566.6489 Q38.1563,566.6489 38.75,566.3832 Q39.3438,566.102 39.9688,565.5239 L39.9688,568.2426 Z " fill="#000000"/><text fill="#000000" font-family="sans-serif" font-size="14" lengthAdjust="spacing" textLength="74" x="51" y="568.034">BaseModel</text><line style="stroke:#181818;stroke-width:0.5;" x1="23" x2="127" y1="578.602" y2="578.602"/><line style="stroke:#181818;stroke-width:0.5;" x1="23" x2="127" y1="586.602" y2="586.602"/></g><!--class web_config--><g id="elem_web_config"><rect codeLine="10" fill="#F1F1F1" height="105.2038" id="web_config" rx="2.5" ry="2.5" style="stroke:#181818;stroke-width:0.5;" width="122" x="208" y="294.102"/><ellipse cx="223" cy="310.102" fill="#ADD1B2" rx="11" ry="11" style="stroke:#181818;stroke-width:1.0;"/><path d="M225.9688,315.7426 Q225.3906,316.0395 224.75,316.1801 Q224.1094,316.3364 223.4063,316.3364 Q220.9063,316.3364 219.5781,314.6957 Q218.2656,313.0395 218.2656,309.9145 Q218.2656,306.7895 219.5781,305.1332 Q220.9063,303.477 223.4063,303.477 Q224.1094,303.477 224.75,303.6332 Q225.4063,303.7895 225.9688,304.0864 L225.9688,306.8051 Q225.3438,306.227 224.75,305.9614 Q224.1563,305.6801 223.5313,305.6801 Q222.1875,305.6801 221.5,306.7582 Q220.8125,307.8207 220.8125,309.9145 Q220.8125,312.0082 221.5,313.0864 Q222.1875,314.1489 223.5313,314.1489 Q224.1563,314.1489 224.75,313.8832 Q225.3438,313.602 225.9688,313.0239 L225.9688,315.7426 Z " fill="#000000"/><text fill="#000000" font-family="sans-serif" font-size="14" lengthAdjust="spacing" textLength="90" x="237" y="315.534">config.Config</text><line style="stroke:#181818;stroke-width:0.5;" x1="209" x2="329" y1="326.102" y2="326.102"/><ellipse cx="219" cy="341.1359" fill="none" rx="3" ry="3" style="stroke:#038048;stroke-width:1.0;"/><text fill="#000000" font-family="sans-serif" font-size="14" lengthAdjust="spacing" textLength="52" x="228" y="345.0679">logging</text><ellipse cx="219" cy="360.2039" fill="none" rx="3" ry="3" style="stroke:#038048;stroke-width:1.0;"/><text fill="#000000" font-family="sans-serif" font-size="14" lengthAdjust="spacing" textLength="28" x="228" y="364.1358">web</text><ellipse cx="219" cy="379.2718" fill="none" rx="3" ry="3" style="stroke:#038048;stroke-width:1.0;"/><text fill="#000000" font-family="sans-serif" font-size="14" lengthAdjust="spacing" textLength="31" x="228" y="383.2038">flask</text><line style="stroke:#181818;stroke-width:0.5;" x1="209" x2="329" y1="391.3057" y2="391.3057"/></g><!--class web_config_logging--><g id="elem_web_config_logging"><rect codeLine="16" fill="#F1F1F1" height="48" id="web_config_logging" rx="2.5" ry="2.5" style="stroke:#181818;stroke-width:0.5;" width="177" x="682" y="378.602"/><ellipse cx="697" cy="394.602" fill="#ADD1B2" rx="11" ry="11" style="stroke:#181818;stroke-width:1.0;"/><path d="M699.9688,400.2426 Q699.3906,400.5395 698.75,400.6801 Q698.1094,400.8364 697.4063,400.8364 Q694.9063,400.8364 693.5781,399.1957 Q692.2656,397.5395 692.2656,394.4145 Q692.2656,391.2895 693.5781,389.6332 Q694.9063,387.977 697.4063,387.977 Q698.1094,387.977 698.75,388.1332 Q699.4063,388.2895 699.9688,388.5864 L699.9688,391.3051 Q699.3438,390.727 698.75,390.4614 Q698.1563,390.1801 697.5313,390.1801 Q696.1875,390.1801 695.5,391.2582 Q694.8125,392.3207 694.8125,394.4145 Q694.8125,396.5082 695.5,397.5864 Q696.1875,398.6489 697.5313,398.6489 Q698.1563,398.6489 698.75,398.3832 Q699.3438,398.102 699.9688,397.5239 L699.9688,400.2426 Z " fill="#000000"/><text fill="#000000" font-family="sans-serif" font-size="14" lengthAdjust="spacing" textLength="145" x="711" y="400.034">config.LoggingConfig</text><line style="stroke:#181818;stroke-width:0.5;" x1="683" x2="858" y1="410.602" y2="410.602"/><line style="stroke:#181818;stroke-width:0.5;" x1="683" x2="858" y1="418.602" y2="418.602"/></g><!--class web_config_flask--><g id="elem_web_config_flask"><rect codeLine="17" fill="#F1F1F1" height="86.1358" id="web_config_flask" rx="2.5" ry="2.5" style="stroke:#181818;stroke-width:0.5;" width="155" x="405" y="276.602"/><ellipse cx="420" cy="292.602" fill="#ADD1B2" rx="11" ry="11" style="stroke:#181818;stroke-width:1.0;"/><path d="M422.9688,298.2426 Q422.3906,298.5395 421.75,298.6801 Q421.1094,298.8364 420.4063,298.8364 Q417.9063,298.8364 416.5781,297.1957 Q415.2656,295.5395 415.2656,292.4145 Q415.2656,289.2895 416.5781,287.6332 Q417.9063,285.977 420.4063,285.977 Q421.1094,285.977 421.75,286.1332 Q422.4063,286.2895 422.9688,286.5864 L422.9688,289.3051 Q422.3438,288.727 421.75,288.4614 Q421.1563,288.1801 420.5313,288.1801 Q419.1875,288.1801 418.5,289.2582 Q417.8125,290.3207 417.8125,292.4145 Q417.8125,294.5082 418.5,295.5864 Q419.1875,296.6489 420.5313,296.6489 Q421.1563,296.6489 421.75,296.3832 Q422.3438,296.102 422.9688,295.5239 L422.9688,298.2426 Z " fill="#000000"/><text fill="#000000" font-family="sans-serif" font-size="14" lengthAdjust="spacing" textLength="123" x="434" y="298.034">config.FlaskConfig</text><line style="stroke:#181818;stroke-width:0.5;" x1="406" x2="559" y1="308.602" y2="308.602"/><ellipse cx="416" cy="323.6359" fill="none" rx="3" ry="3" style="stroke:#038048;stroke-width:1.0;"/><text fill="#000000" font-family="sans-serif" font-size="14" lengthAdjust="spacing" textLength="55" x="425" y="327.5679">openapi</text><ellipse cx="416" cy="342.7039" fill="none" rx="3" ry="3" style="stroke:#038048;stroke-width:1.0;"/><text fill="#000000" font-family="sans-serif" font-size="14" lengthAdjust="spacing" textLength="50" x="425" y="346.6358">session</text><line style="stroke:#181818;stroke-width:0.5;" x1="406" x2="559" y1="354.7378" y2="354.7378"/></g><!--class web_config_flask_openapi--><g id="elem_web_config_flask_openapi"><rect codeLine="22" fill="#F1F1F1" height="48" id="web_config_flask_openapi" rx="2.5" ry="2.5" style="stroke:#181818;stroke-width:0.5;" width="214" x="663.5" y="295.602"/><ellipse cx="678.5" cy="311.602" fill="#ADD1B2" rx="11" ry="11" style="stroke:#181818;stroke-width:1.0;"/><path d="M681.4688,317.2426 Q680.8906,317.5395 680.25,317.6801 Q679.6094,317.8364 678.9063,317.8364 Q676.4063,317.8364 675.0781,316.1957 Q673.7656,314.5395 673.7656,311.4145 Q673.7656,308.2895 675.0781,306.6332 Q676.4063,304.977 678.9063,304.977 Q679.6094,304.977 680.25,305.1332 Q680.9063,305.2895 681.4688,305.5864 L681.4688,308.3051 Q680.8438,307.727 680.25,307.4614 Q679.6563,307.1801 679.0313,307.1801 Q677.6875,307.1801 677,308.2582 Q676.3125,309.3207 676.3125,311.4145 Q676.3125,313.5082 677,314.5864 Q677.6875,315.6489 679.0313,315.6489 Q679.6563,315.6489 680.25,315.3832 Q680.8438,315.102 681.4688,314.5239 L681.4688,317.2426 Z " fill="#000000"/><text fill="#000000" font-family="sans-serif" font-size="14" lengthAdjust="spacing" textLength="182" x="692.5" y="317.034">config.FlaskOpenApiConfig</text><line style="stroke:#181818;stroke-width:0.5;" x1="664.5" x2="876.5" y1="327.602" y2="327.602"/><line style="stroke:#181818;stroke-width:0.5;" x1="664.5" x2="876.5" y1="335.602" y2="335.602"/></g><!--class web_config_flask_session--><g id="elem_web_config_flask_session"><rect codeLine="23" fill="#F1F1F1" height="67.0679" id="web_config_flask_session" rx="2.5" ry="2.5" style="stroke:#181818;stroke-width:0.5;" width="206" x="667.5" y="193.102"/><ellipse cx="682.5" cy="209.102" fill="#ADD1B2" rx="11" ry="11" style="stroke:#181818;stroke-width:1.0;"/><path d="M685.4688,214.7426 Q684.8906,215.0395 684.25,215.1801 Q683.6094,215.3364 682.9063,215.3364 Q680.4063,215.3364 679.0781,213.6957 Q677.7656,212.0395 677.7656,208.9145 Q677.7656,205.7895 679.0781,204.1332 Q680.4063,202.477 682.9063,202.477 Q683.6094,202.477 684.25,202.6332 Q684.9063,202.7895 685.4688,203.0864 L685.4688,205.8051 Q684.8438,205.227 684.25,204.9614 Q683.6563,204.6801 683.0313,204.6801 Q681.6875,204.6801 681,205.7582 Q680.3125,206.8207 680.3125,208.9145 Q680.3125,211.0082 681,212.0864 Q681.6875,213.1489 683.0313,213.1489 Q683.6563,213.1489 684.25,212.8832 Q684.8438,212.602 685.4688,212.0239 L685.4688,214.7426 Z " fill="#000000"/><text fill="#000000" font-family="sans-serif" font-size="14" lengthAdjust="spacing" textLength="174" x="696.5" y="214.534">config.FlaskSessionConfig</text><line style="stroke:#181818;stroke-width:0.5;" x1="668.5" x2="872.5" y1="225.102" y2="225.102"/><ellipse cx="678.5" cy="240.1359" fill="none" rx="3" ry="3" style="stroke:#038048;stroke-width:1.0;"/><text fill="#000000" font-family="sans-serif" font-size="14" lengthAdjust="spacing" textLength="42" x="687.5" y="244.0679">cookie</text><line style="stroke:#181818;stroke-width:0.5;" x1="668.5" x2="872.5" y1="252.1699" y2="252.1699"/></g><!--class web_config_flask_session_cookie--><g id="elem_web_config_flask_session_cookie"><rect codeLine="28" fill="#F1F1F1" height="48" id="web_config_flask_session_cookie" rx="2.5" ry="2.5" style="stroke:#181818;stroke-width:0.5;" width="250" x="1015" y="202.602"/><ellipse cx="1030" cy="218.602" fill="#ADD1B2" rx="11" ry="11" style="stroke:#181818;stroke-width:1.0;"/><path d="M1032.9688,224.2426 Q1032.3906,224.5395 1031.75,224.6801 Q1031.1094,224.8364 1030.4063,224.8364 Q1027.9063,224.8364 1026.5781,223.1957 Q1025.2656,221.5395 1025.2656,218.4145 Q1025.2656,215.2895 1026.5781,213.6332 Q1027.9063,211.977 1030.4063,211.977 Q1031.1094,211.977 1031.75,212.1332 Q1032.4063,212.2895 1032.9688,212.5864 L1032.9688,215.3051 Q1032.3438,214.727 1031.75,214.4614 Q1031.1563,214.1801 1030.5313,214.1801 Q1029.1875,214.1801 1028.5,215.2582 Q1027.8125,216.3207 1027.8125,218.4145 Q1027.8125,220.5082 1028.5,221.5864 Q1029.1875,222.6489 1030.5313,222.6489 Q1031.1563,222.6489 1031.75,222.3832 Q1032.3438,222.102 1032.9688,221.5239 L1032.9688,224.2426 Z " fill="#000000"/><text fill="#000000" font-family="sans-serif" font-size="14" lengthAdjust="spacing" textLength="218" x="1044" y="224.034">config.FlaskSessionCookieConfig</text><line style="stroke:#181818;stroke-width:0.5;" x1="1016" x2="1264" y1="234.602" y2="234.602"/><line style="stroke:#181818;stroke-width:0.5;" x1="1016" x2="1264" y1="242.602" y2="242.602"/></g><!--class web_config_web--><g id="elem_web_config_web"><rect codeLine="29" fill="#F1F1F1" height="67.0679" id="web_config_web" rx="2.5" ry="2.5" style="stroke:#181818;stroke-width:0.5;" width="152" x="406.5" y="133.102"/><ellipse cx="421.5" cy="149.102" fill="#ADD1B2" rx="11" ry="11" style="stroke:#181818;stroke-width:1.0;"/><path d="M424.4688,154.7426 Q423.8906,155.0395 423.25,155.1801 Q422.6094,155.3364 421.9063,155.3364 Q419.4063,155.3364 418.0781,153.6957 Q416.7656,152.0395 416.7656,148.9145 Q416.7656,145.7895 418.0781,144.1332 Q419.4063,142.477 421.9063,142.477 Q422.6094,142.477 423.25,142.6332 Q423.9063,142.7895 424.4688,143.0864 L424.4688,145.8051 Q423.8438,145.227 423.25,144.9614 Q422.6563,144.6801 422.0313,144.6801 Q420.6875,144.6801 420,145.7582 Q419.3125,146.8207 419.3125,148.9145 Q419.3125,151.0082 420,152.0864 Q420.6875,153.1489 422.0313,153.1489 Q422.6563,153.1489 423.25,152.8832 Q423.8438,152.602 424.4688,152.0239 L424.4688,154.7426 Z " fill="#000000"/><text fill="#000000" font-family="sans-serif" font-size="14" lengthAdjust="spacing" textLength="120" x="435.5" y="154.534">config.WebConfig</text><line style="stroke:#181818;stroke-width:0.5;" x1="407.5" x2="557.5" y1="165.102" y2="165.102"/><ellipse cx="417.5" cy="180.1359" fill="none" rx="3" ry="3" style="stroke:#038048;stroke-width:1.0;"/><text fill="#000000" font-family="sans-serif" font-size="14" lengthAdjust="spacing" textLength="53" x="426.5" y="184.0679">security</text><line style="stroke:#181818;stroke-width:0.5;" x1="407.5" x2="557.5" y1="192.1699" y2="192.1699"/></g><!--class web_config_web_security--><g id="elem_web_config_web_security"><rect codeLine="34" fill="#F1F1F1" height="67.0679" id="web_config_web_security" rx="2.5" ry="2.5" style="stroke:#181818;stroke-width:0.5;" width="206" x="667.5" y="91.102"/><ellipse cx="682.5" cy="107.102" fill="#ADD1B2" rx="11" ry="11" style="stroke:#181818;stroke-width:1.0;"/><path d="M685.4688,112.7426 Q684.8906,113.0395 684.25,113.1801 Q683.6094,113.3364 682.9063,113.3364 Q680.4063,113.3364 679.0781,111.6957 Q677.7656,110.0395 677.7656,106.9145 Q677.7656,103.7895 679.0781,102.1332 Q680.4063,100.477 682.9063,100.477 Q683.6094,100.477 684.25,100.6332 Q684.9063,100.7895 685.4688,101.0864 L685.4688,103.8051 Q684.8438,103.227 684.25,102.9614 Q683.6563,102.6801 683.0313,102.6801 Q681.6875,102.6801 681,103.7582 Q680.3125,104.8207 680.3125,106.9145 Q680.3125,109.0082 681,110.0864 Q681.6875,111.1489 683.0313,111.1489 Q683.6563,111.1489 684.25,110.8832 Q684.8438,110.602 685.4688,110.0239 L685.4688,112.7426 Z " fill="#000000"/><text fill="#000000" font-family="sans-serif" font-size="14" lengthAdjust="spacing" textLength="174" x="696.5" y="112.534">config.WebSecurityConfig</text><line style="stroke:#181818;stroke-width:0.5;" x1="668.5" x2="872.5" y1="123.102" y2="123.102"/><ellipse cx="678.5" cy="138.1359" fill="none" rx="3" ry="3" style="stroke:#038048;stroke-width:1.0;"/><text fill="#000000" font-family="sans-serif" font-size="14" lengthAdjust="spacing" textLength="28" x="687.5" y="142.0679">cors</text><line style="stroke:#181818;stroke-width:0.5;" x1="668.5" x2="872.5" y1="150.1699" y2="150.1699"/></g><!--class web_config_web_security_cors--><g id="elem_web_config_web_security_cors"><rect codeLine="38" fill="#F1F1F1" height="48" id="web_config_web_security_cors" rx="2.5" ry="2.5" style="stroke:#181818;stroke-width:0.5;" width="236" x="1022" y="100.602"/><ellipse cx="1037" cy="116.602" fill="#ADD1B2" rx="11" ry="11" style="stroke:#181818;stroke-width:1.0;"/><path d="M1039.9688,122.2426 Q1039.3906,122.5395 1038.75,122.6801 Q1038.1094,122.8364 1037.4063,122.8364 Q1034.9063,122.8364 1033.5781,121.1957 Q1032.2656,119.5395 1032.2656,116.4145 Q1032.2656,113.2895 1033.5781,111.6332 Q1034.9063,109.977 1037.4063,109.977 Q1038.1094,109.977 1038.75,110.1332 Q1039.4063,110.2895 1039.9688,110.5864 L1039.9688,113.3051 Q1039.3438,112.727 1038.75,112.4614 Q1038.1563,112.1801 1037.5313,112.1801 Q1036.1875,112.1801 1035.5,113.2582 Q1034.8125,114.3207 1034.8125,116.4145 Q1034.8125,118.5082 1035.5,119.5864 Q1036.1875,120.6489 1037.5313,120.6489 Q1038.1563,120.6489 1038.75,120.3832 Q1039.3438,120.102 1039.9688,119.5239 L1039.9688,122.2426 Z " fill="#000000"/><text fill="#000000" font-family="sans-serif" font-size="14" lengthAdjust="spacing" textLength="204" x="1051" y="122.034">config.WebSecurityCorsConfig</text><line style="stroke:#181818;stroke-width:0.5;" x1="1023" x2="1257" y1="132.602" y2="132.602"/><line style="stroke:#181818;stroke-width:0.5;" x1="1023" x2="1257" y1="140.602" y2="140.602"/></g><!--class identity_config--><g id="elem_identity_config"><rect codeLine="43" fill="#F1F1F1" height="67.0679" id="identity_config" rx="2.5" ry="2.5" style="stroke:#181818;stroke-width:0.5;" width="122" x="208" y="537.102"/><ellipse cx="223" cy="553.102" fill="#ADD1B2" rx="11" ry="11" style="stroke:#181818;stroke-width:1.0;"/><path d="M225.9688,558.7426 Q225.3906,559.0395 224.75,559.1801 Q224.1094,559.3364 223.4063,559.3364 Q220.9063,559.3364 219.5781,557.6957 Q218.2656,556.0395 218.2656,552.9145 Q218.2656,549.7895 219.5781,548.1332 Q220.9063,546.477 223.4063,546.477 Q224.1094,546.477 224.75,546.6332 Q225.4063,546.7895 225.9688,547.0864 L225.9688,549.8051 Q225.3438,549.227 224.75,548.9614 Q224.1563,548.6801 223.5313,548.6801 Q222.1875,548.6801 221.5,549.7582 Q220.8125,550.8207 220.8125,552.9145 Q220.8125,555.0082 221.5,556.0864 Q222.1875,557.1489 223.5313,557.1489 Q224.1563,557.1489 224.75,556.8832 Q225.3438,556.602 225.9688,556.0239 L225.9688,558.7426 Z " fill="#000000"/><text fill="#000000" font-family="sans-serif" font-size="14" lengthAdjust="spacing" textLength="90" x="237" y="558.534">config.Config</text><line style="stroke:#181818;stroke-width:0.5;" x1="209" x2="329" y1="569.102" y2="569.102"/><ellipse cx="219" cy="584.1359" fill="none" rx="3" ry="3" style="stroke:#038048;stroke-width:1.0;"/><text fill="#000000" font-family="sans-serif" font-size="14" lengthAdjust="spacing" textLength="22" x="228" y="588.0679">sso</text><line style="stroke:#181818;stroke-width:0.5;" x1="209" x2="329" y1="596.1699" y2="596.1699"/></g><!--class identity_config_sso--><g id="elem_identity_config_sso"><rect codeLine="47" fill="#F1F1F1" height="67.0679" id="identity_config_sso" rx="2.5" ry="2.5" style="stroke:#181818;stroke-width:0.5;" width="149" x="408" y="537.102"/><ellipse cx="423" cy="553.102" fill="#ADD1B2" rx="11" ry="11" style="stroke:#181818;stroke-width:1.0;"/><path d="M425.9688,558.7426 Q425.3906,559.0395 424.75,559.1801 Q424.1094,559.3364 423.4063,559.3364 Q420.9063,559.3364 419.5781,557.6957 Q418.2656,556.0395 418.2656,552.9145 Q418.2656,549.7895 419.5781,548.1332 Q420.9063,546.477 423.4063,546.477 Q424.1094,546.477 424.75,546.6332 Q425.4063,546.7895 425.9688,547.0864 L425.9688,549.8051 Q425.3438,549.227 424.75,548.9614 Q424.1563,548.6801 423.5313,548.6801 Q422.1875,548.6801 421.5,549.7582 Q420.8125,550.8207 420.8125,552.9145 Q420.8125,555.0082 421.5,556.0864 Q422.1875,557.1489 423.5313,557.1489 Q424.1563,557.1489 424.75,556.8832 Q425.3438,556.602 425.9688,556.0239 L425.9688,558.7426 Z " fill="#000000"/><text fill="#000000" font-family="sans-serif" font-size="14" lengthAdjust="spacing" textLength="117" x="437" y="558.534">config.SSOConfig</text><line style="stroke:#181818;stroke-width:0.5;" x1="409" x2="556" y1="569.102" y2="569.102"/><ellipse cx="419" cy="584.1359" fill="none" rx="3" ry="3" style="stroke:#038048;stroke-width:1.0;"/><text fill="#000000" font-family="sans-serif" font-size="14" lengthAdjust="spacing" textLength="54" x="428" y="588.0679">settings</text><line style="stroke:#181818;stroke-width:0.5;" x1="409" x2="556" y1="596.1699" y2="596.1699"/></g><!--class identity_config_sso_settings--><g id="elem_identity_config_sso_settings"><rect codeLine="51" fill="#F1F1F1" height="48" id="identity_config_sso_settings" rx="2.5" ry="2.5" style="stroke:#181818;stroke-width:0.5;" width="204" x="668.5" y="504.602"/><ellipse cx="683.5" cy="520.602" fill="#ADD1B2" rx="11" ry="11" style="stroke:#181818;stroke-width:1.0;"/><path d="M686.4688,526.2426 Q685.8906,526.5395 685.25,526.6801 Q684.6094,526.8364 683.9063,526.8364 Q681.4063,526.8364 680.0781,525.1957 Q678.7656,523.5395 678.7656,520.4145 Q678.7656,517.2895 680.0781,515.6332 Q681.4063,513.977 683.9063,513.977 Q684.6094,513.977 685.25,514.1332 Q685.9063,514.2895 686.4688,514.5864 L686.4688,517.3051 Q685.8438,516.727 685.25,516.4614 Q684.6563,516.1801 684.0313,516.1801 Q682.6875,516.1801 682,517.2582 Q681.3125,518.3207 681.3125,520.4145 Q681.3125,522.5082 682,523.5864 Q682.6875,524.6489 684.0313,524.6489 Q684.6563,524.6489 685.25,524.3832 Q685.8438,524.102 686.4688,523.5239 L686.4688,526.2426 Z " fill="#000000"/><text fill="#000000" font-family="sans-serif" font-size="14" lengthAdjust="spacing" textLength="172" x="697.5" y="526.034">config.SSOSettingsConfig</text><line style="stroke:#181818;stroke-width:0.5;" x1="669.5" x2="871.5" y1="536.602" y2="536.602"/><line style="stroke:#181818;stroke-width:0.5;" x1="669.5" x2="871.5" y1="544.602" y2="544.602"/></g><!--class identity_config_saml2--><g id="elem_identity_config_saml2"><rect codeLine="52" fill="#F1F1F1" height="48" id="identity_config_saml2" rx="2.5" ry="2.5" style="stroke:#181818;stroke-width:0.5;" width="167" x="687" y="587.602"/><ellipse cx="702" cy="603.602" fill="#ADD1B2" rx="11" ry="11" style="stroke:#181818;stroke-width:1.0;"/><path d="M704.9688,609.2426 Q704.3906,609.5395 703.75,609.6801 Q703.1094,609.8364 702.4063,609.8364 Q699.9063,609.8364 698.5781,608.1957 Q697.2656,606.5395 697.2656,603.4145 Q697.2656,600.2895 698.5781,598.6332 Q699.9063,596.977 702.4063,596.977 Q703.1094,596.977 703.75,597.1332 Q704.4063,597.2895 704.9688,597.5864 L704.9688,600.3051 Q704.3438,599.727 703.75,599.4614 Q703.1563,599.1801 702.5313,599.1801 Q701.1875,599.1801 700.5,600.2582 Q699.8125,601.3207 699.8125,603.4145 Q699.8125,605.5082 700.5,606.5864 Q701.1875,607.6489 702.5313,607.6489 Q703.1563,607.6489 703.75,607.3832 Q704.3438,607.102 704.9688,606.5239 L704.9688,609.2426 Z " fill="#000000"/><text fill="#000000" font-family="sans-serif" font-size="14" lengthAdjust="spacing" textLength="135" x="716" y="609.034">config.SAML2Config</text><line style="stroke:#181818;stroke-width:0.5;" x1="688" x2="853" y1="619.602" y2="619.602"/><line style="stroke:#181818;stroke-width:0.5;" x1="688" x2="853" y1="627.602" y2="627.602"/></g><!--class database_config--><g id="elem_database_config"><rect codeLine="57" fill="#F1F1F1" height="67.0679" id="database_config" rx="2.5" ry="2.5" style="stroke:#181818;stroke-width:0.5;" width="122" x="208" y="721.102"/><ellipse cx="223" cy="737.102" fill="#ADD1B2" rx="11" ry="11" style="stroke:#181818;stroke-width:1.0;"/><path d="M225.9688,742.7426 Q225.3906,743.0395 224.75,743.1801 Q224.1094,743.3364 223.4063,743.3364 Q220.9063,743.3364 219.5781,741.6957 Q218.2656,740.0395 218.2656,736.9145 Q218.2656,733.7895 219.5781,732.1332 Q220.9063,730.477 223.4063,730.477 Q224.1094,730.477 224.75,730.6332 Q225.4063,730.7895 225.9688,731.0864 L225.9688,733.8051 Q225.3438,733.227 224.75,732.9614 Q224.1563,732.6801 223.5313,732.6801 Q222.1875,732.6801 221.5,733.7582 Q220.8125,734.8207 220.8125,736.9145 Q220.8125,739.0082 221.5,740.0864 Q222.1875,741.1489 223.5313,741.1489 Q224.1563,741.1489 224.75,740.8832 Q225.3438,740.602 225.9688,740.0239 L225.9688,742.7426 Z " fill="#000000"/><text fill="#000000" font-family="sans-serif" font-size="14" lengthAdjust="spacing" textLength="90" x="237" y="742.534">config.Config</text><line style="stroke:#181818;stroke-width:0.5;" x1="209" x2="329" y1="753.102" y2="753.102"/><ellipse cx="219" cy="768.1359" fill="none" rx="3" ry="3" style="stroke:#038048;stroke-width:1.0;"/><text fill="#000000" font-family="sans-serif" font-size="14" lengthAdjust="spacing" textLength="62" x="228" y="772.0679">database</text><line style="stroke:#181818;stroke-width:0.5;" x1="209" x2="329" y1="780.1699" y2="780.1699"/></g><!--class database_config_database--><g id="elem_database_config_database"><rect codeLine="61" fill="#F1F1F1" height="67.0679" id="database_config_database" rx="2.5" ry="2.5" style="stroke:#181818;stroke-width:0.5;" width="185" x="390" y="728.102"/><ellipse cx="405" cy="744.102" fill="#ADD1B2" rx="11" ry="11" style="stroke:#181818;stroke-width:1.0;"/><path d="M407.9688,749.7426 Q407.3906,750.0395 406.75,750.1801 Q406.1094,750.3364 405.4063,750.3364 Q402.9063,750.3364 401.5781,748.6957 Q400.2656,747.0395 400.2656,743.9145 Q400.2656,740.7895 401.5781,739.1332 Q402.9063,737.477 405.4063,737.477 Q406.1094,737.477 406.75,737.6332 Q407.4063,737.7895 407.9688,738.0864 L407.9688,740.8051 Q407.3438,740.227 406.75,739.9614 Q406.1563,739.6801 405.5313,739.6801 Q404.1875,739.6801 403.5,740.7582 Q402.8125,741.8207 402.8125,743.9145 Q402.8125,746.0082 403.5,747.0864 Q404.1875,748.1489 405.5313,748.1489 Q406.1563,748.1489 406.75,747.8832 Q407.3438,747.602 407.9688,747.0239 L407.9688,749.7426 Z " fill="#000000"/><text fill="#000000" font-family="sans-serif" font-size="14" lengthAdjust="spacing" textLength="153" x="419" y="749.534">config.DatabaseConfig</text><line style="stroke:#181818;stroke-width:0.5;" x1="391" x2="574" y1="760.102" y2="760.102"/><ellipse cx="401" cy="775.1359" fill="none" rx="3" ry="3" style="stroke:#038048;stroke-width:1.0;"/><text fill="#000000" font-family="sans-serif" font-size="14" lengthAdjust="spacing" textLength="89" x="410" y="779.0679">connect_args</text><line style="stroke:#181818;stroke-width:0.5;" x1="391" x2="574" y1="787.1699" y2="787.1699"/></g><!--class database_config_database_connect_args--><g id="elem_database_config_database_connect_args"><rect codeLine="65" fill="#F1F1F1" height="48" id="database_config_database_connect_args" rx="2.5" ry="2.5" style="stroke:#181818;stroke-width:0.5;" width="271" x="635" y="750.602"/><ellipse cx="650" cy="766.602" fill="#ADD1B2" rx="11" ry="11" style="stroke:#181818;stroke-width:1.0;"/><path d="M652.9688,772.2426 Q652.3906,772.5395 651.75,772.6801 Q651.1094,772.8364 650.4063,772.8364 Q647.9063,772.8364 646.5781,771.1957 Q645.2656,769.5395 645.2656,766.4145 Q645.2656,763.2895 646.5781,761.6332 Q647.9063,759.977 650.4063,759.977 Q651.1094,759.977 651.75,760.1332 Q652.4063,760.2895 652.9688,760.5864 L652.9688,763.3051 Q652.3438,762.727 651.75,762.4614 Q651.1563,762.1801 650.5313,762.1801 Q649.1875,762.1801 648.5,763.2582 Q647.8125,764.3207 647.8125,766.4145 Q647.8125,768.5082 648.5,769.5864 Q649.1875,770.6489 650.5313,770.6489 Q651.1563,770.6489 651.75,770.3832 Q652.3438,770.102 652.9688,769.5239 L652.9688,772.2426 Z " fill="#000000"/><text fill="#000000" font-family="sans-serif" font-size="14" lengthAdjust="spacing" textLength="239" x="664" y="772.034">config.DatabaseConnectArgsConfig</text><line style="stroke:#181818;stroke-width:0.5;" x1="636" x2="905" y1="782.602" y2="782.602"/><line style="stroke:#181818;stroke-width:0.5;" x1="636" x2="905" y1="790.602" y2="790.602"/></g><!--class database_config_postgresql_database_connect_args--><g id="elem_database_config_postgresql_database_connect_args"><rect codeLine="66" fill="#F1F1F1" height="48" id="database_config_postgresql_database_connect_args" rx="2.5" ry="2.5" style="stroke:#181818;stroke-width:0.5;" width="348" x="966" y="796.602"/><ellipse cx="981" cy="812.602" fill="#ADD1B2" rx="11" ry="11" style="stroke:#181818;stroke-width:1.0;"/><path d="M983.9688,818.2426 Q983.3906,818.5395 982.75,818.6801 Q982.1094,818.8364 981.4063,818.8364 Q978.9063,818.8364 977.5781,817.1957 Q976.2656,815.5395 976.2656,812.4145 Q976.2656,809.2895 977.5781,807.6332 Q978.9063,805.977 981.4063,805.977 Q982.1094,805.977 982.75,806.1332 Q983.4063,806.2895 983.9688,806.5864 L983.9688,809.3051 Q983.3438,808.727 982.75,808.4614 Q982.1563,808.1801 981.5313,808.1801 Q980.1875,808.1801 979.5,809.2582 Q978.8125,810.3207 978.8125,812.4145 Q978.8125,814.5082 979.5,815.5864 Q980.1875,816.6489 981.5313,816.6489 Q982.1563,816.6489 982.75,816.3832 Q983.3438,816.102 983.9688,815.5239 L983.9688,818.2426 Z " fill="#000000"/><text fill="#000000" font-family="sans-serif" font-size="14" lengthAdjust="spacing" textLength="316" x="995" y="818.034">config.PostgreSQLDatabaseConnectArgsConfig</text><line style="stroke:#181818;stroke-width:0.5;" x1="967" x2="1313" y1="828.602" y2="828.602"/><line style="stroke:#181818;stroke-width:0.5;" x1="967" x2="1313" y1="836.602" y2="836.602"/></g><!--class database_config_sqlite_database_connect_args--><g id="elem_database_config_sqlite_database_connect_args"><rect codeLine="67" fill="#F1F1F1" height="48" id="database_config_sqlite_database_connect_args" rx="2.5" ry="2.5" style="stroke:#181818;stroke-width:0.5;" width="314" x="983" y="713.602"/><ellipse cx="998" cy="729.602" fill="#ADD1B2" rx="11" ry="11" style="stroke:#181818;stroke-width:1.0;"/><path d="M1000.9688,735.2426 Q1000.3906,735.5395 999.75,735.6801 Q999.1094,735.8364 998.4063,735.8364 Q995.9063,735.8364 994.5781,734.1957 Q993.2656,732.5395 993.2656,729.4145 Q993.2656,726.2895 994.5781,724.6332 Q995.9063,722.977 998.4063,722.977 Q999.1094,722.977 999.75,723.1332 Q1000.4063,723.2895 1000.9688,723.5864 L1000.9688,726.3051 Q1000.3438,725.727 999.75,725.4614 Q999.1563,725.1801 998.5313,725.1801 Q997.1875,725.1801 996.5,726.2582 Q995.8125,727.3207 995.8125,729.4145 Q995.8125,731.5082 996.5,732.5864 Q997.1875,733.6489 998.5313,733.6489 Q999.1563,733.6489 999.75,733.3832 Q1000.3438,733.102 1000.9688,732.5239 L1000.9688,735.2426 Z " fill="#000000"/><text fill="#000000" font-family="sans-serif" font-size="14" lengthAdjust="spacing" textLength="282" x="1012" y="735.034">config.SQLiteDatabaseConnectArgsConfig</text><line style="stroke:#181818;stroke-width:0.5;" x1="984" x2="1296" y1="745.602" y2="745.602"/><line style="stroke:#181818;stroke-width:0.5;" x1="984" x2="1296" y1="753.602" y2="753.602"/></g><!--reverse link pydantic_base_model to web_config--><g id="link_pydantic_base_model_web_config"><path codeLine="70" d="M110.16,530.752 C141.56,494.122 188.32,439.562 222.81,399.332 " fill="none" id="pydantic_base_model-backto-web_config" style="stroke:#181818;stroke-width:1.0;"/><polygon fill="none" points="115.24,535.572,96.91,546.202,104.61,526.462,115.24,535.572" style="stroke:#181818;stroke-width:1.0;"/></g><!--reverse link pydantic_base_model to identity_config--><g id="link_pydantic_base_model_identity_config"><path codeLine="71" d="M148.42,570.602 C168.06,570.602 189.11,570.602 207.99,570.602 " fill="none" id="pydantic_base_model-backto-identity_config" style="stroke:#181818;stroke-width:1.0;"/><polygon fill="none" points="148.21,577.602,128.21,570.602,148.21,563.602,148.21,577.602" style="stroke:#181818;stroke-width:1.0;"/></g><!--reverse link pydantic_base_model to database_config--><g id="link_pydantic_base_model_database_config"><path codeLine="72" d="M115.78,609.042 C129.74,622.522 145.55,637.742 160,651.602 C184.12,674.732 211.36,700.712 232.44,720.782 " fill="none" id="pydantic_base_model-backto-database_config" style="stroke:#181818;stroke-width:1.0;"/><polygon fill="none" points="110.49,613.662,100.96,594.742,120.21,603.592,110.49,613.662" style="stroke:#181818;stroke-width:1.0;"/></g><!--reverse link web_config to web_config_flask--><g id="link_web_config_web_config_flask"><path codeLine="74" d="M343.15,337.262 C363.02,334.722 384.6,331.972 404.67,329.412 " fill="none" id="web_config-backto-web_config_flask" style="stroke:#181818;stroke-width:1.0;"/><polygon fill="#181818" points="330.04,338.942,336.4977,342.151,341.9436,337.4243,335.4859,334.2153,330.04,338.942" style="stroke:#181818;stroke-width:1.0;"/></g><!--reverse link web_config to web_config_web--><g id="link_web_config_web_config_web"><path codeLine="75" d="M340.35,286.732 C374.2,257.922 413.51,224.472 442.04,200.192 " fill="none" id="web_config-backto-web_config_web" style="stroke:#181818;stroke-width:1.0;"/><polygon fill="#181818" points="330.04,295.502,337.2016,294.6582,339.1771,287.7229,332.0155,288.5668,330.04,295.502" style="stroke:#181818;stroke-width:1.0;"/></g><!--reverse link web_config to web_config_logging--><g id="link_web_config_web_config_logging"><path codeLine="76" d="M342.91,369.252 C358.33,373.302 374.6,377.042 390,379.602 C489.14,396.052 604.59,401.072 681.88,402.442 " fill="none" id="web_config-backto-web_config_logging" style="stroke:#181818;stroke-width:1.0;"/><polygon fill="#181818" points="330.19,365.782,334.9287,371.2175,341.7687,368.9338,337.03,363.4983,330.19,365.782" style="stroke:#181818;stroke-width:1.0;"/></g><!--reverse link web_config_flask to web_config_flask_openapi--><g id="link_web_config_flask_web_config_flask_openapi"><path codeLine="77" d="M573.43,319.602 C601.96,319.602 633.78,319.602 663.35,319.602 " fill="none" id="web_config_flask-backto-web_config_flask_openapi" style="stroke:#181818;stroke-width:1.0;"/><polygon fill="#181818" points="560.14,319.602,566.14,323.602,572.14,319.602,566.14,315.602,560.14,319.602" style="stroke:#181818;stroke-width:1.0;"/></g><!--reverse link web_config_flask to web_config_flask_session--><g id="link_web_config_flask_web_config_flask_session"><path codeLine="78" d="M572.75,290.582 C602.75,280.822 636.44,269.872 667.35,259.822 " fill="none" id="web_config_flask-backto-web_config_flask_session" style="stroke:#181818;stroke-width:1.0;"/><polygon fill="#181818" points="560.14,294.682,567.0823,296.6325,571.5529,290.9744,564.6106,289.0239,560.14,294.682" style="stroke:#181818;stroke-width:1.0;"/></g><!--reverse link web_config_flask_session to web_config_flask_session_cookie--><g id="link_web_config_flask_session_web_config_flask_session_cookie"><path codeLine="79" d="M886.9,226.602 C927.62,226.602 973.57,226.602 1014.97,226.602 " fill="none" id="web_config_flask_session-backto-web_config_flask_session_cookie" style="stroke:#181818;stroke-width:1.0;"/><polygon fill="#181818" points="873.87,226.602,879.87,230.602,885.87,226.602,879.87,222.602,873.87,226.602" style="stroke:#181818;stroke-width:1.0;"/></g><!--reverse link web_config_web to web_config_web_security--><g id="link_web_config_web_web_config_web_security"><path codeLine="80" d="M571.8,153.632 C602.07,149.192 636.18,144.182 667.44,139.592 " fill="none" id="web_config_web-backto-web_config_web_security" style="stroke:#181818;stroke-width:1.0;"/><polygon fill="#181818" points="558.64,155.562,565.1598,158.6429,570.5114,153.8096,563.9916,150.7287,558.64,155.562" style="stroke:#181818;stroke-width:1.0;"/></g><!--reverse link web_config_web_security to web_config_web_security_cors--><g id="link_web_config_web_security_web_config_web_security_cors"><path codeLine="81" d="M887.01,124.602 C930.01,124.602 978.81,124.602 1021.95,124.602 " fill="none" id="web_config_web_security-backto-web_config_web_security_cors" style="stroke:#181818;stroke-width:1.0;"/><polygon fill="#181818" points="873.87,124.602,879.87,128.602,885.87,124.602,879.87,120.602,873.87,124.602" style="stroke:#181818;stroke-width:1.0;"/></g><!--reverse link identity_config to identity_config_sso--><g id="link_identity_config_identity_config_sso"><path codeLine="83" d="M343.12,570.602 C364.03,570.602 386.82,570.602 407.76,570.602 " fill="none" id="identity_config-backto-identity_config_sso" style="stroke:#181818;stroke-width:1.0;"/><polygon fill="#181818" points="330.04,570.602,336.04,574.602,342.04,570.602,336.04,566.602,330.04,570.602" style="stroke:#181818;stroke-width:1.0;"/></g><!--reverse link identity_config_sso to identity_config_sso_settings--><g id="link_identity_config_sso_identity_config_sso_settings"><path codeLine="84" d="M570.14,557.882 C601.11,553.332 636.27,548.172 668.34,543.452 " fill="none" id="identity_config_sso-backto-identity_config_sso_settings" style="stroke:#181818;stroke-width:1.0;"/><polygon fill="#181818" points="557.15,559.782,563.6698,562.8629,569.0214,558.0296,562.5016,554.9487,557.15,559.782" style="stroke:#181818;stroke-width:1.0;"/></g><!--reverse link identity_config_sso to identity_config_saml2--><g id="link_identity_config_sso_identity_config_saml2"><path codeLine="85" d="M570.47,583.072 C607.42,588.362 650.29,594.512 686.76,599.742 " fill="none" id="identity_config_sso-backto-identity_config_saml2" style="stroke:#181818;stroke-width:1.0;stroke-dasharray:7.0,7.0;"/><polygon fill="#181818" points="557.15,581.162,562.5173,585.9778,569.027,582.8756,563.6597,578.0598,557.15,581.162" style="stroke:#181818;stroke-width:1.0;"/></g><!--link identity_config_saml2 to identity_config_sso_settings--><g id="link_identity_config_saml2_identity_config_sso_settings"><path codeLine="86" d="M770.5,587.282 C770.5,582.542 770.5,577.792 770.5,573.052 " fill="none" id="identity_config_saml2-to-identity_config_sso_settings" style="stroke:#181818;stroke-width:1.0;"/><polygon fill="none" points="763.5,572.902,770.5,552.902,777.5,572.902,763.5,572.902" style="stroke:#181818;stroke-width:1.0;"/></g><!--reverse link database_config to database_config_database--><g id="link_database_config_database_config_database"><path codeLine="88" d="M343.44,757.032 C358.36,757.522 374.23,758.052 389.69,758.562 " fill="none" id="database_config-backto-database_config_database" style="stroke:#181818;stroke-width:1.0;"/><polygon fill="#181818" points="330.04,756.592,335.9002,760.7942,342.033,757.001,336.1728,752.7988,330.04,756.592" style="stroke:#181818;stroke-width:1.0;"/></g><!--reverse link database_config_database to database_config_database_connect_args--><g id="link_database_config_database_database_config_database_connect_args"><path codeLine="89" d="M588.31,766.362 C603.45,767.052 619.22,767.772 634.85,768.482 " fill="none" id="database_config_database-backto-database_config_database_connect_args" style="stroke:#181818;stroke-width:1.0;"/><polygon fill="#181818" points="575.17,765.772,580.979,770.0447,587.1572,766.3258,581.3482,762.0532,575.17,765.772" style="stroke:#181818;stroke-width:1.0;"/></g><!--reverse link database_config_database to database_config_postgresql_database_connect_args--><g id="link_database_config_database_database_config_postgresql_database_connect_args"><path codeLine="90" d="M574.35,799.472 C594.02,806.112 614.95,812.032 635,815.602 C743.87,834.982 868.08,836.442 965.94,832.962 " fill="none" id="database_config_database-backto-database_config_postgresql_database_connect_args" style="stroke:#181818;stroke-width:1.0;stroke-dasharray:7.0,7.0;"/><polygon fill="#181818" points="561.95,795.142,566.2956,800.8966,573.279,799.0985,568.9333,793.3439,561.95,795.142" style="stroke:#181818;stroke-width:1.0;"/></g><!--reverse link database_config_database to database_config_sqlite_database_connect_args--><g id="link_database_config_database_database_config_sqlite_database_connect_args"><path codeLine="91" d="M588.24,738.892 C603.85,736.282 619.8,734.042 635,732.602 C751.19,721.582 883.11,723.402 982.84,727.672 " fill="none" id="database_config_database-backto-database_config_sqlite_database_connect_args" style="stroke:#181818;stroke-width:1.0;stroke-dasharray:7.0,7.0;"/><polygon fill="#181818" points="575.23,741.162,581.8266,744.0748,587.0525,739.1059,580.4559,736.1931,575.23,741.162" style="stroke:#181818;stroke-width:1.0;"/></g><!--reverse link database_config_database_connect_args to database_config_postgresql_database_connect_args--><g id="link_database_config_database_connect_args_database_config_postgresql_database_connect_args"><path codeLine="92" d="M926.46,794.002 C939.44,795.622 952.62,797.272 965.73,798.912 " fill="none" id="database_config_database_connect_args-backto-database_config_postgresql_database_connect_args" style="stroke:#181818;stroke-width:1.0;"/><polygon fill="none" points="925.23,800.902,906.26,791.472,926.97,787.012,925.23,800.902" style="stroke:#181818;stroke-width:1.0;"/></g><!--reverse link database_config_database_connect_args to database_config_sqlite_database_connect_args--><g id="link_database_config_database_connect_args_database_config_sqlite_database_connect_args"><path codeLine="93" d="M926.33,759.012 C945.01,757.132 964.09,755.212 982.79,753.332 " fill="none" id="database_config_database_connect_args-backto-database_config_sqlite_database_connect_args" style="stroke:#181818;stroke-width:1.0;"/><polygon fill="none" points="926.86,765.992,906.26,761.032,925.45,752.062,926.86,765.992" style="stroke:#181818;stroke-width:1.0;"/></g><!--link database_config_postgresql_database_connect_args to database_config_sqlite_database_connect_args--><!--SRC=[dLPDZziW4BtFhx1yJ9KSzjnBjbLFMUrMFlHGLOZOn47n6jTGLL6x_xs3RLBCL-pr9J3Cl3SCp2CDEwbCYQpdzLbb5UzPgRXe0JfQNcZDikvQqLRn4lv0Xb_PK2blHdAaaf5NKR4cepBB7t7wf6SvlFs7o1yFvEMgpgBT_MR7V8Q41bAAziJh0M0SxZuDF_dWDthhxqFMYBhcRMrPCDwQdH3pCipVWXna0h2v3gF9flJ21bmxw8isnB8K7MjfnosBP5BggYOo6oZ85EfHFQDzt_7xIPA9oaCeHdiivrA82sTJWWlmoHWGfz6hoNHnQ4T_OyTORfALltgkhidizD0uEhZ5P8xllPUfex6XYNQEulVIS8IlFwyOjeswpdl0M5SqWfJ2ozY18UXZGnN5Sxp0Ic4Bo2MGn3WxsCLazi_S0w6lpSCiUlzqU4WNhgAAQgsP5yvOLnJEX7XRTR28cTkWdoTR_2ArBUedeNsWbZ42OaT5sFJwlWyLrqNjX5Hrp-JFvZx1o-XRV3syYmevk6BtQH0V_H8K-iW33yh7lzkjrOPn7-U2nHsT7G1OhyzcHZQANM9TlplprMtWdG7l3GdH6DLVw6qUawZqfw8ctGP7YFtTtHGFOYARY1bK4i0Ljer_M5fI8AHS4T-R_8I3Thkmt41IoV1oDFW_Q1k91LTdDlvTkhK1H8Ka5JLhdWG4xczjnwz3IpKrB9EmKAkzFyi5sAjoJghMS0s-dtc5z-37-aty0m00]--></g></svg>