<?xml version="1.0" encoding="UTF-8" standalone="no"?><svg xmlns="http://www.w3.org/2000/svg" xmlns:xlink="http://www.w3.org/1999/xlink" contentStyleType="text/css" height="467px" preserveAspectRatio="none" style="width:1127px;height:467px;background:#FFFFFF;" version="1.1" viewBox="0 0 1127 467" width="1127px" zoomAndPan="magnify"><defs/><g><!--MD5=[be6700cbb4ecacf17ba1942ef256a4d0]
cluster pydantic--><g id="cluster_pydantic"><path d="M222.5,6 L290.5,6 A3.75,3.75 0 0 1 293,8.5 L300,28.2969 L359.5,28.2969 A2.5,2.5 0 0 1 362,30.7969 L362,102.5 A2.5,2.5 0 0 1 359.5,105 L222.5,105 A2.5,2.5 0 0 1 220,102.5 L220,8.5 A2.5,2.5 0 0 1 222.5,6 " style="stroke:#000000;stroke-width:1.5;fill:none;"/><line style="stroke:#000000;stroke-width:1.5;fill:none;" x1="220" x2="300" y1="28.2969" y2="28.2969"/><text fill="#000000" font-family="sans-serif" font-size="14" font-weight="bold" lengthAdjust="spacing" textLength="67" x="224" y="20.9951">pydantic</text></g><!--MD5=[55363bd121a3e61ac9502285048d1a8e]
cluster BL_Python.identity--><g id="cluster_BL_Python.identity"><path d="M8.5,129 L154.5,129 A3.75,3.75 0 0 1 157,131.5 L164,151.2969 L344.5,151.2969 A2.5,2.5 0 0 1 347,153.7969 L347,457.5 A2.5,2.5 0 0 1 344.5,460 L8.5,460 A2.5,2.5 0 0 1 6,457.5 L6,131.5 A2.5,2.5 0 0 1 8.5,129 " style="stroke:#000000;stroke-width:1.5;fill:none;"/><line style="stroke:#000000;stroke-width:1.5;fill:none;" x1="6" x2="164" y1="151.2969" y2="151.2969"/><text fill="#000000" font-family="sans-serif" font-size="14" font-weight="bold" lengthAdjust="spacing" textLength="145" x="10" y="143.9951">BL_Python.identity</text></g><!--MD5=[661a9c00c111b7fc1c6eb68232edef65]
cluster BL_Python.database--><g id="cluster_BL_Python.database"><path d="M373.5,129 L532.5,129 A3.75,3.75 0 0 1 535,131.5 L542,151.2969 L1117.5,151.2969 A2.5,2.5 0 0 1 1120,153.7969 L1120,457.5 A2.5,2.5 0 0 1 1117.5,460 L373.5,460 A2.5,2.5 0 0 1 371,457.5 L371,131.5 A2.5,2.5 0 0 1 373.5,129 " style="stroke:#000000;stroke-width:1.5;fill:none;"/><line style="stroke:#000000;stroke-width:1.5;fill:none;" x1="371" x2="542" y1="151.2969" y2="151.2969"/><text fill="#000000" font-family="sans-serif" font-size="14" font-weight="bold" lengthAdjust="spacing" textLength="158" x="375" y="143.9951">BL_Python.database</text></g><!--MD5=[5f1ef0b6cf24cec8f63b8f3e76d4085e]
class pydantic_base_model--><g id="elem_pydantic_base_model"><rect codeLine="4" fill="#F1F1F1" height="48" id="pydantic_base_model" rx="2.5" ry="2.5" style="stroke:#181818;stroke-width:0.5;" width="109" x="236.5" y="41"/><ellipse cx="251.5" cy="57" fill="#ADD1B2" rx="11" ry="11" style="stroke:#181818;stroke-width:1.0;"/><path d="M254.4688,62.6406 Q253.8906,62.9375 253.25,63.0781 Q252.6094,63.2344 251.9063,63.2344 Q249.4063,63.2344 248.0781,61.5938 Q246.7656,59.9375 246.7656,56.8125 Q246.7656,53.6875 248.0781,52.0313 Q249.4063,50.375 251.9063,50.375 Q252.6094,50.375 253.25,50.5313 Q253.9063,50.6875 254.4688,50.9844 L254.4688,53.7031 Q253.8438,53.125 253.25,52.8594 Q252.6563,52.5781 252.0313,52.5781 Q250.6875,52.5781 250,53.6563 Q249.3125,54.7188 249.3125,56.8125 Q249.3125,58.9063 250,59.9844 Q250.6875,61.0469 252.0313,61.0469 Q252.6563,61.0469 253.25,60.7813 Q253.8438,60.5 254.4688,59.9219 L254.4688,62.6406 Z " fill="#000000"/><text fill="#000000" font-family="sans-serif" font-size="14" lengthAdjust="spacing" textLength="77" x="265.5" y="61.8467">BaseModel</text><line style="stroke:#181818;stroke-width:0.5;" x1="237.5" x2="344.5" y1="73" y2="73"/><line style="stroke:#181818;stroke-width:0.5;" x1="237.5" x2="344.5" y1="81" y2="81"/></g><!--MD5=[533647fea60084953997cacd050d4869]
class identity_config--><g id="elem_identity_config"><rect codeLine="9" fill="#F1F1F1" height="64.2969" id="identity_config" rx="2.5" ry="2.5" style="stroke:#181818;stroke-width:0.5;" width="122" x="22" y="164"/><ellipse cx="37" cy="180" fill="#ADD1B2" rx="11" ry="11" style="stroke:#181818;stroke-width:1.0;"/><path d="M39.9688,185.6406 Q39.3906,185.9375 38.75,186.0781 Q38.1094,186.2344 37.4063,186.2344 Q34.9063,186.2344 33.5781,184.5938 Q32.2656,182.9375 32.2656,179.8125 Q32.2656,176.6875 33.5781,175.0313 Q34.9063,173.375 37.4063,173.375 Q38.1094,173.375 38.75,173.5313 Q39.4063,173.6875 39.9688,173.9844 L39.9688,176.7031 Q39.3438,176.125 38.75,175.8594 Q38.1563,175.5781 37.5313,175.5781 Q36.1875,175.5781 35.5,176.6563 Q34.8125,177.7188 34.8125,179.8125 Q34.8125,181.9063 35.5,182.9844 Q36.1875,184.0469 37.5313,184.0469 Q38.1563,184.0469 38.75,183.7813 Q39.3438,183.5 39.9688,182.9219 L39.9688,185.6406 Z " fill="#000000"/><text fill="#000000" font-family="sans-serif" font-size="14" lengthAdjust="spacing" textLength="90" x="51" y="184.8467">config.Config</text><line style="stroke:#181818;stroke-width:0.5;" x1="23" x2="143" y1="196" y2="196"/><ellipse cx="33" cy="207" fill="none" rx="3" ry="3" style="stroke:#038048;stroke-width:1.0;"/><text fill="#000000" font-family="sans-serif" font-size="14" lengthAdjust="spacing" textLength="25" x="42" y="212.9951">sso</text><line style="stroke:#181818;stroke-width:0.5;" x1="23" x2="143" y1="220.2969" y2="220.2969"/></g><!--MD5=[5e9ff0d03d9403d56a9d419c248a2d63]
class identity_config_sso--><g id="elem_identity_config_sso"><rect codeLine="13" fill="#F1F1F1" height="64.2969" id="identity_config_sso" rx="2.5" ry="2.5" style="stroke:#181818;stroke-width:0.5;" width="151" x="179.5" y="164"/><ellipse cx="194.5" cy="180" fill="#ADD1B2" rx="11" ry="11" style="stroke:#181818;stroke-width:1.0;"/><path d="M197.4688,185.6406 Q196.8906,185.9375 196.25,186.0781 Q195.6094,186.2344 194.9063,186.2344 Q192.4063,186.2344 191.0781,184.5938 Q189.7656,182.9375 189.7656,179.8125 Q189.7656,176.6875 191.0781,175.0313 Q192.4063,173.375 194.9063,173.375 Q195.6094,173.375 196.25,173.5313 Q196.9063,173.6875 197.4688,173.9844 L197.4688,176.7031 Q196.8438,176.125 196.25,175.8594 Q195.6563,175.5781 195.0313,175.5781 Q193.6875,175.5781 193,176.6563 Q192.3125,177.7188 192.3125,179.8125 Q192.3125,181.9063 193,182.9844 Q193.6875,184.0469 195.0313,184.0469 Q195.6563,184.0469 196.25,183.7813 Q196.8438,183.5 197.4688,182.9219 L197.4688,185.6406 Z " fill="#000000"/><text fill="#000000" font-family="sans-serif" font-size="14" lengthAdjust="spacing" textLength="119" x="208.5" y="184.8467">config.SSOConfig</text><line style="stroke:#181818;stroke-width:0.5;" x1="180.5" x2="329.5" y1="196" y2="196"/><ellipse cx="190.5" cy="207" fill="none" rx="3" ry="3" style="stroke:#038048;stroke-width:1.0;"/><text fill="#000000" font-family="sans-serif" font-size="14" lengthAdjust="spacing" textLength="56" x="199.5" y="212.9951">settings</text><line style="stroke:#181818;stroke-width:0.5;" x1="180.5" x2="329.5" y1="220.2969" y2="220.2969"/></g><!--MD5=[4a6418826575ecc4848a8d64e0deca97]
class identity_config_sso_settings--><g id="elem_identity_config_sso_settings"><rect codeLine="17" fill="#F1F1F1" height="48" id="identity_config_sso_settings" rx="2.5" ry="2.5" style="stroke:#181818;stroke-width:0.5;" width="208" x="54" y="288"/><ellipse cx="69" cy="304" fill="#ADD1B2" rx="11" ry="11" style="stroke:#181818;stroke-width:1.0;"/><path d="M71.9688,309.6406 Q71.3906,309.9375 70.75,310.0781 Q70.1094,310.2344 69.4063,310.2344 Q66.9063,310.2344 65.5781,308.5938 Q64.2656,306.9375 64.2656,303.8125 Q64.2656,300.6875 65.5781,299.0313 Q66.9063,297.375 69.4063,297.375 Q70.1094,297.375 70.75,297.5313 Q71.4063,297.6875 71.9688,297.9844 L71.9688,300.7031 Q71.3438,300.125 70.75,299.8594 Q70.1563,299.5781 69.5313,299.5781 Q68.1875,299.5781 67.5,300.6563 Q66.8125,301.7188 66.8125,303.8125 Q66.8125,305.9063 67.5,306.9844 Q68.1875,308.0469 69.5313,308.0469 Q70.1563,308.0469 70.75,307.7813 Q71.3438,307.5 71.9688,306.9219 L71.9688,309.6406 Z " fill="#000000"/><text fill="#000000" font-family="sans-serif" font-size="14" lengthAdjust="spacing" textLength="176" x="83" y="308.8467">config.SSOSettingsConfig</text><line style="stroke:#181818;stroke-width:0.5;" x1="55" x2="261" y1="320" y2="320"/><line style="stroke:#181818;stroke-width:0.5;" x1="55" x2="261" y1="328" y2="328"/></g><!--MD5=[efa31be024e67dce12f5be6c093a3fbb]
class identity_config_saml2--><g id="elem_identity_config_saml2"><rect codeLine="18" fill="#F1F1F1" height="48" id="identity_config_saml2" rx="2.5" ry="2.5" style="stroke:#181818;stroke-width:0.5;" width="168" x="118" y="396"/><ellipse cx="133" cy="412" fill="#ADD1B2" rx="11" ry="11" style="stroke:#181818;stroke-width:1.0;"/><path d="M135.9688,417.6406 Q135.3906,417.9375 134.75,418.0781 Q134.1094,418.2344 133.4063,418.2344 Q130.9063,418.2344 129.5781,416.5938 Q128.2656,414.9375 128.2656,411.8125 Q128.2656,408.6875 129.5781,407.0313 Q130.9063,405.375 133.4063,405.375 Q134.1094,405.375 134.75,405.5313 Q135.4063,405.6875 135.9688,405.9844 L135.9688,408.7031 Q135.3438,408.125 134.75,407.8594 Q134.1563,407.5781 133.5313,407.5781 Q132.1875,407.5781 131.5,408.6563 Q130.8125,409.7188 130.8125,411.8125 Q130.8125,413.9063 131.5,414.9844 Q132.1875,416.0469 133.5313,416.0469 Q134.1563,416.0469 134.75,415.7813 Q135.3438,415.5 135.9688,414.9219 L135.9688,417.6406 Z " fill="#000000"/><text fill="#000000" font-family="sans-serif" font-size="14" lengthAdjust="spacing" textLength="136" x="147" y="416.8467">config.SAML2Config</text><line style="stroke:#181818;stroke-width:0.5;" x1="119" x2="285" y1="428" y2="428"/><line style="stroke:#181818;stroke-width:0.5;" x1="119" x2="285" y1="436" y2="436"/></g><!--MD5=[b80c473a51fcaec7cb7274747f6da2a2]
class database_config--><g id="elem_database_config"><rect codeLine="23" fill="#F1F1F1" height="64.2969" id="database_config" rx="2.5" ry="2.5" style="stroke:#181818;stroke-width:0.5;" width="122" x="413" y="164"/><ellipse cx="428" cy="180" fill="#ADD1B2" rx="11" ry="11" style="stroke:#181818;stroke-width:1.0;"/><path d="M430.9688,185.6406 Q430.3906,185.9375 429.75,186.0781 Q429.1094,186.2344 428.4063,186.2344 Q425.9063,186.2344 424.5781,184.5938 Q423.2656,182.9375 423.2656,179.8125 Q423.2656,176.6875 424.5781,175.0313 Q425.9063,173.375 428.4063,173.375 Q429.1094,173.375 429.75,173.5313 Q430.4063,173.6875 430.9688,173.9844 L430.9688,176.7031 Q430.3438,176.125 429.75,175.8594 Q429.1563,175.5781 428.5313,175.5781 Q427.1875,175.5781 426.5,176.6563 Q425.8125,177.7188 425.8125,179.8125 Q425.8125,181.9063 426.5,182.9844 Q427.1875,184.0469 428.5313,184.0469 Q429.1563,184.0469 429.75,183.7813 Q430.3438,183.5 430.9688,182.9219 L430.9688,185.6406 Z " fill="#000000"/><text fill="#000000" font-family="sans-serif" font-size="14" lengthAdjust="spacing" textLength="90" x="442" y="184.8467">config.Config</text><line style="stroke:#181818;stroke-width:0.5;" x1="414" x2="534" y1="196" y2="196"/><ellipse cx="424" cy="207" fill="none" rx="3" ry="3" style="stroke:#038048;stroke-width:1.0;"/><text fill="#000000" font-family="sans-serif" font-size="14" lengthAdjust="spacing" textLength="64" x="433" y="212.9951">database</text><line style="stroke:#181818;stroke-width:0.5;" x1="414" x2="534" y1="220.2969" y2="220.2969"/></g><!--MD5=[5228f359adb9d5a9d31b9bd8584d03ca]
class database_config_database--><g id="elem_database_config_database"><rect codeLine="27" fill="#F1F1F1" height="64.2969" id="database_config_database" rx="2.5" ry="2.5" style="stroke:#181818;stroke-width:0.5;" width="188" x="622" y="164"/><ellipse cx="637" cy="180" fill="#ADD1B2" rx="11" ry="11" style="stroke:#181818;stroke-width:1.0;"/><path d="M639.9688,185.6406 Q639.3906,185.9375 638.75,186.0781 Q638.1094,186.2344 637.4063,186.2344 Q634.9063,186.2344 633.5781,184.5938 Q632.2656,182.9375 632.2656,179.8125 Q632.2656,176.6875 633.5781,175.0313 Q634.9063,173.375 637.4063,173.375 Q638.1094,173.375 638.75,173.5313 Q639.4063,173.6875 639.9688,173.9844 L639.9688,176.7031 Q639.3438,176.125 638.75,175.8594 Q638.1563,175.5781 637.5313,175.5781 Q636.1875,175.5781 635.5,176.6563 Q634.8125,177.7188 634.8125,179.8125 Q634.8125,181.9063 635.5,182.9844 Q636.1875,184.0469 637.5313,184.0469 Q638.1563,184.0469 638.75,183.7813 Q639.3438,183.5 639.9688,182.9219 L639.9688,185.6406 Z " fill="#000000"/><text fill="#000000" font-family="sans-serif" font-size="14" lengthAdjust="spacing" textLength="156" x="651" y="184.8467">config.DatabaseConfig</text><line style="stroke:#181818;stroke-width:0.5;" x1="623" x2="809" y1="196" y2="196"/><ellipse cx="633" cy="207" fill="none" rx="3" ry="3" style="stroke:#038048;stroke-width:1.0;"/><text fill="#000000" font-family="sans-serif" font-size="14" lengthAdjust="spacing" textLength="94" x="642" y="212.9951">connect_args</text><line style="stroke:#181818;stroke-width:0.5;" x1="623" x2="809" y1="220.2969" y2="220.2969"/></g><!--MD5=[d8b73892688241ace390e0c9baa35110]
class database_config_database_connect_args--><g id="elem_database_config_database_connect_args"><rect codeLine="31" fill="#F1F1F1" height="48" id="database_config_database_connect_args" rx="2.5" ry="2.5" style="stroke:#181818;stroke-width:0.5;" width="278" x="603" y="288"/><ellipse cx="618" cy="304" fill="#ADD1B2" rx="11" ry="11" style="stroke:#181818;stroke-width:1.0;"/><path d="M620.9688,309.6406 Q620.3906,309.9375 619.75,310.0781 Q619.1094,310.2344 618.4063,310.2344 Q615.9063,310.2344 614.5781,308.5938 Q613.2656,306.9375 613.2656,303.8125 Q613.2656,300.6875 614.5781,299.0313 Q615.9063,297.375 618.4063,297.375 Q619.1094,297.375 619.75,297.5313 Q620.4063,297.6875 620.9688,297.9844 L620.9688,300.7031 Q620.3438,300.125 619.75,299.8594 Q619.1563,299.5781 618.5313,299.5781 Q617.1875,299.5781 616.5,300.6563 Q615.8125,301.7188 615.8125,303.8125 Q615.8125,305.9063 616.5,306.9844 Q617.1875,308.0469 618.5313,308.0469 Q619.1563,308.0469 619.75,307.7813 Q620.3438,307.5 620.9688,306.9219 L620.9688,309.6406 Z " fill="#000000"/><text fill="#000000" font-family="sans-serif" font-size="14" lengthAdjust="spacing" textLength="246" x="632" y="308.8467">config.DatabaseConnectArgsConfig</text><line style="stroke:#181818;stroke-width:0.5;" x1="604" x2="880" y1="320" y2="320"/><line style="stroke:#181818;stroke-width:0.5;" x1="604" x2="880" y1="328" y2="328"/></g><!--MD5=[3f454245e576c548a76df1c8ef275afa]
class database_config_postgresql_database_connect_args--><g id="elem_database_config_postgresql_database_connect_args"><rect codeLine="32" fill="#F1F1F1" height="48" id="database_config_postgresql_database_connect_args" rx="2.5" ry="2.5" style="stroke:#181818;stroke-width:0.5;" width="359" x="387.5" y="396"/><ellipse cx="402.5" cy="412" fill="#ADD1B2" rx="11" ry="11" style="stroke:#181818;stroke-width:1.0;"/><path d="M405.4688,417.6406 Q404.8906,417.9375 404.25,418.0781 Q403.6094,418.2344 402.9063,418.2344 Q400.4063,418.2344 399.0781,416.5938 Q397.7656,414.9375 397.7656,411.8125 Q397.7656,408.6875 399.0781,407.0313 Q400.4063,405.375 402.9063,405.375 Q403.6094,405.375 404.25,405.5313 Q404.9063,405.6875 405.4688,405.9844 L405.4688,408.7031 Q404.8438,408.125 404.25,407.8594 Q403.6563,407.5781 403.0313,407.5781 Q401.6875,407.5781 401,408.6563 Q400.3125,409.7188 400.3125,411.8125 Q400.3125,413.9063 401,414.9844 Q401.6875,416.0469 403.0313,416.0469 Q403.6563,416.0469 404.25,415.7813 Q404.8438,415.5 405.4688,414.9219 L405.4688,417.6406 Z " fill="#000000"/><text fill="#000000" font-family="sans-serif" font-size="14" lengthAdjust="spacing" textLength="327" x="416.5" y="416.8467">config.PostgreSQLDatabaseConnectArgsConfig</text><line style="stroke:#181818;stroke-width:0.5;" x1="388.5" x2="745.5" y1="428" y2="428"/><line style="stroke:#181818;stroke-width:0.5;" x1="388.5" x2="745.5" y1="436" y2="436"/></g><!--MD5=[077a94868b04172fe1c853122645d9e8]
class database_config_sqlite_database_connect_args--><g id="elem_database_config_sqlite_database_connect_args"><rect codeLine="33" fill="#F1F1F1" height="48" id="database_config_sqlite_database_connect_args" rx="2.5" ry="2.5" style="stroke:#181818;stroke-width:0.5;" width="322" x="782" y="396"/><ellipse cx="797" cy="412" fill="#ADD1B2" rx="11" ry="11" style="stroke:#181818;stroke-width:1.0;"/><path d="M799.9688,417.6406 Q799.3906,417.9375 798.75,418.0781 Q798.1094,418.2344 797.4063,418.2344 Q794.9063,418.2344 793.5781,416.5938 Q792.2656,414.9375 792.2656,411.8125 Q792.2656,408.6875 793.5781,407.0313 Q794.9063,405.375 797.4063,405.375 Q798.1094,405.375 798.75,405.5313 Q799.4063,405.6875 799.9688,405.9844 L799.9688,408.7031 Q799.3438,408.125 798.75,407.8594 Q798.1563,407.5781 797.5313,407.5781 Q796.1875,407.5781 795.5,408.6563 Q794.8125,409.7188 794.8125,411.8125 Q794.8125,413.9063 795.5,414.9844 Q796.1875,416.0469 797.5313,416.0469 Q798.1563,416.0469 798.75,415.7813 Q799.3438,415.5 799.9688,414.9219 L799.9688,417.6406 Z " fill="#000000"/><text fill="#000000" font-family="sans-serif" font-size="14" lengthAdjust="spacing" textLength="290" x="811" y="416.8467">config.SQLiteDatabaseConnectArgsConfig</text><line style="stroke:#181818;stroke-width:0.5;" x1="783" x2="1103" y1="428" y2="428"/><line style="stroke:#181818;stroke-width:0.5;" x1="783" x2="1103" y1="436" y2="436"/></g><!--MD5=[0447a8873e1f16bc4d510e22ac14426d]
reverse link pydantic_base_model to identity_config--><g id="link_pydantic_base_model_identity_config"><path codeLine="36" d="M217.71,92.01 C198.88,100.08 179.12,109.84 162,121 C143.58,133.01 125.5,149.5 111.29,163.86 " fill="none" id="pydantic_base_model-backto-identity_config" style="stroke:#181818;stroke-width:1.0;"/><polygon fill="none" points="215.3,85.43,236.47,84.37,220.59,98.4,215.3,85.43" style="stroke:#181818;stroke-width:1.0;"/></g><!--MD5=[1a60c48a83344a7ecc1f0c26690f9f2c]
reverse link pydantic_base_model to database_config--><g id="link_pydantic_base_model_database_config"><path codeLine="37" d="M340.12,100.62 C368.07,120.33 402.8,144.81 429.88,163.9 " fill="none" id="pydantic_base_model-backto-database_config" style="stroke:#181818;stroke-width:1.0;"/><polygon fill="none" points="336.03,106.31,323.72,89.06,344.1,94.86,336.03,106.31" style="stroke:#181818;stroke-width:1.0;"/></g><!--MD5=[2596ec5aa3355317fd72fe44a6254f49]
reverse link identity_config to identity_config_sso--><g id="link_identity_config_identity_config_sso"><path codeLine="39" d="M157.29,196 C164.6,196 171.91,196 179.22,196 " fill="none" id="identity_config-backto-identity_config_sso" style="stroke:#181818;stroke-width:1.0;"/><polygon fill="#181818" points="144.14,196,150.14,200,156.14,196,150.14,192,144.14,196" style="stroke:#181818;stroke-width:1.0;"/></g><!--MD5=[595902294208b2909027785eda7e2c8c]
reverse link identity_config_sso to identity_config_sso_settings--><g id="link_identity_config_sso_identity_config_sso_settings"><path codeLine="40" d="M219.91,238.24 C205.7,254.94 189.82,273.6 177.7,287.84 " fill="none" id="identity_config_sso-backto-identity_config_sso_settings" style="stroke:#181818;stroke-width:1.0;"/><polygon fill="#181818" points="228.49,228.15,221.5562,230.1305,220.7175,237.2926,227.6513,235.3122,228.49,228.15" style="stroke:#181818;stroke-width:1.0;"/></g><!--MD5=[11019eb490258867d8a03b59f695d518]
reverse link identity_config_sso to identity_config_saml2--><g id="link_identity_config_sso_identity_config_saml2"><path codeLine="41" d="M274.68,240.27 C284.59,268.34 292.18,305.26 280,336 C270.53,359.9 250.57,380.93 233.21,395.84 " fill="none" id="identity_config_sso-backto-identity_config_saml2" style="stroke:#181818;stroke-width:1.0;stroke-dasharray:7.0,7.0;"/><polygon fill="#181818" points="270.03,228.06,268.4266,235.0906,274.2998,239.2747,275.9031,232.2441,270.03,228.06" style="stroke:#181818;stroke-width:1.0;"/></g><!--MD5=[c0701f54d7bf410fb4c6ce1eb30812ec]
reverse link identity_config_sso_settings to identity_config_saml2--><g id="link_identity_config_sso_settings_identity_config_saml2"><path codeLine="42" d="M175.26,354.57 C181.06,368.54 187.31,383.62 192.32,395.68 " fill="none" id="identity_config_sso_settings-backto-identity_config_saml2" style="stroke:#181818;stroke-width:1.0;"/><polygon fill="none" points="168.75,357.16,167.55,336,181.68,351.79,168.75,357.16" style="stroke:#181818;stroke-width:1.0;"/></g><!--MD5=[8fed786762cee7f60f5a72d7dc5649e9]
reverse link database_config to database_config_database--><g id="link_database_config_database_config_database"><path codeLine="44" d="M548.61,196 C573.02,196 597.43,196 621.84,196 " fill="none" id="database_config-backto-database_config_database" style="stroke:#181818;stroke-width:1.0;"/><polygon fill="#181818" points="535.45,196,541.45,200,547.45,196,541.45,192,535.45,196" style="stroke:#181818;stroke-width:1.0;"/></g><!--MD5=[a9e3ce37f5bad9260eaaa27acaa384b1]
reverse link database_config_database to database_config_database_connect_args--><g id="link_database_config_database_database_config_database_connect_args"><path codeLine="45" d="M726.06,241.09 C729.69,257.04 733.65,274.41 736.72,287.84 " fill="none" id="database_config_database-backto-database_config_database_connect_args" style="stroke:#181818;stroke-width:1.0;"/><polygon fill="#181818" points="723.1,228.15,720.5394,234.8912,725.7771,239.8476,728.3377,233.1064,723.1,228.15" style="stroke:#181818;stroke-width:1.0;"/></g><!--MD5=[e92fb91008c2d1105c8844e65eb6ebd3]
reverse link database_config_database to database_config_postgresql_database_connect_args--><g id="link_database_config_database_database_config_postgresql_database_connect_args"><path codeLine="46" d="M639.78,235.21 C619.24,249.1 599.1,266.72 586,288 C565.51,321.26 563.86,368.12 565.06,395.84 " fill="none" id="database_config_database-backto-database_config_postgresql_database_connect_args" style="stroke:#181818;stroke-width:1.0;stroke-dasharray:7.0,7.0;"/><polygon fill="#181818" points="650.86,228.09,643.6498,227.9779,640.7731,234.5904,647.9834,234.7025,650.86,228.09" style="stroke:#181818;stroke-width:1.0;"/></g><!--MD5=[7f0dd954ba05838c13954881f5a1634b]
reverse link database_config_database to database_config_sqlite_database_connect_args--><g id="link_database_config_database_database_config_sqlite_database_connect_args"><path codeLine="47" d="M822.14,232.54 C850.22,246.19 878.4,264.36 899,288 C926.11,319.11 936.65,367.55 940.65,395.99 " fill="none" id="database_config_database-backto-database_config_sqlite_database_connect_args" style="stroke:#181818;stroke-width:1.0;stroke-dasharray:7.0,7.0;"/><polygon fill="#181818" points="810.13,226.97,813.8878,233.1246,821.0143,232.0229,817.2565,225.8684,810.13,226.97" style="stroke:#181818;stroke-width:1.0;"/></g><!--MD5=[5f149957064b803f67218ae72b280f23]
reverse link database_config_database_connect_args to database_config_postgresql_database_connect_args--><g id="link_database_config_database_connect_args_database_config_postgresql_database_connect_args"><path codeLine="48" d="M686.56,346.58 C660.06,362.63 629.01,381.44 605.2,395.86 " fill="none" id="database_config_database_connect_args-backto-database_config_postgresql_database_connect_args" style="stroke:#181818;stroke-width:1.0;"/><polygon fill="none" points="683.29,340.37,704.03,336,690.55,352.35,683.29,340.37" style="stroke:#181818;stroke-width:1.0;"/></g><!--MD5=[d660b5167f918218f5d6d6c1abfb7d9f]
reverse link database_config_database_connect_args to database_config_sqlite_database_connect_args--><g id="link_database_config_database_connect_args_database_config_sqlite_database_connect_args"><path codeLine="49" d="M803.5,345.43 C834.39,361.73 871.11,381.09 899.12,395.86 " fill="none" id="database_config_database_connect_args-backto-database_config_sqlite_database_connect_args" style="stroke:#181818;stroke-width:1.0;"/><polygon fill="none" points="800.04,351.52,785.61,336,806.57,339.14,800.04,351.52" style="stroke:#181818;stroke-width:1.0;"/></g><!--MD5=[0202b7025695d45471111ad1e5d1ef9e]
@startuml

package "pydantic"
{
    class pydantic_base_model as "BaseModel"
}

package "BL_Python.identity"
{
    class identity_config as "config.Config"
    {
        + sso
    }
    class identity_config_sso as "config.SSOConfig"
    {
        + settings
    }
    class identity_config_sso_settings as "config.SSOSettingsConfig"
    class identity_config_saml2 as "config.SAML2Config"
}

package "BL_Python.database"
{
    class database_config as "config.Config"
    {
        + database
    }
    class database_config_database as "config.DatabaseConfig"
    {
        + connect_args
    }
    class database_config_database_connect_args as "config.DatabaseConnectArgsConfig"
    class database_config_postgresql_database_connect_args as "config.PostgreSQLDatabaseConnectArgsConfig"
    class database_config_sqlite_database_connect_args as "config.SQLiteDatabaseConnectArgsConfig"
}

pydantic_base_model <|- - identity_config
pydantic_base_model <|- - database_config

identity_config *-right- identity_config_sso
identity_config_sso *- - identity_config_sso_settings
identity_config_sso *.. identity_config_saml2
identity_config_sso_settings <|-down- identity_config_saml2

database_config *-right- database_config_database
database_config_database *- - database_config_database_connect_args
database_config_database *.. database_config_postgresql_database_connect_args
database_config_database *.. database_config_sqlite_database_connect_args
database_config_database_connect_args <|-down- database_config_postgresql_database_connect_args
database_config_database_connect_args <|-down- database_config_sqlite_database_connect_args
@enduml

PlantUML version 1.2022.6(Tue Jun 21 17:34:49 GMT 2022)
(GPL source distribution)
Java Runtime: OpenJDK Runtime Environment
JVM: OpenJDK 64-Bit Server VM
Default Encoding: UTF-8
Language: en
Country: US
--></g></svg>