<?xml version="1.0" encoding="us-ascii" standalone="no"?><svg xmlns="http://www.w3.org/2000/svg" xmlns:xlink="http://www.w3.org/1999/xlink" contentStyleType="text/css" height="546px" preserveAspectRatio="none" style="width:1152px;height:546px;background:#FFFFFF;" version="1.1" viewBox="0 0 1152 546" width="1152px" zoomAndPan="magnify"><defs/><g><!--cluster pydantic--><g id="cluster_pydantic"><path d="M518.5,6.602 L579.5,6.602 A3.75,3.75 0 0 1 582,9.102 L589,31.6699 L651.5,31.6699 A2.5,2.5 0 0 1 654,34.1699 L654,106.102 A2.5,2.5 0 0 1 651.5,108.602 L518.5,108.602 A2.5,2.5 0 0 1 516,106.102 L516,9.102 A2.5,2.5 0 0 1 518.5,6.602 " fill="none" style="stroke:#000000;stroke-width:1.5;"/><line style="stroke:#000000;stroke-width:1.5;" x1="516" x2="589" y1="31.6699" y2="31.6699"/><text fill="#000000" font-family="sans-serif" font-size="14" font-weight="bold" lengthAdjust="spacing" textLength="60" x="520" y="23.5679">pydantic</text></g><!--cluster BL_Python--><g id="cluster_BL_Python"><path d="M8.5,132.602 L82.5,132.602 A3.75,3.75 0 0 1 85,135.102 L92,157.6699 L1142.5,157.6699 A2.5,2.5 0 0 1 1145,160.1699 L1145,537.102 A2.5,2.5 0 0 1 1142.5,539.602 L8.5,539.602 A2.5,2.5 0 0 1 6,537.102 L6,135.102 A2.5,2.5 0 0 1 8.5,132.602 " fill="none" style="stroke:#000000;stroke-width:1.5;"/><line style="stroke:#000000;stroke-width:1.5;" x1="6" x2="92" y1="157.6699" y2="157.6699"/><text fill="#000000" font-family="sans-serif" font-size="14" font-weight="bold" lengthAdjust="spacing" textLength="73" x="10" y="149.5679">BL_Python</text></g><!--cluster identity--><g id="cluster_identity"><path d="M785.5,178.602 L840.5,178.602 A3.75,3.75 0 0 1 843,181.102 L850,203.6699 L1118.5,203.6699 A2.5,2.5 0 0 1 1121,206.1699 L1121,513.102 A2.5,2.5 0 0 1 1118.5,515.602 L785.5,515.602 A2.5,2.5 0 0 1 783,513.102 L783,181.102 A2.5,2.5 0 0 1 785.5,178.602 " fill="none" style="stroke:#000000;stroke-width:1.5;"/><line style="stroke:#000000;stroke-width:1.5;" x1="783" x2="850" y1="203.6699" y2="203.6699"/><text fill="#000000" font-family="sans-serif" font-size="14" font-weight="bold" lengthAdjust="spacing" textLength="54" x="787" y="195.5679">identity</text></g><!--cluster database--><g id="cluster_database"><path d="M32.5,178.602 L96.5,178.602 A3.75,3.75 0 0 1 99,181.102 L106,203.6699 L756.5,203.6699 A2.5,2.5 0 0 1 759,206.1699 L759,513.102 A2.5,2.5 0 0 1 756.5,515.602 L32.5,515.602 A2.5,2.5 0 0 1 30,513.102 L30,181.102 A2.5,2.5 0 0 1 32.5,178.602 " fill="none" style="stroke:#000000;stroke-width:1.5;"/><line style="stroke:#000000;stroke-width:1.5;" x1="30" x2="106" y1="203.6699" y2="203.6699"/><text fill="#000000" font-family="sans-serif" font-size="14" font-weight="bold" lengthAdjust="spacing" textLength="63" x="34" y="195.5679">database</text></g><!--class pydantic_base_model--><g id="elem_pydantic_base_model"><rect codeLine="4" fill="#F1F1F1" height="48" id="pydantic_base_model" rx="2.5" ry="2.5" style="stroke:#181818;stroke-width:0.5;" width="106" x="532" y="44.602"/><ellipse cx="547" cy="60.602" fill="#ADD1B2" rx="11" ry="11" style="stroke:#181818;stroke-width:1.0;"/><path d="M549.9688,66.2426 Q549.3906,66.5395 548.75,66.6801 Q548.1094,66.8364 547.4063,66.8364 Q544.9063,66.8364 543.5781,65.1957 Q542.2656,63.5395 542.2656,60.4145 Q542.2656,57.2895 543.5781,55.6332 Q544.9063,53.977 547.4063,53.977 Q548.1094,53.977 548.75,54.1332 Q549.4063,54.2895 549.9688,54.5864 L549.9688,57.3051 Q549.3438,56.727 548.75,56.4614 Q548.1563,56.1801 547.5313,56.1801 Q546.1875,56.1801 545.5,57.2582 Q544.8125,58.3207 544.8125,60.4145 Q544.8125,62.5082 545.5,63.5864 Q546.1875,64.6489 547.5313,64.6489 Q548.1563,64.6489 548.75,64.3832 Q549.3438,64.102 549.9688,63.5239 L549.9688,66.2426 Z " fill="#000000"/><text fill="#000000" font-family="sans-serif" font-size="14" lengthAdjust="spacing" textLength="74" x="561" y="66.034">BaseModel</text><line style="stroke:#181818;stroke-width:0.5;" x1="533" x2="637" y1="76.602" y2="76.602"/><line style="stroke:#181818;stroke-width:0.5;" x1="533" x2="637" y1="84.602" y2="84.602"/></g><!--class identity_config--><g id="elem_identity_config"><rect codeLine="9" fill="#F1F1F1" height="67.0679" id="identity_config" rx="2.5" ry="2.5" style="stroke:#181818;stroke-width:0.5;" width="122" x="799" y="216.602"/><ellipse cx="814" cy="232.602" fill="#ADD1B2" rx="11" ry="11" style="stroke:#181818;stroke-width:1.0;"/><path d="M816.9688,238.2426 Q816.3906,238.5395 815.75,238.6801 Q815.1094,238.8364 814.4063,238.8364 Q811.9063,238.8364 810.5781,237.1957 Q809.2656,235.5395 809.2656,232.4145 Q809.2656,229.2895 810.5781,227.6332 Q811.9063,225.977 814.4063,225.977 Q815.1094,225.977 815.75,226.1332 Q816.4063,226.2895 816.9688,226.5864 L816.9688,229.3051 Q816.3438,228.727 815.75,228.4614 Q815.1563,228.1801 814.5313,228.1801 Q813.1875,228.1801 812.5,229.2582 Q811.8125,230.3207 811.8125,232.4145 Q811.8125,234.5082 812.5,235.5864 Q813.1875,236.6489 814.5313,236.6489 Q815.1563,236.6489 815.75,236.3832 Q816.3438,236.102 816.9688,235.5239 L816.9688,238.2426 Z " fill="#000000"/><text fill="#000000" font-family="sans-serif" font-size="14" lengthAdjust="spacing" textLength="90" x="828" y="238.034">config.Config</text><line style="stroke:#181818;stroke-width:0.5;" x1="800" x2="920" y1="248.602" y2="248.602"/><ellipse cx="810" cy="263.6359" fill="none" rx="3" ry="3" style="stroke:#038048;stroke-width:1.0;"/><text fill="#000000" font-family="sans-serif" font-size="14" lengthAdjust="spacing" textLength="22" x="819" y="267.5679">sso</text><line style="stroke:#181818;stroke-width:0.5;" x1="800" x2="920" y1="275.6699" y2="275.6699"/></g><!--class identity_config_sso--><g id="elem_identity_config_sso"><rect codeLine="13" fill="#F1F1F1" height="67.0679" id="identity_config_sso" rx="2.5" ry="2.5" style="stroke:#181818;stroke-width:0.5;" width="149" x="956.5" y="216.602"/><ellipse cx="971.5" cy="232.602" fill="#ADD1B2" rx="11" ry="11" style="stroke:#181818;stroke-width:1.0;"/><path d="M974.4688,238.2426 Q973.8906,238.5395 973.25,238.6801 Q972.6094,238.8364 971.9063,238.8364 Q969.4063,238.8364 968.0781,237.1957 Q966.7656,235.5395 966.7656,232.4145 Q966.7656,229.2895 968.0781,227.6332 Q969.4063,225.977 971.9063,225.977 Q972.6094,225.977 973.25,226.1332 Q973.9063,226.2895 974.4688,226.5864 L974.4688,229.3051 Q973.8438,228.727 973.25,228.4614 Q972.6563,228.1801 972.0313,228.1801 Q970.6875,228.1801 970,229.2582 Q969.3125,230.3207 969.3125,232.4145 Q969.3125,234.5082 970,235.5864 Q970.6875,236.6489 972.0313,236.6489 Q972.6563,236.6489 973.25,236.3832 Q973.8438,236.102 974.4688,235.5239 L974.4688,238.2426 Z " fill="#000000"/><text fill="#000000" font-family="sans-serif" font-size="14" lengthAdjust="spacing" textLength="117" x="985.5" y="238.034">config.SSOConfig</text><line style="stroke:#181818;stroke-width:0.5;" x1="957.5" x2="1104.5" y1="248.602" y2="248.602"/><ellipse cx="967.5" cy="263.6359" fill="none" rx="3" ry="3" style="stroke:#038048;stroke-width:1.0;"/><text fill="#000000" font-family="sans-serif" font-size="14" lengthAdjust="spacing" textLength="54" x="976.5" y="267.5679">settings</text><line style="stroke:#181818;stroke-width:0.5;" x1="957.5" x2="1104.5" y1="275.6699" y2="275.6699"/></g><!--class identity_config_sso_settings--><g id="elem_identity_config_sso_settings"><rect codeLine="17" fill="#F1F1F1" height="48" id="identity_config_sso_settings" rx="2.5" ry="2.5" style="stroke:#181818;stroke-width:0.5;" width="204" x="831" y="343.602"/><ellipse cx="846" cy="359.602" fill="#ADD1B2" rx="11" ry="11" style="stroke:#181818;stroke-width:1.0;"/><path d="M848.9688,365.2426 Q848.3906,365.5395 847.75,365.6801 Q847.1094,365.8364 846.4063,365.8364 Q843.9063,365.8364 842.5781,364.1957 Q841.2656,362.5395 841.2656,359.4145 Q841.2656,356.2895 842.5781,354.6332 Q843.9063,352.977 846.4063,352.977 Q847.1094,352.977 847.75,353.1332 Q848.4063,353.2895 848.9688,353.5864 L848.9688,356.3051 Q848.3438,355.727 847.75,355.4614 Q847.1563,355.1801 846.5313,355.1801 Q845.1875,355.1801 844.5,356.2582 Q843.8125,357.3207 843.8125,359.4145 Q843.8125,361.5082 844.5,362.5864 Q845.1875,363.6489 846.5313,363.6489 Q847.1563,363.6489 847.75,363.3832 Q848.3438,363.102 848.9688,362.5239 L848.9688,365.2426 Z " fill="#000000"/><text fill="#000000" font-family="sans-serif" font-size="14" lengthAdjust="spacing" textLength="172" x="860" y="365.034">config.SSOSettingsConfig</text><line style="stroke:#181818;stroke-width:0.5;" x1="832" x2="1034" y1="375.602" y2="375.602"/><line style="stroke:#181818;stroke-width:0.5;" x1="832" x2="1034" y1="383.602" y2="383.602"/></g><!--class identity_config_saml2--><g id="elem_identity_config_saml2"><rect codeLine="18" fill="#F1F1F1" height="48" id="identity_config_saml2" rx="2.5" ry="2.5" style="stroke:#181818;stroke-width:0.5;" width="167" x="893.5" y="451.602"/><ellipse cx="908.5" cy="467.602" fill="#ADD1B2" rx="11" ry="11" style="stroke:#181818;stroke-width:1.0;"/><path d="M911.4688,473.2426 Q910.8906,473.5395 910.25,473.6801 Q909.6094,473.8364 908.9063,473.8364 Q906.4063,473.8364 905.0781,472.1957 Q903.7656,470.5395 903.7656,467.4145 Q903.7656,464.2895 905.0781,462.6332 Q906.4063,460.977 908.9063,460.977 Q909.6094,460.977 910.25,461.1332 Q910.9063,461.2895 911.4688,461.5864 L911.4688,464.3051 Q910.8438,463.727 910.25,463.4614 Q909.6563,463.1801 909.0313,463.1801 Q907.6875,463.1801 907,464.2582 Q906.3125,465.3207 906.3125,467.4145 Q906.3125,469.5082 907,470.5864 Q907.6875,471.6489 909.0313,471.6489 Q909.6563,471.6489 910.25,471.3832 Q910.8438,471.102 911.4688,470.5239 L911.4688,473.2426 Z " fill="#000000"/><text fill="#000000" font-family="sans-serif" font-size="14" lengthAdjust="spacing" textLength="135" x="922.5" y="473.034">config.SAML2Config</text><line style="stroke:#181818;stroke-width:0.5;" x1="894.5" x2="1059.5" y1="483.602" y2="483.602"/><line style="stroke:#181818;stroke-width:0.5;" x1="894.5" x2="1059.5" y1="491.602" y2="491.602"/></g><!--class database_config--><g id="elem_database_config"><rect codeLine="23" fill="#F1F1F1" height="67.0679" id="database_config" rx="2.5" ry="2.5" style="stroke:#181818;stroke-width:0.5;" width="122" x="250" y="216.602"/><ellipse cx="265" cy="232.602" fill="#ADD1B2" rx="11" ry="11" style="stroke:#181818;stroke-width:1.0;"/><path d="M267.9688,238.2426 Q267.3906,238.5395 266.75,238.6801 Q266.1094,238.8364 265.4063,238.8364 Q262.9063,238.8364 261.5781,237.1957 Q260.2656,235.5395 260.2656,232.4145 Q260.2656,229.2895 261.5781,227.6332 Q262.9063,225.977 265.4063,225.977 Q266.1094,225.977 266.75,226.1332 Q267.4063,226.2895 267.9688,226.5864 L267.9688,229.3051 Q267.3438,228.727 266.75,228.4614 Q266.1563,228.1801 265.5313,228.1801 Q264.1875,228.1801 263.5,229.2582 Q262.8125,230.3207 262.8125,232.4145 Q262.8125,234.5082 263.5,235.5864 Q264.1875,236.6489 265.5313,236.6489 Q266.1563,236.6489 266.75,236.3832 Q267.3438,236.102 267.9688,235.5239 L267.9688,238.2426 Z " fill="#000000"/><text fill="#000000" font-family="sans-serif" font-size="14" lengthAdjust="spacing" textLength="90" x="279" y="238.034">config.Config</text><line style="stroke:#181818;stroke-width:0.5;" x1="251" x2="371" y1="248.602" y2="248.602"/><ellipse cx="261" cy="263.6359" fill="none" rx="3" ry="3" style="stroke:#038048;stroke-width:1.0;"/><text fill="#000000" font-family="sans-serif" font-size="14" lengthAdjust="spacing" textLength="62" x="270" y="267.5679">database</text><line style="stroke:#181818;stroke-width:0.5;" x1="251" x2="371" y1="275.6699" y2="275.6699"/></g><!--class database_config_database--><g id="elem_database_config_database"><rect codeLine="27" fill="#F1F1F1" height="67.0679" id="database_config_database" rx="2.5" ry="2.5" style="stroke:#181818;stroke-width:0.5;" width="185" x="407.5" y="216.602"/><ellipse cx="422.5" cy="232.602" fill="#ADD1B2" rx="11" ry="11" style="stroke:#181818;stroke-width:1.0;"/><path d="M425.4688,238.2426 Q424.8906,238.5395 424.25,238.6801 Q423.6094,238.8364 422.9063,238.8364 Q420.4063,238.8364 419.0781,237.1957 Q417.7656,235.5395 417.7656,232.4145 Q417.7656,229.2895 419.0781,227.6332 Q420.4063,225.977 422.9063,225.977 Q423.6094,225.977 424.25,226.1332 Q424.9063,226.2895 425.4688,226.5864 L425.4688,229.3051 Q424.8438,228.727 424.25,228.4614 Q423.6563,228.1801 423.0313,228.1801 Q421.6875,228.1801 421,229.2582 Q420.3125,230.3207 420.3125,232.4145 Q420.3125,234.5082 421,235.5864 Q421.6875,236.6489 423.0313,236.6489 Q423.6563,236.6489 424.25,236.3832 Q424.8438,236.102 425.4688,235.5239 L425.4688,238.2426 Z " fill="#000000"/><text fill="#000000" font-family="sans-serif" font-size="14" lengthAdjust="spacing" textLength="153" x="436.5" y="238.034">config.DatabaseConfig</text><line style="stroke:#181818;stroke-width:0.5;" x1="408.5" x2="591.5" y1="248.602" y2="248.602"/><ellipse cx="418.5" cy="263.6359" fill="none" rx="3" ry="3" style="stroke:#038048;stroke-width:1.0;"/><text fill="#000000" font-family="sans-serif" font-size="14" lengthAdjust="spacing" textLength="89" x="427.5" y="267.5679">connect_args</text><line style="stroke:#181818;stroke-width:0.5;" x1="408.5" x2="591.5" y1="275.6699" y2="275.6699"/></g><!--class database_config_database_connect_args--><g id="elem_database_config_database_connect_args"><rect codeLine="31" fill="#F1F1F1" height="48" id="database_config_database_connect_args" rx="2.5" ry="2.5" style="stroke:#181818;stroke-width:0.5;" width="271" x="278.5" y="343.602"/><ellipse cx="293.5" cy="359.602" fill="#ADD1B2" rx="11" ry="11" style="stroke:#181818;stroke-width:1.0;"/><path d="M296.4688,365.2426 Q295.8906,365.5395 295.25,365.6801 Q294.6094,365.8364 293.9063,365.8364 Q291.4063,365.8364 290.0781,364.1957 Q288.7656,362.5395 288.7656,359.4145 Q288.7656,356.2895 290.0781,354.6332 Q291.4063,352.977 293.9063,352.977 Q294.6094,352.977 295.25,353.1332 Q295.9063,353.2895 296.4688,353.5864 L296.4688,356.3051 Q295.8438,355.727 295.25,355.4614 Q294.6563,355.1801 294.0313,355.1801 Q292.6875,355.1801 292,356.2582 Q291.3125,357.3207 291.3125,359.4145 Q291.3125,361.5082 292,362.5864 Q292.6875,363.6489 294.0313,363.6489 Q294.6563,363.6489 295.25,363.3832 Q295.8438,363.102 296.4688,362.5239 L296.4688,365.2426 Z " fill="#000000"/><text fill="#000000" font-family="sans-serif" font-size="14" lengthAdjust="spacing" textLength="239" x="307.5" y="365.034">config.DatabaseConnectArgsConfig</text><line style="stroke:#181818;stroke-width:0.5;" x1="279.5" x2="548.5" y1="375.602" y2="375.602"/><line style="stroke:#181818;stroke-width:0.5;" x1="279.5" x2="548.5" y1="383.602" y2="383.602"/></g><!--class database_config_postgresql_database_connect_args--><g id="elem_database_config_postgresql_database_connect_args"><rect codeLine="32" fill="#F1F1F1" height="48" id="database_config_postgresql_database_connect_args" rx="2.5" ry="2.5" style="stroke:#181818;stroke-width:0.5;" width="348" x="46" y="451.602"/><ellipse cx="61" cy="467.602" fill="#ADD1B2" rx="11" ry="11" style="stroke:#181818;stroke-width:1.0;"/><path d="M63.9688,473.2426 Q63.3906,473.5395 62.75,473.6801 Q62.1094,473.8364 61.4063,473.8364 Q58.9063,473.8364 57.5781,472.1957 Q56.2656,470.5395 56.2656,467.4145 Q56.2656,464.2895 57.5781,462.6332 Q58.9063,460.977 61.4063,460.977 Q62.1094,460.977 62.75,461.1332 Q63.4063,461.2895 63.9688,461.5864 L63.9688,464.3051 Q63.3438,463.727 62.75,463.4614 Q62.1563,463.1801 61.5313,463.1801 Q60.1875,463.1801 59.5,464.2582 Q58.8125,465.3207 58.8125,467.4145 Q58.8125,469.5082 59.5,470.5864 Q60.1875,471.6489 61.5313,471.6489 Q62.1563,471.6489 62.75,471.3832 Q63.3438,471.102 63.9688,470.5239 L63.9688,473.2426 Z " fill="#000000"/><text fill="#000000" font-family="sans-serif" font-size="14" lengthAdjust="spacing" textLength="316" x="75" y="473.034">config.PostgreSQLDatabaseConnectArgsConfig</text><line style="stroke:#181818;stroke-width:0.5;" x1="47" x2="393" y1="483.602" y2="483.602"/><line style="stroke:#181818;stroke-width:0.5;" x1="47" x2="393" y1="491.602" y2="491.602"/></g><!--class database_config_sqlite_database_connect_args--><g id="elem_database_config_sqlite_database_connect_args"><rect codeLine="33" fill="#F1F1F1" height="48" id="database_config_sqlite_database_connect_args" rx="2.5" ry="2.5" style="stroke:#181818;stroke-width:0.5;" width="314" x="429" y="451.602"/><ellipse cx="444" cy="467.602" fill="#ADD1B2" rx="11" ry="11" style="stroke:#181818;stroke-width:1.0;"/><path d="M446.9688,473.2426 Q446.3906,473.5395 445.75,473.6801 Q445.1094,473.8364 444.4063,473.8364 Q441.9063,473.8364 440.5781,472.1957 Q439.2656,470.5395 439.2656,467.4145 Q439.2656,464.2895 440.5781,462.6332 Q441.9063,460.977 444.4063,460.977 Q445.1094,460.977 445.75,461.1332 Q446.4063,461.2895 446.9688,461.5864 L446.9688,464.3051 Q446.3438,463.727 445.75,463.4614 Q445.1563,463.1801 444.5313,463.1801 Q443.1875,463.1801 442.5,464.2582 Q441.8125,465.3207 441.8125,467.4145 Q441.8125,469.5082 442.5,470.5864 Q443.1875,471.6489 444.5313,471.6489 Q445.1563,471.6489 445.75,471.3832 Q446.3438,471.102 446.9688,470.5239 L446.9688,473.2426 Z " fill="#000000"/><text fill="#000000" font-family="sans-serif" font-size="14" lengthAdjust="spacing" textLength="282" x="458" y="473.034">config.SQLiteDatabaseConnectArgsConfig</text><line style="stroke:#181818;stroke-width:0.5;" x1="430" x2="742" y1="483.602" y2="483.602"/><line style="stroke:#181818;stroke-width:0.5;" x1="430" x2="742" y1="491.602" y2="491.602"/></g><!--reverse link pydantic_base_model to identity_config--><g id="link_pydantic_base_model_identity_config"><path codeLine="36" d="M657.71,82.592 C690.64,90.892 728.85,104.082 759,124.602 C794.2,148.562 823.4,188.352 841.2,216.492 " fill="none" id="pydantic_base_model-backto-identity_config" style="stroke:#181818;stroke-width:1.0;"/><polygon fill="none" points="655.91,89.362,638,78.032,659.06,75.722,655.91,89.362" style="stroke:#181818;stroke-width:1.0;"/></g><!--reverse link pydantic_base_model to database_config--><g id="link_pydantic_base_model_database_config"><path codeLine="37" d="M511.67,77.452 C472.5,84.632 425.23,98.362 390,124.602 C358.49,148.072 336.36,188.162 323.7,216.492 " fill="none" id="pydantic_base_model-backto-database_config" style="stroke:#181818;stroke-width:1.0;"/><polygon fill="none" points="510.74,70.512,531.6,74.222,512.98,84.332,510.74,70.512" style="stroke:#181818;stroke-width:1.0;"/></g><!--reverse link identity_config to identity_config_sso--><g id="link_identity_config_identity_config_sso"><path codeLine="39" d="M934.32,250.102 C941.65,250.102 948.98,250.102 956.32,250.102 " fill="none" id="identity_config-backto-identity_config_sso" style="stroke:#181818;stroke-width:1.0;"/><polygon fill="#181818" points="921.12,250.102,927.12,254.102,933.12,250.102,927.12,246.102,921.12,250.102" style="stroke:#181818;stroke-width:1.0;"/></g><!--reverse link identity_config_sso to identity_config_sso_settings--><g id="link_identity_config_sso_identity_config_sso_settings"><path codeLine="40" d="M994.61,293.992 C980.45,310.682 964.78,329.142 952.79,343.272 " fill="none" id="identity_config_sso-backto-identity_config_sso_settings" style="stroke:#181818;stroke-width:1.0;"/><polygon fill="#181818" points="1003.18,283.892,996.2478,285.8782,995.4151,293.0411,1002.3473,291.0548,1003.18,283.892" style="stroke:#181818;stroke-width:1.0;"/></g><!--reverse link identity_config_sso to identity_config_saml2--><g id="link_identity_config_sso_identity_config_saml2"><path codeLine="41" d="M1049.57,295.972 C1058.48,324.202 1064.91,360.972 1053,391.602 C1043.8,415.272 1024.34,436.312 1007.42,451.282 " fill="none" id="identity_config_sso-backto-identity_config_saml2" style="stroke:#181818;stroke-width:1.0;stroke-dasharray:7.0,7.0;"/><polygon fill="#181818" points="1045.36,283.652,1043.5135,290.6227,1049.2377,295.0082,1051.0843,288.0375,1045.36,283.652" style="stroke:#181818;stroke-width:1.0;"/></g><!--reverse link identity_config_sso_settings to identity_config_saml2--><g id="link_identity_config_sso_settings_identity_config_saml2"><path codeLine="42" d="M950.26,410.172 C956.06,424.142 962.31,439.222 967.32,451.282 " fill="none" id="identity_config_sso_settings-backto-identity_config_saml2" style="stroke:#181818;stroke-width:1.0;"/><polygon fill="none" points="943.75,412.762,942.55,391.602,956.68,407.392,943.75,412.762" style="stroke:#181818;stroke-width:1.0;"/></g><!--reverse link database_config to database_config_database--><g id="link_database_config_database_config_database"><path codeLine="44" d="M385.37,250.102 C392.65,250.102 399.93,250.102 407.2,250.102 " fill="none" id="database_config-backto-database_config_database" style="stroke:#181818;stroke-width:1.0;"/><polygon fill="#181818" points="372.28,250.102,378.28,254.102,384.28,250.102,378.28,246.102,372.28,250.102" style="stroke:#181818;stroke-width:1.0;"/></g><!--reverse link database_config_database to database_config_database_connect_args--><g id="link_database_config_database_database_config_database_connect_args"><path codeLine="45" d="M467.71,294.472 C455.38,311.032 441.79,329.272 431.37,343.272 " fill="none" id="database_config_database-backto-database_config_database_connect_args" style="stroke:#181818;stroke-width:1.0;"/><polygon fill="#181818" points="475.59,283.892,468.7995,286.3189,468.428,293.5204,475.2185,291.0935,475.59,283.892" style="stroke:#181818;stroke-width:1.0;"/></g><!--reverse link database_config_database to database_config_postgresql_database_connect_args--><g id="link_database_config_database_database_config_postgresql_database_connect_args"><path codeLine="46" d="M394.86,287.032 C335.49,308.162 271.13,332.782 261,343.602 C232.99,373.522 224.11,422.372 221.3,451.212 " fill="none" id="database_config_database-backto-database_config_postgresql_database_connect_args" style="stroke:#181818;stroke-width:1.0;stroke-dasharray:7.0,7.0;"/><polygon fill="#181818" points="407.44,282.592,400.4486,280.8255,396.129,286.5996,403.1204,288.3661,407.44,282.592" style="stroke:#181818;stroke-width:1.0;"/></g><!--reverse link database_config_database to database_config_sqlite_database_connect_args--><g id="link_database_config_database_database_config_sqlite_database_connect_args"><path codeLine="47" d="M537.78,294.152 C548.88,308.922 559.92,326.152 567,343.602 C581.52,379.382 585.16,424.612 585.95,451.492 " fill="none" id="database_config_database-backto-database_config_sqlite_database_connect_args" style="stroke:#181818;stroke-width:1.0;stroke-dasharray:7.0,7.0;"/><polygon fill="#181818" points="529.75,283.862,530.2908,291.0528,537.1364,293.3193,536.5957,286.1285,529.75,283.862" style="stroke:#181818;stroke-width:1.0;"/></g><!--reverse link database_config_database_connect_args to database_config_postgresql_database_connect_args--><g id="link_database_config_database_connect_args_database_config_postgresql_database_connect_args"><path codeLine="48" d="M354.23,401.262 C324.49,417.512 289.25,436.762 262.35,451.462 " fill="none" id="database_config_database_connect_args-backto-database_config_postgresql_database_connect_args" style="stroke:#181818;stroke-width:1.0;"/><polygon fill="none" points="351,395.052,371.9,391.602,357.71,407.332,351,395.052" style="stroke:#181818;stroke-width:1.0;"/></g><!--reverse link database_config_database_connect_args to database_config_sqlite_database_connect_args--><g id="link_database_config_database_connect_args_database_config_sqlite_database_connect_args"><path codeLine="49" d="M468.49,402.182 C494.53,418.232 525.05,437.042 548.45,451.462 " fill="none" id="database_config_database_connect_args-backto-database_config_sqlite_database_connect_args" style="stroke:#181818;stroke-width:1.0;"/><polygon fill="none" points="464.68,408.052,451.32,391.602,472.02,396.132,464.68,408.052" style="stroke:#181818;stroke-width:1.0;"/></g><!--SRC=[hPF1ReCm38RlVWh4aIaSUjwbtOvKwyG3H1baD1fD68aqeQtllW1D1LcImjHSmCR-79lV3Ia-I4MZkEbAmXKhOlY6I9-Y9b96nelVYAJu94fQHqH6yKwR-zwAuGpG6CWkmuTE7GLFMKbrdkhcEEF5XU3lh1fGuslwD3pY8NXCwSz39AKOhBCVWtNC59NdBruQLOhnIYv1OXDiiVEBUrh30o6dUZFBtkwpZSbp3wuaYlJ3dW_EU5SCpgJyQTLYOMDFeSyNdm-kmpWj52QjOvQ-0dYQvQdMVz-shk7Qr4P8LRLKVjQt2np6sFmr-rSfNOCfUhkCvkkuG8d-bpiswl478Liy_a3hTW3sLYMePTLH8PUemRKx2KB11N0dfQbRy13S9Tr2ARuuykI2hVHhCpvLWLVF2KBBj1X0w2RN2cyTBQGjMBP9rv7UxQOB-Q6x_m80]--></g></svg>