<?xml version="1.0" encoding="us-ascii" standalone="no"?><svg xmlns="http://www.w3.org/2000/svg" xmlns:xlink="http://www.w3.org/1999/xlink" contentStyleType="text/css" height="368px" preserveAspectRatio="none" style="width:571px;height:368px;background:#FFFFFF;" version="1.1" viewBox="0 0 571 368" width="571px" zoomAndPan="magnify"><defs/><g><!--cluster pydantic--><g id="cluster_pydantic"><path d="M218.5,6.602 L279.5,6.602 A3.75,3.75 0 0 1 282,9.102 L289,31.6699 L351.5,31.6699 A2.5,2.5 0 0 1 354,34.1699 L354,106.102 A2.5,2.5 0 0 1 351.5,108.602 L218.5,108.602 A2.5,2.5 0 0 1 216,106.102 L216,9.102 A2.5,2.5 0 0 1 218.5,6.602 " fill="none" style="stroke:#000000;stroke-width:1.5;"/><line style="stroke:#000000;stroke-width:1.5;" x1="216" x2="289" y1="31.6699" y2="31.6699"/><text fill="#000000" font-family="sans-serif" font-size="14" font-weight="bold" lengthAdjust="spacing" textLength="60" x="220" y="23.5679">pydantic</text></g><!--cluster BL_Python--><g id="cluster_BL_Python"><path d="M8.5,132.602 L82.5,132.602 A3.75,3.75 0 0 1 85,135.102 L92,157.6699 L561.5,157.6699 A2.5,2.5 0 0 1 564,160.1699 L564,359.102 A2.5,2.5 0 0 1 561.5,361.602 L8.5,361.602 A2.5,2.5 0 0 1 6,359.102 L6,135.102 A2.5,2.5 0 0 1 8.5,132.602 " fill="none" style="stroke:#000000;stroke-width:1.5;"/><line style="stroke:#000000;stroke-width:1.5;" x1="6" x2="92" y1="157.6699" y2="157.6699"/><text fill="#000000" font-family="sans-serif" font-size="14" font-weight="bold" lengthAdjust="spacing" textLength="73" x="10" y="149.5679">BL_Python</text></g><!--cluster web--><g id="cluster_web"><path d="M388.5,178.602 L418.5,178.602 A3.75,3.75 0 0 1 421,181.102 L428,203.6699 L537.5,203.6699 A2.5,2.5 0 0 1 540,206.1699 L540,335.102 A2.5,2.5 0 0 1 537.5,337.602 L388.5,337.602 A2.5,2.5 0 0 1 386,335.102 L386,181.102 A2.5,2.5 0 0 1 388.5,178.602 " fill="none" style="stroke:#000000;stroke-width:1.5;"/><line style="stroke:#000000;stroke-width:1.5;" x1="386" x2="428" y1="203.6699" y2="203.6699"/><text fill="#000000" font-family="sans-serif" font-size="14" font-weight="bold" lengthAdjust="spacing" textLength="29" x="390" y="195.5679">web</text></g><!--cluster identity--><g id="cluster_identity"><path d="M210.5,197.602 L265.5,197.602 A3.75,3.75 0 0 1 268,200.102 L275,222.6699 L359.5,222.6699 A2.5,2.5 0 0 1 362,225.1699 L362,316.102 A2.5,2.5 0 0 1 359.5,318.602 L210.5,318.602 A2.5,2.5 0 0 1 208,316.102 L208,200.102 A2.5,2.5 0 0 1 210.5,197.602 " fill="none" style="stroke:#000000;stroke-width:1.5;"/><line style="stroke:#000000;stroke-width:1.5;" x1="208" x2="275" y1="222.6699" y2="222.6699"/><text fill="#000000" font-family="sans-serif" font-size="14" font-weight="bold" lengthAdjust="spacing" textLength="54" x="212" y="214.5679">identity</text></g><!--cluster database--><g id="cluster_database"><path d="M32.5,197.602 L96.5,197.602 A3.75,3.75 0 0 1 99,200.102 L106,222.6699 L181.5,222.6699 A2.5,2.5 0 0 1 184,225.1699 L184,316.102 A2.5,2.5 0 0 1 181.5,318.602 L32.5,318.602 A2.5,2.5 0 0 1 30,316.102 L30,200.102 A2.5,2.5 0 0 1 32.5,197.602 " fill="none" style="stroke:#000000;stroke-width:1.5;"/><line style="stroke:#000000;stroke-width:1.5;" x1="30" x2="106" y1="222.6699" y2="222.6699"/><text fill="#000000" font-family="sans-serif" font-size="14" font-weight="bold" lengthAdjust="spacing" textLength="63" x="34" y="214.5679">database</text></g><!--class pydantic_base_model--><g id="elem_pydantic_base_model"><rect codeLine="4" fill="#F1F1F1" height="48" id="pydantic_base_model" rx="2.5" ry="2.5" style="stroke:#181818;stroke-width:0.5;" width="106" x="232" y="44.602"/><ellipse cx="247" cy="60.602" fill="#ADD1B2" rx="11" ry="11" style="stroke:#181818;stroke-width:1.0;"/><path d="M249.9688,66.2426 Q249.3906,66.5395 248.75,66.6801 Q248.1094,66.8364 247.4063,66.8364 Q244.9063,66.8364 243.5781,65.1957 Q242.2656,63.5395 242.2656,60.4145 Q242.2656,57.2895 243.5781,55.6332 Q244.9063,53.977 247.4063,53.977 Q248.1094,53.977 248.75,54.1332 Q249.4063,54.2895 249.9688,54.5864 L249.9688,57.3051 Q249.3438,56.727 248.75,56.4614 Q248.1563,56.1801 247.5313,56.1801 Q246.1875,56.1801 245.5,57.2582 Q244.8125,58.3207 244.8125,60.4145 Q244.8125,62.5082 245.5,63.5864 Q246.1875,64.6489 247.5313,64.6489 Q248.1563,64.6489 248.75,64.3832 Q249.3438,64.102 249.9688,63.5239 L249.9688,66.2426 Z " fill="#000000"/><text fill="#000000" font-family="sans-serif" font-size="14" lengthAdjust="spacing" textLength="74" x="261" y="66.034">BaseModel</text><line style="stroke:#181818;stroke-width:0.5;" x1="233" x2="337" y1="76.602" y2="76.602"/><line style="stroke:#181818;stroke-width:0.5;" x1="233" x2="337" y1="84.602" y2="84.602"/></g><!--class web_config--><g id="elem_web_config"><rect codeLine="9" fill="#F1F1F1" height="105.2038" id="web_config" rx="2.5" ry="2.5" style="stroke:#181818;stroke-width:0.5;" width="122" x="402" y="216.602"/><ellipse cx="417" cy="232.602" fill="#ADD1B2" rx="11" ry="11" style="stroke:#181818;stroke-width:1.0;"/><path d="M419.9688,238.2426 Q419.3906,238.5395 418.75,238.6801 Q418.1094,238.8364 417.4063,238.8364 Q414.9063,238.8364 413.5781,237.1957 Q412.2656,235.5395 412.2656,232.4145 Q412.2656,229.2895 413.5781,227.6332 Q414.9063,225.977 417.4063,225.977 Q418.1094,225.977 418.75,226.1332 Q419.4063,226.2895 419.9688,226.5864 L419.9688,229.3051 Q419.3438,228.727 418.75,228.4614 Q418.1563,228.1801 417.5313,228.1801 Q416.1875,228.1801 415.5,229.2582 Q414.8125,230.3207 414.8125,232.4145 Q414.8125,234.5082 415.5,235.5864 Q416.1875,236.6489 417.5313,236.6489 Q418.1563,236.6489 418.75,236.3832 Q419.3438,236.102 419.9688,235.5239 L419.9688,238.2426 Z " fill="#000000"/><text fill="#000000" font-family="sans-serif" font-size="14" lengthAdjust="spacing" textLength="90" x="431" y="238.034">config.Config</text><line style="stroke:#181818;stroke-width:0.5;" x1="403" x2="523" y1="248.602" y2="248.602"/><ellipse cx="413" cy="263.6359" fill="none" rx="3" ry="3" style="stroke:#038048;stroke-width:1.0;"/><text fill="#000000" font-family="sans-serif" font-size="14" lengthAdjust="spacing" textLength="52" x="422" y="267.5679">logging</text><ellipse cx="413" cy="282.7039" fill="none" rx="3" ry="3" style="stroke:#038048;stroke-width:1.0;"/><text fill="#000000" font-family="sans-serif" font-size="14" lengthAdjust="spacing" textLength="28" x="422" y="286.6358">web</text><ellipse cx="413" cy="301.7718" fill="none" rx="3" ry="3" style="stroke:#038048;stroke-width:1.0;"/><text fill="#000000" font-family="sans-serif" font-size="14" lengthAdjust="spacing" textLength="31" x="422" y="305.7038">flask</text><line style="stroke:#181818;stroke-width:0.5;" x1="403" x2="523" y1="313.8057" y2="313.8057"/></g><!--class identity_config--><g id="elem_identity_config"><rect codeLine="19" fill="#F1F1F1" height="67.0679" id="identity_config" rx="2.5" ry="2.5" style="stroke:#181818;stroke-width:0.5;" width="122" x="224" y="235.602"/><ellipse cx="239" cy="251.602" fill="#ADD1B2" rx="11" ry="11" style="stroke:#181818;stroke-width:1.0;"/><path d="M241.9688,257.2426 Q241.3906,257.5395 240.75,257.6801 Q240.1094,257.8364 239.4063,257.8364 Q236.9063,257.8364 235.5781,256.1957 Q234.2656,254.5395 234.2656,251.4145 Q234.2656,248.2895 235.5781,246.6332 Q236.9063,244.977 239.4063,244.977 Q240.1094,244.977 240.75,245.1332 Q241.4063,245.2895 241.9688,245.5864 L241.9688,248.3051 Q241.3438,247.727 240.75,247.4614 Q240.1563,247.1801 239.5313,247.1801 Q238.1875,247.1801 237.5,248.2582 Q236.8125,249.3207 236.8125,251.4145 Q236.8125,253.5082 237.5,254.5864 Q238.1875,255.6489 239.5313,255.6489 Q240.1563,255.6489 240.75,255.3832 Q241.3438,255.102 241.9688,254.5239 L241.9688,257.2426 Z " fill="#000000"/><text fill="#000000" font-family="sans-serif" font-size="14" lengthAdjust="spacing" textLength="90" x="253" y="257.034">config.Config</text><line style="stroke:#181818;stroke-width:0.5;" x1="225" x2="345" y1="267.602" y2="267.602"/><ellipse cx="235" cy="282.6359" fill="none" rx="3" ry="3" style="stroke:#038048;stroke-width:1.0;"/><text fill="#000000" font-family="sans-serif" font-size="14" lengthAdjust="spacing" textLength="22" x="244" y="286.5679">sso</text><line style="stroke:#181818;stroke-width:0.5;" x1="225" x2="345" y1="294.6699" y2="294.6699"/></g><!--class database_config--><g id="elem_database_config"><rect codeLine="27" fill="#F1F1F1" height="67.0679" id="database_config" rx="2.5" ry="2.5" style="stroke:#181818;stroke-width:0.5;" width="122" x="46" y="235.602"/><ellipse cx="61" cy="251.602" fill="#ADD1B2" rx="11" ry="11" style="stroke:#181818;stroke-width:1.0;"/><path d="M63.9688,257.2426 Q63.3906,257.5395 62.75,257.6801 Q62.1094,257.8364 61.4063,257.8364 Q58.9063,257.8364 57.5781,256.1957 Q56.2656,254.5395 56.2656,251.4145 Q56.2656,248.2895 57.5781,246.6332 Q58.9063,244.977 61.4063,244.977 Q62.1094,244.977 62.75,245.1332 Q63.4063,245.2895 63.9688,245.5864 L63.9688,248.3051 Q63.3438,247.727 62.75,247.4614 Q62.1563,247.1801 61.5313,247.1801 Q60.1875,247.1801 59.5,248.2582 Q58.8125,249.3207 58.8125,251.4145 Q58.8125,253.5082 59.5,254.5864 Q60.1875,255.6489 61.5313,255.6489 Q62.1563,255.6489 62.75,255.3832 Q63.3438,255.102 63.9688,254.5239 L63.9688,257.2426 Z " fill="#000000"/><text fill="#000000" font-family="sans-serif" font-size="14" lengthAdjust="spacing" textLength="90" x="75" y="257.034">config.Config</text><line style="stroke:#181818;stroke-width:0.5;" x1="47" x2="167" y1="267.602" y2="267.602"/><ellipse cx="57" cy="282.6359" fill="none" rx="3" ry="3" style="stroke:#038048;stroke-width:1.0;"/><text fill="#000000" font-family="sans-serif" font-size="14" lengthAdjust="spacing" textLength="62" x="66" y="286.5679">database</text><line style="stroke:#181818;stroke-width:0.5;" x1="47" x2="167" y1="294.6699" y2="294.6699"/></g><!--reverse link pydantic_base_model to web_config--><g id="link_pydantic_base_model_web_config"><path codeLine="33" d="M339.09,104.662 C347.14,110.882 355.06,117.612 362,124.602 C389.26,152.052 414.33,187.582 432.68,216.422 " fill="none" id="pydantic_base_model-backto-web_config" style="stroke:#181818;stroke-width:1.0;"/><polygon fill="none" points="334.72,110.142,322.64,92.722,342.94,98.812,334.72,110.142" style="stroke:#181818;stroke-width:1.0;"/></g><!--reverse link pydantic_base_model to identity_config--><g id="link_pydantic_base_model_identity_config"><path codeLine="34" d="M285,112.972 C285,149.902 285,202.142 285,235.572 " fill="none" id="pydantic_base_model-backto-identity_config" style="stroke:#181818;stroke-width:1.0;"/><polygon fill="none" points="278,112.762,285,92.762,292,112.762,278,112.762" style="stroke:#181818;stroke-width:1.0;"/></g><!--reverse link pydantic_base_model to database_config--><g id="link_pydantic_base_model_database_config"><path codeLine="35" d="M230.91,104.662 C222.86,110.882 214.94,117.612 208,124.602 C174.3,158.542 143.94,204.822 125.51,235.542 " fill="none" id="pydantic_base_model-backto-database_config" style="stroke:#181818;stroke-width:1.0;"/><polygon fill="none" points="227.06,98.812,247.36,92.722,235.28,110.142,227.06,98.812" style="stroke:#181818;stroke-width:1.0;"/></g><!--SRC=[bL113eCW4Bpp2iArqHVqPAzjqX-G5P0IBPX0qf3MlnUnDgkj1xd0J6PdXkr1jA0LxQC46umWJqBJ4Hru_oLv3LxnkvEge-0fgnAyZ8YHWP3-Oy6gCx_6S7EsVAYQBPmImOMpZT7PO7gMftonh9lKupdGpcbjh4PCcaUeIPvjnWCkW1iOgLBp49SrPdP75-_TRn8AaX1WNCyoQ6Pt1CqZAEtF-e-lea3RtDQilhejN5Lz0m00]--></g></svg>