<?xml version="1.0" encoding="UTF-8" standalone="no"?><svg xmlns="http://www.w3.org/2000/svg" xmlns:xlink="http://www.w3.org/1999/xlink" contentStyleType="text/css" height="805px" preserveAspectRatio="none" style="width:1341px;height:805px;background:#FFFFFF;" version="1.1" viewBox="0 0 1341 805" width="1341px" zoomAndPan="magnify"><defs/><g><!--MD5=[be6700cbb4ecacf17ba1942ef256a4d0]
cluster pydantic--><g id="cluster_pydantic"><path d="M8.5,452 L76.5,452 A3.75,3.75 0 0 1 79,454.5 L86,474.2969 L144.5,474.2969 A2.5,2.5 0 0 1 147,476.7969 L147,548.5 A2.5,2.5 0 0 1 144.5,551 L8.5,551 A2.5,2.5 0 0 1 6,548.5 L6,454.5 A2.5,2.5 0 0 1 8.5,452 " style="stroke:#000000;stroke-width:1.5;fill:none;"/><line style="stroke:#000000;stroke-width:1.5;fill:none;" x1="6" x2="86" y1="474.2969" y2="474.2969"/><text fill="#000000" font-family="sans-serif" font-size="14" font-weight="bold" lengthAdjust="spacing" textLength="67" x="10" y="466.9951">pydantic</text></g><!--MD5=[df4dac99b5828717dc5b608ae18c0ed7]
cluster BL_Python.web--><g id="cluster_BL_Python.web"><path d="M177.5,6 L298.5,6 A3.75,3.75 0 0 1 301,8.5 L308,28.2969 L1282,28.2969 A2.5,2.5 0 0 1 1284.5,30.7969 L1284.5,383.5 A2.5,2.5 0 0 1 1282,386 L177.5,386 A2.5,2.5 0 0 1 175,383.5 L175,8.5 A2.5,2.5 0 0 1 177.5,6 " style="stroke:#000000;stroke-width:1.5;fill:none;"/><line style="stroke:#000000;stroke-width:1.5;fill:none;" x1="175" x2="308" y1="28.2969" y2="28.2969"/><text fill="#000000" font-family="sans-serif" font-size="14" font-weight="bold" lengthAdjust="spacing" textLength="120" x="179" y="20.9951">BL_Python.web</text></g><!--MD5=[55363bd121a3e61ac9502285048d1a8e]
cluster BL_Python.identity--><g id="cluster_BL_Python.identity"><path d="M177.5,410 L323.5,410 A3.75,3.75 0 0 1 326,412.5 L333,432.2969 L877.5,432.2969 A2.5,2.5 0 0 1 880,434.7969 L880,589.5 A2.5,2.5 0 0 1 877.5,592 L177.5,592 A2.5,2.5 0 0 1 175,589.5 L175,412.5 A2.5,2.5 0 0 1 177.5,410 " style="stroke:#000000;stroke-width:1.5;fill:none;"/><line style="stroke:#000000;stroke-width:1.5;fill:none;" x1="175" x2="333" y1="432.2969" y2="432.2969"/><text fill="#000000" font-family="sans-serif" font-size="14" font-weight="bold" lengthAdjust="spacing" textLength="145" x="179" y="424.9951">BL_Python.identity</text></g><!--MD5=[661a9c00c111b7fc1c6eb68232edef65]
cluster BL_Python.database--><g id="cluster_BL_Python.database"><path d="M177.5,616 L336.5,616 A3.75,3.75 0 0 1 339,618.5 L346,638.2969 L1331.5,638.2969 A2.5,2.5 0 0 1 1334,640.7969 L1334,795.5 A2.5,2.5 0 0 1 1331.5,798 L177.5,798 A2.5,2.5 0 0 1 175,795.5 L175,618.5 A2.5,2.5 0 0 1 177.5,616 " style="stroke:#000000;stroke-width:1.5;fill:none;"/><line style="stroke:#000000;stroke-width:1.5;fill:none;" x1="175" x2="346" y1="638.2969" y2="638.2969"/><text fill="#000000" font-family="sans-serif" font-size="14" font-weight="bold" lengthAdjust="spacing" textLength="158" x="179" y="630.9951">BL_Python.database</text></g><!--MD5=[5f1ef0b6cf24cec8f63b8f3e76d4085e]
class pydantic_base_model--><g id="elem_pydantic_base_model"><rect codeLine="5" fill="#F1F1F1" height="48" id="pydantic_base_model" rx="2.5" ry="2.5" style="stroke:#181818;stroke-width:0.5;" width="109" x="22" y="487"/><ellipse cx="37" cy="503" fill="#ADD1B2" rx="11" ry="11" style="stroke:#181818;stroke-width:1.0;"/><path d="M39.9688,508.6406 Q39.3906,508.9375 38.75,509.0781 Q38.1094,509.2344 37.4063,509.2344 Q34.9063,509.2344 33.5781,507.5938 Q32.2656,505.9375 32.2656,502.8125 Q32.2656,499.6875 33.5781,498.0313 Q34.9063,496.375 37.4063,496.375 Q38.1094,496.375 38.75,496.5313 Q39.4063,496.6875 39.9688,496.9844 L39.9688,499.7031 Q39.3438,499.125 38.75,498.8594 Q38.1563,498.5781 37.5313,498.5781 Q36.1875,498.5781 35.5,499.6563 Q34.8125,500.7188 34.8125,502.8125 Q34.8125,504.9063 35.5,505.9844 Q36.1875,507.0469 37.5313,507.0469 Q38.1563,507.0469 38.75,506.7813 Q39.3438,506.5 39.9688,505.9219 L39.9688,508.6406 Z " fill="#000000"/><text fill="#000000" font-family="sans-serif" font-size="14" lengthAdjust="spacing" textLength="77" x="51" y="507.8467">BaseModel</text><line style="stroke:#181818;stroke-width:0.5;" x1="23" x2="130" y1="519" y2="519"/><line style="stroke:#181818;stroke-width:0.5;" x1="23" x2="130" y1="527" y2="527"/></g><!--MD5=[61b517ed9687cee4a88ea4c4482afe68]
class web_config--><g id="elem_web_config"><rect codeLine="10" fill="#F1F1F1" height="96.8906" id="web_config" rx="2.5" ry="2.5" style="stroke:#181818;stroke-width:0.5;" width="122" x="191" y="244.5"/><ellipse cx="206" cy="260.5" fill="#ADD1B2" rx="11" ry="11" style="stroke:#181818;stroke-width:1.0;"/><path d="M208.9688,266.1406 Q208.3906,266.4375 207.75,266.5781 Q207.1094,266.7344 206.4063,266.7344 Q203.9063,266.7344 202.5781,265.0938 Q201.2656,263.4375 201.2656,260.3125 Q201.2656,257.1875 202.5781,255.5313 Q203.9063,253.875 206.4063,253.875 Q207.1094,253.875 207.75,254.0313 Q208.4063,254.1875 208.9688,254.4844 L208.9688,257.2031 Q208.3438,256.625 207.75,256.3594 Q207.1563,256.0781 206.5313,256.0781 Q205.1875,256.0781 204.5,257.1563 Q203.8125,258.2188 203.8125,260.3125 Q203.8125,262.4063 204.5,263.4844 Q205.1875,264.5469 206.5313,264.5469 Q207.1563,264.5469 207.75,264.2813 Q208.3438,264 208.9688,263.4219 L208.9688,266.1406 Z " fill="#000000"/><text fill="#000000" font-family="sans-serif" font-size="14" lengthAdjust="spacing" textLength="90" x="220" y="265.3467">config.Config</text><line style="stroke:#181818;stroke-width:0.5;" x1="192" x2="312" y1="276.5" y2="276.5"/><ellipse cx="202" cy="287.5" fill="none" rx="3" ry="3" style="stroke:#038048;stroke-width:1.0;"/><text fill="#000000" font-family="sans-serif" font-size="14" lengthAdjust="spacing" textLength="51" x="211" y="293.4951">logging</text><ellipse cx="202" cy="303.7969" fill="none" rx="3" ry="3" style="stroke:#038048;stroke-width:1.0;"/><text fill="#000000" font-family="sans-serif" font-size="14" lengthAdjust="spacing" textLength="29" x="211" y="309.792">web</text><ellipse cx="202" cy="320.0938" fill="none" rx="3" ry="3" style="stroke:#038048;stroke-width:1.0;"/><text fill="#000000" font-family="sans-serif" font-size="14" lengthAdjust="spacing" textLength="31" x="211" y="326.0889">flask</text><line style="stroke:#181818;stroke-width:0.5;" x1="192" x2="312" y1="333.3906" y2="333.3906"/></g><!--MD5=[9940becf3fdebacf05222d57c4544bd1]
class web_config_logging--><g id="elem_web_config_logging"><rect codeLine="16" fill="#F1F1F1" height="48" id="web_config_logging" rx="2.5" ry="2.5" style="stroke:#181818;stroke-width:0.5;" width="177" x="671.5" y="322"/><ellipse cx="686.5" cy="338" fill="#ADD1B2" rx="11" ry="11" style="stroke:#181818;stroke-width:1.0;"/><path d="M689.4688,343.6406 Q688.8906,343.9375 688.25,344.0781 Q687.6094,344.2344 686.9063,344.2344 Q684.4063,344.2344 683.0781,342.5938 Q681.7656,340.9375 681.7656,337.8125 Q681.7656,334.6875 683.0781,333.0313 Q684.4063,331.375 686.9063,331.375 Q687.6094,331.375 688.25,331.5313 Q688.9063,331.6875 689.4688,331.9844 L689.4688,334.7031 Q688.8438,334.125 688.25,333.8594 Q687.6563,333.5781 687.0313,333.5781 Q685.6875,333.5781 685,334.6563 Q684.3125,335.7188 684.3125,337.8125 Q684.3125,339.9063 685,340.9844 Q685.6875,342.0469 687.0313,342.0469 Q687.6563,342.0469 688.25,341.7813 Q688.8438,341.5 689.4688,340.9219 L689.4688,343.6406 Z " fill="#000000"/><text fill="#000000" font-family="sans-serif" font-size="14" lengthAdjust="spacing" textLength="145" x="700.5" y="342.8467">config.LoggingConfig</text><line style="stroke:#181818;stroke-width:0.5;" x1="672.5" x2="847.5" y1="354" y2="354"/><line style="stroke:#181818;stroke-width:0.5;" x1="672.5" x2="847.5" y1="362" y2="362"/></g><!--MD5=[808e0991f8ee88874d82469a2be76ce1]
class web_config_flask--><g id="elem_web_config_flask"><rect codeLine="17" fill="#F1F1F1" height="80.5938" id="web_config_flask" rx="2.5" ry="2.5" style="stroke:#181818;stroke-width:0.5;" width="157" x="388.5" y="222.5"/><ellipse cx="403.5" cy="238.5" fill="#ADD1B2" rx="11" ry="11" style="stroke:#181818;stroke-width:1.0;"/><path d="M406.4688,244.1406 Q405.8906,244.4375 405.25,244.5781 Q404.6094,244.7344 403.9063,244.7344 Q401.4063,244.7344 400.0781,243.0938 Q398.7656,241.4375 398.7656,238.3125 Q398.7656,235.1875 400.0781,233.5313 Q401.4063,231.875 403.9063,231.875 Q404.6094,231.875 405.25,232.0313 Q405.9063,232.1875 406.4688,232.4844 L406.4688,235.2031 Q405.8438,234.625 405.25,234.3594 Q404.6563,234.0781 404.0313,234.0781 Q402.6875,234.0781 402,235.1563 Q401.3125,236.2188 401.3125,238.3125 Q401.3125,240.4063 402,241.4844 Q402.6875,242.5469 404.0313,242.5469 Q404.6563,242.5469 405.25,242.2813 Q405.8438,242 406.4688,241.4219 L406.4688,244.1406 Z " fill="#000000"/><text fill="#000000" font-family="sans-serif" font-size="14" lengthAdjust="spacing" textLength="125" x="417.5" y="243.3467">config.FlaskConfig</text><line style="stroke:#181818;stroke-width:0.5;" x1="389.5" x2="544.5" y1="254.5" y2="254.5"/><ellipse cx="399.5" cy="265.5" fill="none" rx="3" ry="3" style="stroke:#038048;stroke-width:1.0;"/><text fill="#000000" font-family="sans-serif" font-size="14" lengthAdjust="spacing" textLength="56" x="408.5" y="271.4951">openapi</text><ellipse cx="399.5" cy="281.7969" fill="none" rx="3" ry="3" style="stroke:#038048;stroke-width:1.0;"/><text fill="#000000" font-family="sans-serif" font-size="14" lengthAdjust="spacing" textLength="54" x="408.5" y="287.792">session</text><line style="stroke:#181818;stroke-width:0.5;" x1="389.5" x2="544.5" y1="295.0938" y2="295.0938"/></g><!--MD5=[04c63a0aa8505b73490eb7f8e42799f0]
class web_config_flask_openapi--><g id="elem_web_config_flask_openapi"><rect codeLine="22" fill="#F1F1F1" height="48" id="web_config_flask_openapi" rx="2.5" ry="2.5" style="stroke:#181818;stroke-width:0.5;" width="216" x="652" y="239"/><ellipse cx="667" cy="255" fill="#ADD1B2" rx="11" ry="11" style="stroke:#181818;stroke-width:1.0;"/><path d="M669.9688,260.6406 Q669.3906,260.9375 668.75,261.0781 Q668.1094,261.2344 667.4063,261.2344 Q664.9063,261.2344 663.5781,259.5938 Q662.2656,257.9375 662.2656,254.8125 Q662.2656,251.6875 663.5781,250.0313 Q664.9063,248.375 667.4063,248.375 Q668.1094,248.375 668.75,248.5313 Q669.4063,248.6875 669.9688,248.9844 L669.9688,251.7031 Q669.3438,251.125 668.75,250.8594 Q668.1563,250.5781 667.5313,250.5781 Q666.1875,250.5781 665.5,251.6563 Q664.8125,252.7188 664.8125,254.8125 Q664.8125,256.9063 665.5,257.9844 Q666.1875,259.0469 667.5313,259.0469 Q668.1563,259.0469 668.75,258.7813 Q669.3438,258.5 669.9688,257.9219 L669.9688,260.6406 Z " fill="#000000"/><text fill="#000000" font-family="sans-serif" font-size="14" lengthAdjust="spacing" textLength="184" x="681" y="259.8467">config.FlaskOpenApiConfig</text><line style="stroke:#181818;stroke-width:0.5;" x1="653" x2="867" y1="271" y2="271"/><line style="stroke:#181818;stroke-width:0.5;" x1="653" x2="867" y1="279" y2="279"/></g><!--MD5=[6047332c9b2875a30338eb18e480e8d8]
class web_config_flask_session--><g id="elem_web_config_flask_session"><rect codeLine="23" fill="#F1F1F1" height="64.2969" id="web_config_flask_session" rx="2.5" ry="2.5" style="stroke:#181818;stroke-width:0.5;" width="212" x="654" y="140"/><ellipse cx="669" cy="156" fill="#ADD1B2" rx="11" ry="11" style="stroke:#181818;stroke-width:1.0;"/><path d="M671.9688,161.6406 Q671.3906,161.9375 670.75,162.0781 Q670.1094,162.2344 669.4063,162.2344 Q666.9063,162.2344 665.5781,160.5938 Q664.2656,158.9375 664.2656,155.8125 Q664.2656,152.6875 665.5781,151.0313 Q666.9063,149.375 669.4063,149.375 Q670.1094,149.375 670.75,149.5313 Q671.4063,149.6875 671.9688,149.9844 L671.9688,152.7031 Q671.3438,152.125 670.75,151.8594 Q670.1563,151.5781 669.5313,151.5781 Q668.1875,151.5781 667.5,152.6563 Q666.8125,153.7188 666.8125,155.8125 Q666.8125,157.9063 667.5,158.9844 Q668.1875,160.0469 669.5313,160.0469 Q670.1563,160.0469 670.75,159.7813 Q671.3438,159.5 671.9688,158.9219 L671.9688,161.6406 Z " fill="#000000"/><text fill="#000000" font-family="sans-serif" font-size="14" lengthAdjust="spacing" textLength="180" x="683" y="160.8467">config.FlaskSessionConfig</text><line style="stroke:#181818;stroke-width:0.5;" x1="655" x2="865" y1="172" y2="172"/><ellipse cx="665" cy="183" fill="none" rx="3" ry="3" style="stroke:#038048;stroke-width:1.0;"/><text fill="#000000" font-family="sans-serif" font-size="14" lengthAdjust="spacing" textLength="46" x="674" y="188.9951">cookie</text><line style="stroke:#181818;stroke-width:0.5;" x1="655" x2="865" y1="196.2969" y2="196.2969"/></g><!--MD5=[8c0f1fe0f2099515ee1032a7e283802f]
class web_config_flask_session_cookie--><g id="elem_web_config_flask_session_cookie"><rect codeLine="28" fill="#F1F1F1" height="48" id="web_config_flask_session_cookie" rx="2.5" ry="2.5" style="stroke:#181818;stroke-width:0.5;" width="260" x="1008.5" y="148"/><ellipse cx="1023.5" cy="164" fill="#ADD1B2" rx="11" ry="11" style="stroke:#181818;stroke-width:1.0;"/><path d="M1026.4688,169.6406 Q1025.8906,169.9375 1025.25,170.0781 Q1024.6094,170.2344 1023.9063,170.2344 Q1021.4063,170.2344 1020.0781,168.5938 Q1018.7656,166.9375 1018.7656,163.8125 Q1018.7656,160.6875 1020.0781,159.0313 Q1021.4063,157.375 1023.9063,157.375 Q1024.6094,157.375 1025.25,157.5313 Q1025.9063,157.6875 1026.4688,157.9844 L1026.4688,160.7031 Q1025.8438,160.125 1025.25,159.8594 Q1024.6563,159.5781 1024.0313,159.5781 Q1022.6875,159.5781 1022,160.6563 Q1021.3125,161.7188 1021.3125,163.8125 Q1021.3125,165.9063 1022,166.9844 Q1022.6875,168.0469 1024.0313,168.0469 Q1024.6563,168.0469 1025.25,167.7813 Q1025.8438,167.5 1026.4688,166.9219 L1026.4688,169.6406 Z " fill="#000000"/><text fill="#000000" font-family="sans-serif" font-size="14" lengthAdjust="spacing" textLength="228" x="1037.5" y="168.8467">config.FlaskSessionCookieConfig</text><line style="stroke:#181818;stroke-width:0.5;" x1="1009.5" x2="1267.5" y1="180" y2="180"/><line style="stroke:#181818;stroke-width:0.5;" x1="1009.5" x2="1267.5" y1="188" y2="188"/></g><!--MD5=[86d2697ee4ea0a812e0506d3d2af79d9]
class web_config_web--><g id="elem_web_config_web"><rect codeLine="29" fill="#F1F1F1" height="64.2969" id="web_config_web" rx="2.5" ry="2.5" style="stroke:#181818;stroke-width:0.5;" width="153" x="390.5" y="82"/><ellipse cx="405.5" cy="98" fill="#ADD1B2" rx="11" ry="11" style="stroke:#181818;stroke-width:1.0;"/><path d="M408.4688,103.6406 Q407.8906,103.9375 407.25,104.0781 Q406.6094,104.2344 405.9063,104.2344 Q403.4063,104.2344 402.0781,102.5938 Q400.7656,100.9375 400.7656,97.8125 Q400.7656,94.6875 402.0781,93.0313 Q403.4063,91.375 405.9063,91.375 Q406.6094,91.375 407.25,91.5313 Q407.9063,91.6875 408.4688,91.9844 L408.4688,94.7031 Q407.8438,94.125 407.25,93.8594 Q406.6563,93.5781 406.0313,93.5781 Q404.6875,93.5781 404,94.6563 Q403.3125,95.7188 403.3125,97.8125 Q403.3125,99.9063 404,100.9844 Q404.6875,102.0469 406.0313,102.0469 Q406.6563,102.0469 407.25,101.7813 Q407.8438,101.5 408.4688,100.9219 L408.4688,103.6406 Z " fill="#000000"/><text fill="#000000" font-family="sans-serif" font-size="14" lengthAdjust="spacing" textLength="121" x="419.5" y="102.8467">config.WebConfig</text><line style="stroke:#181818;stroke-width:0.5;" x1="391.5" x2="542.5" y1="114" y2="114"/><ellipse cx="401.5" cy="125" fill="none" rx="3" ry="3" style="stroke:#038048;stroke-width:1.0;"/><text fill="#000000" font-family="sans-serif" font-size="14" lengthAdjust="spacing" textLength="54" x="410.5" y="130.9951">security</text><line style="stroke:#181818;stroke-width:0.5;" x1="391.5" x2="542.5" y1="138.2969" y2="138.2969"/></g><!--MD5=[a7ea716d001bb3ef6f260ef1347dfb64]
class web_config_web_security--><g id="elem_web_config_web_security"><rect codeLine="34" fill="#F1F1F1" height="64.2969" id="web_config_web_security" rx="2.5" ry="2.5" style="stroke:#181818;stroke-width:0.5;" width="208" x="656" y="41"/><ellipse cx="671" cy="57" fill="#ADD1B2" rx="11" ry="11" style="stroke:#181818;stroke-width:1.0;"/><path d="M673.9688,62.6406 Q673.3906,62.9375 672.75,63.0781 Q672.1094,63.2344 671.4063,63.2344 Q668.9063,63.2344 667.5781,61.5938 Q666.2656,59.9375 666.2656,56.8125 Q666.2656,53.6875 667.5781,52.0313 Q668.9063,50.375 671.4063,50.375 Q672.1094,50.375 672.75,50.5313 Q673.4063,50.6875 673.9688,50.9844 L673.9688,53.7031 Q673.3438,53.125 672.75,52.8594 Q672.1563,52.5781 671.5313,52.5781 Q670.1875,52.5781 669.5,53.6563 Q668.8125,54.7188 668.8125,56.8125 Q668.8125,58.9063 669.5,59.9844 Q670.1875,61.0469 671.5313,61.0469 Q672.1563,61.0469 672.75,60.7813 Q673.3438,60.5 673.9688,59.9219 L673.9688,62.6406 Z " fill="#000000"/><text fill="#000000" font-family="sans-serif" font-size="14" lengthAdjust="spacing" textLength="176" x="685" y="61.8467">config.WebSecurityConfig</text><line style="stroke:#181818;stroke-width:0.5;" x1="657" x2="863" y1="73" y2="73"/><ellipse cx="667" cy="84" fill="none" rx="3" ry="3" style="stroke:#038048;stroke-width:1.0;"/><text fill="#000000" font-family="sans-serif" font-size="14" lengthAdjust="spacing" textLength="30" x="676" y="89.9951">cors</text><line style="stroke:#181818;stroke-width:0.5;" x1="657" x2="863" y1="97.2969" y2="97.2969"/></g><!--MD5=[f2e615b47bdbe2e0b18f39d48c25f511]
class web_config_web_security_cors--><g id="elem_web_config_web_security_cors"><rect codeLine="38" fill="#F1F1F1" height="48" id="web_config_web_security_cors" rx="2.5" ry="2.5" style="stroke:#181818;stroke-width:0.5;" width="240" x="1018.5" y="49"/><ellipse cx="1033.5" cy="65" fill="#ADD1B2" rx="11" ry="11" style="stroke:#181818;stroke-width:1.0;"/><path d="M1036.4688,70.6406 Q1035.8906,70.9375 1035.25,71.0781 Q1034.6094,71.2344 1033.9063,71.2344 Q1031.4063,71.2344 1030.0781,69.5938 Q1028.7656,67.9375 1028.7656,64.8125 Q1028.7656,61.6875 1030.0781,60.0313 Q1031.4063,58.375 1033.9063,58.375 Q1034.6094,58.375 1035.25,58.5313 Q1035.9063,58.6875 1036.4688,58.9844 L1036.4688,61.7031 Q1035.8438,61.125 1035.25,60.8594 Q1034.6563,60.5781 1034.0313,60.5781 Q1032.6875,60.5781 1032,61.6563 Q1031.3125,62.7188 1031.3125,64.8125 Q1031.3125,66.9063 1032,67.9844 Q1032.6875,69.0469 1034.0313,69.0469 Q1034.6563,69.0469 1035.25,68.7813 Q1035.8438,68.5 1036.4688,67.9219 L1036.4688,70.6406 Z " fill="#000000"/><text fill="#000000" font-family="sans-serif" font-size="14" lengthAdjust="spacing" textLength="208" x="1047.5" y="69.8467">config.WebSecurityCorsConfig</text><line style="stroke:#181818;stroke-width:0.5;" x1="1019.5" x2="1257.5" y1="81" y2="81"/><line style="stroke:#181818;stroke-width:0.5;" x1="1019.5" x2="1257.5" y1="89" y2="89"/></g><!--MD5=[533647fea60084953997cacd050d4869]
class identity_config--><g id="elem_identity_config"><rect codeLine="43" fill="#F1F1F1" height="64.2969" id="identity_config" rx="2.5" ry="2.5" style="stroke:#181818;stroke-width:0.5;" width="122" x="191" y="479"/><ellipse cx="206" cy="495" fill="#ADD1B2" rx="11" ry="11" style="stroke:#181818;stroke-width:1.0;"/><path d="M208.9688,500.6406 Q208.3906,500.9375 207.75,501.0781 Q207.1094,501.2344 206.4063,501.2344 Q203.9063,501.2344 202.5781,499.5938 Q201.2656,497.9375 201.2656,494.8125 Q201.2656,491.6875 202.5781,490.0313 Q203.9063,488.375 206.4063,488.375 Q207.1094,488.375 207.75,488.5313 Q208.4063,488.6875 208.9688,488.9844 L208.9688,491.7031 Q208.3438,491.125 207.75,490.8594 Q207.1563,490.5781 206.5313,490.5781 Q205.1875,490.5781 204.5,491.6563 Q203.8125,492.7188 203.8125,494.8125 Q203.8125,496.9063 204.5,497.9844 Q205.1875,499.0469 206.5313,499.0469 Q207.1563,499.0469 207.75,498.7813 Q208.3438,498.5 208.9688,497.9219 L208.9688,500.6406 Z " fill="#000000"/><text fill="#000000" font-family="sans-serif" font-size="14" lengthAdjust="spacing" textLength="90" x="220" y="499.8467">config.Config</text><line style="stroke:#181818;stroke-width:0.5;" x1="192" x2="312" y1="511" y2="511"/><ellipse cx="202" cy="522" fill="none" rx="3" ry="3" style="stroke:#038048;stroke-width:1.0;"/><text fill="#000000" font-family="sans-serif" font-size="14" lengthAdjust="spacing" textLength="25" x="211" y="527.9951">sso</text><line style="stroke:#181818;stroke-width:0.5;" x1="192" x2="312" y1="535.2969" y2="535.2969"/></g><!--MD5=[5e9ff0d03d9403d56a9d419c248a2d63]
class identity_config_sso--><g id="elem_identity_config_sso"><rect codeLine="47" fill="#F1F1F1" height="64.2969" id="identity_config_sso" rx="2.5" ry="2.5" style="stroke:#181818;stroke-width:0.5;" width="151" x="391.5" y="479"/><ellipse cx="406.5" cy="495" fill="#ADD1B2" rx="11" ry="11" style="stroke:#181818;stroke-width:1.0;"/><path d="M409.4688,500.6406 Q408.8906,500.9375 408.25,501.0781 Q407.6094,501.2344 406.9063,501.2344 Q404.4063,501.2344 403.0781,499.5938 Q401.7656,497.9375 401.7656,494.8125 Q401.7656,491.6875 403.0781,490.0313 Q404.4063,488.375 406.9063,488.375 Q407.6094,488.375 408.25,488.5313 Q408.9063,488.6875 409.4688,488.9844 L409.4688,491.7031 Q408.8438,491.125 408.25,490.8594 Q407.6563,490.5781 407.0313,490.5781 Q405.6875,490.5781 405,491.6563 Q404.3125,492.7188 404.3125,494.8125 Q404.3125,496.9063 405,497.9844 Q405.6875,499.0469 407.0313,499.0469 Q407.6563,499.0469 408.25,498.7813 Q408.8438,498.5 409.4688,497.9219 L409.4688,500.6406 Z " fill="#000000"/><text fill="#000000" font-family="sans-serif" font-size="14" lengthAdjust="spacing" textLength="119" x="420.5" y="499.8467">config.SSOConfig</text><line style="stroke:#181818;stroke-width:0.5;" x1="392.5" x2="541.5" y1="511" y2="511"/><ellipse cx="402.5" cy="522" fill="none" rx="3" ry="3" style="stroke:#038048;stroke-width:1.0;"/><text fill="#000000" font-family="sans-serif" font-size="14" lengthAdjust="spacing" textLength="56" x="411.5" y="527.9951">settings</text><line style="stroke:#181818;stroke-width:0.5;" x1="392.5" x2="541.5" y1="535.2969" y2="535.2969"/></g><!--MD5=[4a6418826575ecc4848a8d64e0deca97]
class identity_config_sso_settings--><g id="elem_identity_config_sso_settings"><rect codeLine="51" fill="#F1F1F1" height="48" id="identity_config_sso_settings" rx="2.5" ry="2.5" style="stroke:#181818;stroke-width:0.5;" width="208" x="656" y="445"/><ellipse cx="671" cy="461" fill="#ADD1B2" rx="11" ry="11" style="stroke:#181818;stroke-width:1.0;"/><path d="M673.9688,466.6406 Q673.3906,466.9375 672.75,467.0781 Q672.1094,467.2344 671.4063,467.2344 Q668.9063,467.2344 667.5781,465.5938 Q666.2656,463.9375 666.2656,460.8125 Q666.2656,457.6875 667.5781,456.0313 Q668.9063,454.375 671.4063,454.375 Q672.1094,454.375 672.75,454.5313 Q673.4063,454.6875 673.9688,454.9844 L673.9688,457.7031 Q673.3438,457.125 672.75,456.8594 Q672.1563,456.5781 671.5313,456.5781 Q670.1875,456.5781 669.5,457.6563 Q668.8125,458.7188 668.8125,460.8125 Q668.8125,462.9063 669.5,463.9844 Q670.1875,465.0469 671.5313,465.0469 Q672.1563,465.0469 672.75,464.7813 Q673.3438,464.5 673.9688,463.9219 L673.9688,466.6406 Z " fill="#000000"/><text fill="#000000" font-family="sans-serif" font-size="14" lengthAdjust="spacing" textLength="176" x="685" y="465.8467">config.SSOSettingsConfig</text><line style="stroke:#181818;stroke-width:0.5;" x1="657" x2="863" y1="477" y2="477"/><line style="stroke:#181818;stroke-width:0.5;" x1="657" x2="863" y1="485" y2="485"/></g><!--MD5=[efa31be024e67dce12f5be6c093a3fbb]
class identity_config_saml2--><g id="elem_identity_config_saml2"><rect codeLine="52" fill="#F1F1F1" height="48" id="identity_config_saml2" rx="2.5" ry="2.5" style="stroke:#181818;stroke-width:0.5;" width="168" x="676" y="528"/><ellipse cx="691" cy="544" fill="#ADD1B2" rx="11" ry="11" style="stroke:#181818;stroke-width:1.0;"/><path d="M693.9688,549.6406 Q693.3906,549.9375 692.75,550.0781 Q692.1094,550.2344 691.4063,550.2344 Q688.9063,550.2344 687.5781,548.5938 Q686.2656,546.9375 686.2656,543.8125 Q686.2656,540.6875 687.5781,539.0313 Q688.9063,537.375 691.4063,537.375 Q692.1094,537.375 692.75,537.5313 Q693.4063,537.6875 693.9688,537.9844 L693.9688,540.7031 Q693.3438,540.125 692.75,539.8594 Q692.1563,539.5781 691.5313,539.5781 Q690.1875,539.5781 689.5,540.6563 Q688.8125,541.7188 688.8125,543.8125 Q688.8125,545.9063 689.5,546.9844 Q690.1875,548.0469 691.5313,548.0469 Q692.1563,548.0469 692.75,547.7813 Q693.3438,547.5 693.9688,546.9219 L693.9688,549.6406 Z " fill="#000000"/><text fill="#000000" font-family="sans-serif" font-size="14" lengthAdjust="spacing" textLength="136" x="705" y="548.8467">config.SAML2Config</text><line style="stroke:#181818;stroke-width:0.5;" x1="677" x2="843" y1="560" y2="560"/><line style="stroke:#181818;stroke-width:0.5;" x1="677" x2="843" y1="568" y2="568"/></g><!--MD5=[b80c473a51fcaec7cb7274747f6da2a2]
class database_config--><g id="elem_database_config"><rect codeLine="57" fill="#F1F1F1" height="64.2969" id="database_config" rx="2.5" ry="2.5" style="stroke:#181818;stroke-width:0.5;" width="122" x="191" y="659"/><ellipse cx="206" cy="675" fill="#ADD1B2" rx="11" ry="11" style="stroke:#181818;stroke-width:1.0;"/><path d="M208.9688,680.6406 Q208.3906,680.9375 207.75,681.0781 Q207.1094,681.2344 206.4063,681.2344 Q203.9063,681.2344 202.5781,679.5938 Q201.2656,677.9375 201.2656,674.8125 Q201.2656,671.6875 202.5781,670.0313 Q203.9063,668.375 206.4063,668.375 Q207.1094,668.375 207.75,668.5313 Q208.4063,668.6875 208.9688,668.9844 L208.9688,671.7031 Q208.3438,671.125 207.75,670.8594 Q207.1563,670.5781 206.5313,670.5781 Q205.1875,670.5781 204.5,671.6563 Q203.8125,672.7188 203.8125,674.8125 Q203.8125,676.9063 204.5,677.9844 Q205.1875,679.0469 206.5313,679.0469 Q207.1563,679.0469 207.75,678.7813 Q208.3438,678.5 208.9688,677.9219 L208.9688,680.6406 Z " fill="#000000"/><text fill="#000000" font-family="sans-serif" font-size="14" lengthAdjust="spacing" textLength="90" x="220" y="679.8467">config.Config</text><line style="stroke:#181818;stroke-width:0.5;" x1="192" x2="312" y1="691" y2="691"/><ellipse cx="202" cy="702" fill="none" rx="3" ry="3" style="stroke:#038048;stroke-width:1.0;"/><text fill="#000000" font-family="sans-serif" font-size="14" lengthAdjust="spacing" textLength="64" x="211" y="707.9951">database</text><line style="stroke:#181818;stroke-width:0.5;" x1="192" x2="312" y1="715.2969" y2="715.2969"/></g><!--MD5=[5228f359adb9d5a9d31b9bd8584d03ca]
class database_config_database--><g id="elem_database_config_database"><rect codeLine="61" fill="#F1F1F1" height="64.2969" id="database_config_database" rx="2.5" ry="2.5" style="stroke:#181818;stroke-width:0.5;" width="188" x="373" y="673"/><ellipse cx="388" cy="689" fill="#ADD1B2" rx="11" ry="11" style="stroke:#181818;stroke-width:1.0;"/><path d="M390.9688,694.6406 Q390.3906,694.9375 389.75,695.0781 Q389.1094,695.2344 388.4063,695.2344 Q385.9063,695.2344 384.5781,693.5938 Q383.2656,691.9375 383.2656,688.8125 Q383.2656,685.6875 384.5781,684.0313 Q385.9063,682.375 388.4063,682.375 Q389.1094,682.375 389.75,682.5313 Q390.4063,682.6875 390.9688,682.9844 L390.9688,685.7031 Q390.3438,685.125 389.75,684.8594 Q389.1563,684.5781 388.5313,684.5781 Q387.1875,684.5781 386.5,685.6563 Q385.8125,686.7188 385.8125,688.8125 Q385.8125,690.9063 386.5,691.9844 Q387.1875,693.0469 388.5313,693.0469 Q389.1563,693.0469 389.75,692.7813 Q390.3438,692.5 390.9688,691.9219 L390.9688,694.6406 Z " fill="#000000"/><text fill="#000000" font-family="sans-serif" font-size="14" lengthAdjust="spacing" textLength="156" x="402" y="693.8467">config.DatabaseConfig</text><line style="stroke:#181818;stroke-width:0.5;" x1="374" x2="560" y1="705" y2="705"/><ellipse cx="384" cy="716" fill="none" rx="3" ry="3" style="stroke:#038048;stroke-width:1.0;"/><text fill="#000000" font-family="sans-serif" font-size="14" lengthAdjust="spacing" textLength="94" x="393" y="721.9951">connect_args</text><line style="stroke:#181818;stroke-width:0.5;" x1="374" x2="560" y1="729.2969" y2="729.2969"/></g><!--MD5=[d8b73892688241ace390e0c9baa35110]
class database_config_database_connect_args--><g id="elem_database_config_database_connect_args"><rect codeLine="65" fill="#F1F1F1" height="48" id="database_config_database_connect_args" rx="2.5" ry="2.5" style="stroke:#181818;stroke-width:0.5;" width="278" x="621" y="688"/><ellipse cx="636" cy="704" fill="#ADD1B2" rx="11" ry="11" style="stroke:#181818;stroke-width:1.0;"/><path d="M638.9688,709.6406 Q638.3906,709.9375 637.75,710.0781 Q637.1094,710.2344 636.4063,710.2344 Q633.9063,710.2344 632.5781,708.5938 Q631.2656,706.9375 631.2656,703.8125 Q631.2656,700.6875 632.5781,699.0313 Q633.9063,697.375 636.4063,697.375 Q637.1094,697.375 637.75,697.5313 Q638.4063,697.6875 638.9688,697.9844 L638.9688,700.7031 Q638.3438,700.125 637.75,699.8594 Q637.1563,699.5781 636.5313,699.5781 Q635.1875,699.5781 634.5,700.6563 Q633.8125,701.7188 633.8125,703.8125 Q633.8125,705.9063 634.5,706.9844 Q635.1875,708.0469 636.5313,708.0469 Q637.1563,708.0469 637.75,707.7813 Q638.3438,707.5 638.9688,706.9219 L638.9688,709.6406 Z " fill="#000000"/><text fill="#000000" font-family="sans-serif" font-size="14" lengthAdjust="spacing" textLength="246" x="650" y="708.8467">config.DatabaseConnectArgsConfig</text><line style="stroke:#181818;stroke-width:0.5;" x1="622" x2="898" y1="720" y2="720"/><line style="stroke:#181818;stroke-width:0.5;" x1="622" x2="898" y1="728" y2="728"/></g><!--MD5=[3f454245e576c548a76df1c8ef275afa]
class database_config_postgresql_database_connect_args--><g id="elem_database_config_postgresql_database_connect_args"><rect codeLine="66" fill="#F1F1F1" height="48" id="database_config_postgresql_database_connect_args" rx="2.5" ry="2.5" style="stroke:#181818;stroke-width:0.5;" width="359" x="959" y="734"/><ellipse cx="974" cy="750" fill="#ADD1B2" rx="11" ry="11" style="stroke:#181818;stroke-width:1.0;"/><path d="M976.9688,755.6406 Q976.3906,755.9375 975.75,756.0781 Q975.1094,756.2344 974.4063,756.2344 Q971.9063,756.2344 970.5781,754.5938 Q969.2656,752.9375 969.2656,749.8125 Q969.2656,746.6875 970.5781,745.0313 Q971.9063,743.375 974.4063,743.375 Q975.1094,743.375 975.75,743.5313 Q976.4063,743.6875 976.9688,743.9844 L976.9688,746.7031 Q976.3438,746.125 975.75,745.8594 Q975.1563,745.5781 974.5313,745.5781 Q973.1875,745.5781 972.5,746.6563 Q971.8125,747.7188 971.8125,749.8125 Q971.8125,751.9063 972.5,752.9844 Q973.1875,754.0469 974.5313,754.0469 Q975.1563,754.0469 975.75,753.7813 Q976.3438,753.5 976.9688,752.9219 L976.9688,755.6406 Z " fill="#000000"/><text fill="#000000" font-family="sans-serif" font-size="14" lengthAdjust="spacing" textLength="327" x="988" y="754.8467">config.PostgreSQLDatabaseConnectArgsConfig</text><line style="stroke:#181818;stroke-width:0.5;" x1="960" x2="1317" y1="766" y2="766"/><line style="stroke:#181818;stroke-width:0.5;" x1="960" x2="1317" y1="774" y2="774"/></g><!--MD5=[077a94868b04172fe1c853122645d9e8]
class database_config_sqlite_database_connect_args--><g id="elem_database_config_sqlite_database_connect_args"><rect codeLine="67" fill="#F1F1F1" height="48" id="database_config_sqlite_database_connect_args" rx="2.5" ry="2.5" style="stroke:#181818;stroke-width:0.5;" width="322" x="977.5" y="651"/><ellipse cx="992.5" cy="667" fill="#ADD1B2" rx="11" ry="11" style="stroke:#181818;stroke-width:1.0;"/><path d="M995.4688,672.6406 Q994.8906,672.9375 994.25,673.0781 Q993.6094,673.2344 992.9063,673.2344 Q990.4063,673.2344 989.0781,671.5938 Q987.7656,669.9375 987.7656,666.8125 Q987.7656,663.6875 989.0781,662.0313 Q990.4063,660.375 992.9063,660.375 Q993.6094,660.375 994.25,660.5313 Q994.9063,660.6875 995.4688,660.9844 L995.4688,663.7031 Q994.8438,663.125 994.25,662.8594 Q993.6563,662.5781 993.0313,662.5781 Q991.6875,662.5781 991,663.6563 Q990.3125,664.7188 990.3125,666.8125 Q990.3125,668.9063 991,669.9844 Q991.6875,671.0469 993.0313,671.0469 Q993.6563,671.0469 994.25,670.7813 Q994.8438,670.5 995.4688,669.9219 L995.4688,672.6406 Z " fill="#000000"/><text fill="#000000" font-family="sans-serif" font-size="14" lengthAdjust="spacing" textLength="290" x="1006.5" y="671.8467">config.SQLiteDatabaseConnectArgsConfig</text><line style="stroke:#181818;stroke-width:0.5;" x1="978.5" x2="1298.5" y1="683" y2="683"/><line style="stroke:#181818;stroke-width:0.5;" x1="978.5" x2="1298.5" y1="691" y2="691"/></g><!--MD5=[1642b547e48b3f3b10b88568b40ba38f]
reverse link pydantic_base_model to web_config--><g id="link_pydantic_base_model_web_config"><path codeLine="70" d="M109.34,470.99 C138.29,434.62 181.09,380.85 212.06,341.93 " fill="none" id="pydantic_base_model-backto-web_config" style="stroke:#181818;stroke-width:1.0;"/><polygon fill="none" points="114.66,475.55,96.73,486.84,103.71,466.83,114.66,475.55" style="stroke:#181818;stroke-width:1.0;"/></g><!--MD5=[0447a8873e1f16bc4d510e22ac14426d]
reverse link pydantic_base_model to identity_config--><g id="link_pydantic_base_model_identity_config"><path codeLine="71" d="M151.51,511 C164.6,511 178.09,511 190.74,511 " fill="none" id="pydantic_base_model-backto-identity_config" style="stroke:#181818;stroke-width:1.0;"/><polygon fill="none" points="151.45,518,131.45,511,151.45,504,151.45,518" style="stroke:#181818;stroke-width:1.0;"/></g><!--MD5=[1a60c48a83344a7ecc1f0c26690f9f2c]
reverse link pydantic_base_model to database_config--><g id="link_pydantic_base_model_database_config"><path codeLine="72" d="M115.16,550.07 C146.56,582.64 190.73,628.47 220.08,658.92 " fill="none" id="pydantic_base_model-backto-database_config" style="stroke:#181818;stroke-width:1.0;"/><polygon fill="none" points="109.74,554.53,100.9,535.28,119.82,544.82,109.74,554.53" style="stroke:#181818;stroke-width:1.0;"/></g><!--MD5=[6196f1c83871e892e5016293d89ccc82]
reverse link web_config to web_config_flask--><g id="link_web_config_web_config_flask"><path codeLine="74" d="M326.11,282.7 C346.21,279.87 368.08,276.79 388.43,273.93 " fill="none" id="web_config-backto-web_config_flask" style="stroke:#181818;stroke-width:1.0;"/><polygon fill="#181818" points="313.18,284.52,319.6791,287.6444,325.0628,282.8469,318.5637,279.7225,313.18,284.52" style="stroke:#181818;stroke-width:1.0;"/></g><!--MD5=[35811df8c6b3bb2c7568c09a0559bd7e]
reverse link web_config to web_config_web--><g id="link_web_config_web_config_web"><path codeLine="75" d="M321.18,235.71 C356.5,206.02 398.32,170.88 427.91,146.01 " fill="none" id="web_config-backto-web_config_web" style="stroke:#181818;stroke-width:1.0;"/><polygon fill="#181818" points="310.92,244.32,318.0868,243.5215,320.1061,236.5989,312.9394,237.3974,310.92,244.32" style="stroke:#181818;stroke-width:1.0;"/></g><!--MD5=[59ac09be0f69e4fcc588ef16670f8e91]
reverse link web_config to web_config_logging--><g id="link_web_config_web_config_logging"><path codeLine="76" d="M325.83,312.01 C341.31,315.48 357.62,318.72 373,321 C474.64,336.04 592.66,342.04 671.18,344.42 " fill="none" id="web_config-backto-web_config_logging" style="stroke:#181818;stroke-width:1.0;"/><polygon fill="#181818" points="313.06,309.06,318.0052,314.3084,324.7518,311.7622,319.8066,306.5138,313.06,309.06" style="stroke:#181818;stroke-width:1.0;"/></g><!--MD5=[c3cd4fd0d101602e1c8449d37edacbe1]
reverse link web_config_flask to web_config_flask_openapi--><g id="link_web_config_flask_web_config_flask_openapi"><path codeLine="77" d="M558.87,263 C588.33,263 621.29,263 651.82,263 " fill="none" id="web_config_flask-backto-web_config_flask_openapi" style="stroke:#181818;stroke-width:1.0;"/><polygon fill="#181818" points="545.6,263,551.6,267,557.6,263,551.6,259,545.6,263" style="stroke:#181818;stroke-width:1.0;"/></g><!--MD5=[cfbb2736de4230cc95428d8adc85d38e]
reverse link web_config_flask to web_config_flask_session--><g id="link_web_config_flask_web_config_flask_session"><path codeLine="78" d="M558.22,234.79 C589.34,225.06 624.41,214.09 656.44,204.07 " fill="none" id="web_config_flask-backto-web_config_flask_session" style="stroke:#181818;stroke-width:1.0;"/><polygon fill="#181818" points="545.6,238.73,552.5209,240.7551,557.0521,235.1454,550.1312,233.1204,545.6,238.73" style="stroke:#181818;stroke-width:1.0;"/></g><!--MD5=[35ea59d1fa266daa95c875cef6b4e837]
reverse link web_config_flask_session to web_config_flask_session_cookie--><g id="link_web_config_flask_session_web_config_flask_session_cookie"><path codeLine="79" d="M879.24,172 C920.22,172 966.37,172 1008.19,172 " fill="none" id="web_config_flask_session-backto-web_config_flask_session_cookie" style="stroke:#181818;stroke-width:1.0;"/><polygon fill="#181818" points="866.13,172,872.13,176,878.13,172,872.13,168,866.13,172" style="stroke:#181818;stroke-width:1.0;"/></g><!--MD5=[47bfebc6776f2db3440e906fa45ed694]
reverse link web_config_web to web_config_web_security--><g id="link_web_config_web_web_config_web_security"><path codeLine="80" d="M556.81,101.49 C588.05,97.09 623.42,92.1 655.75,87.55 " fill="none" id="web_config_web-backto-web_config_web_security" style="stroke:#181818;stroke-width:1.0;"/><polygon fill="#181818" points="543.7,103.33,550.1962,106.4605,555.5844,101.668,549.0882,98.5376,543.7,103.33" style="stroke:#181818;stroke-width:1.0;"/></g><!--MD5=[af45625382c7aad16a500e4417598cbd]
reverse link web_config_web_security to web_config_web_security_cors--><g id="link_web_config_web_security_web_config_web_security_cors"><path codeLine="81" d="M877.44,73 C922.21,73 973.36,73 1018.38,73 " fill="none" id="web_config_web_security-backto-web_config_web_security_cors" style="stroke:#181818;stroke-width:1.0;"/><polygon fill="#181818" points="864.38,73,870.38,77,876.38,73,870.38,69,864.38,73" style="stroke:#181818;stroke-width:1.0;"/></g><!--MD5=[2596ec5aa3355317fd72fe44a6254f49]
reverse link identity_config to identity_config_sso--><g id="link_identity_config_identity_config_sso"><path codeLine="83" d="M326.3,511 C347.25,511 370.12,511 391.16,511 " fill="none" id="identity_config-backto-identity_config_sso" style="stroke:#181818;stroke-width:1.0;"/><polygon fill="#181818" points="313.18,511,319.18,515,325.18,511,319.18,507,313.18,511" style="stroke:#181818;stroke-width:1.0;"/></g><!--MD5=[595902294208b2909027785eda7e2c8c]
reverse link identity_config_sso to identity_config_sso_settings--><g id="link_identity_config_sso_identity_config_sso_settings"><path codeLine="84" d="M555.78,498.33 C587.3,493.78 623.13,488.61 655.83,483.89 " fill="none" id="identity_config_sso-backto-identity_config_sso_settings" style="stroke:#181818;stroke-width:1.0;"/><polygon fill="#181818" points="542.56,500.24,549.0702,503.3411,554.4367,498.5245,547.9265,495.4233,542.56,500.24" style="stroke:#181818;stroke-width:1.0;"/></g><!--MD5=[11019eb490258867d8a03b59f695d518]
reverse link identity_config_sso to identity_config_saml2--><g id="link_identity_config_sso_identity_config_saml2"><path codeLine="85" d="M555.76,523.37 C593.89,528.74 638.33,535 675.91,540.29 " fill="none" id="identity_config_sso-backto-identity_config_saml2" style="stroke:#181818;stroke-width:1.0;stroke-dasharray:7.0,7.0;"/><polygon fill="#181818" points="542.56,521.51,547.943,526.3083,554.4425,523.1849,549.0596,518.3866,542.56,521.51" style="stroke:#181818;stroke-width:1.0;"/></g><!--MD5=[c906c37d1f3e71cd1a04375235c0080d]
link identity_config_saml2 to identity_config_sso_settings--><g id="link_identity_config_saml2_identity_config_sso_settings"><path codeLine="86" d="M760,527.68 C760,522.94 760,518.19 760,513.45 " fill="none" id="identity_config_saml2-to-identity_config_sso_settings" style="stroke:#181818;stroke-width:1.0;"/><polygon fill="none" points="753,513.3,760,493.3,767,513.3,753,513.3" style="stroke:#181818;stroke-width:1.0;"/></g><!--MD5=[8fed786762cee7f60f5a72d7dc5649e9]
reverse link database_config to database_config_database--><g id="link_database_config_database_config_database"><path codeLine="88" d="M326.59,695.84 C341.53,696.82 357.42,697.86 372.92,698.88 " fill="none" id="database_config-backto-database_config_database" style="stroke:#181818;stroke-width:1.0;"/><polygon fill="#181818" points="313.18,694.96,318.908,699.3406,325.1547,695.7381,319.4267,691.3575,313.18,694.96" style="stroke:#181818;stroke-width:1.0;"/></g><!--MD5=[a9e3ce37f5bad9260eaaa27acaa384b1]
reverse link database_config_database to database_config_database_connect_args--><g id="link_database_config_database_database_config_database_connect_args"><path codeLine="89" d="M574.41,707.56 C589.55,707.92 605.3,708.3 620.94,708.68 " fill="none" id="database_config_database-backto-database_config_database_connect_args" style="stroke:#181818;stroke-width:1.0;"/><polygon fill="#181818" points="561.27,707.24,567.1716,711.3838,573.2665,707.53,567.3649,703.3862,561.27,707.24" style="stroke:#181818;stroke-width:1.0;"/></g><!--MD5=[e92fb91008c2d1105c8844e65eb6ebd3]
reverse link database_config_database to database_config_postgresql_database_connect_args--><g id="link_database_config_database_database_config_postgresql_database_connect_args"><path codeLine="90" d="M565.18,740.95 C583.49,746.33 602.65,751.06 621,754 C732.34,771.84 858.93,773.12 958.91,769.8 " fill="none" id="database_config_database-backto-database_config_postgresql_database_connect_args" style="stroke:#181818;stroke-width:1.0;stroke-dasharray:7.0,7.0;"/><polygon fill="#181818" points="552.66,737.12,557.2283,742.6995,564.1356,740.6286,559.5673,735.0491,552.66,737.12" style="stroke:#181818;stroke-width:1.0;"/></g><!--MD5=[7f0dd954ba05838c13954881f5a1634b]
reverse link database_config_database to database_config_sqlite_database_connect_args--><g id="link_database_config_database_database_config_sqlite_database_connect_args"><path codeLine="91" d="M574.27,677.47 C589.85,674.37 605.77,671.72 621,670 C739.85,656.58 875.05,658.5 977.31,663.42 " fill="none" id="database_config_database-backto-database_config_sqlite_database_connect_args" style="stroke:#181818;stroke-width:1.0;stroke-dasharray:7.0,7.0;"/><polygon fill="#181818" points="561.29,680.16,567.9773,682.8582,573.04,677.7231,566.3527,675.0249,561.29,680.16" style="stroke:#181818;stroke-width:1.0;"/></g><!--MD5=[5f149957064b803f67218ae72b280f23]
reverse link database_config_database_connect_args to database_config_postgresql_database_connect_args--><g id="link_database_config_database_connect_args_database_config_postgresql_database_connect_args"><path codeLine="92" d="M919.31,731.34 C932.33,732.93 945.54,734.55 958.69,736.15 " fill="none" id="database_config_database_connect_args-backto-database_config_postgresql_database_connect_args" style="stroke:#181818;stroke-width:1.0;"/><polygon fill="none" points="918.06,738.24,899.06,728.87,919.76,724.34,918.06,738.24" style="stroke:#181818;stroke-width:1.0;"/></g><!--MD5=[d660b5167f918218f5d6d6c1abfb7d9f]
reverse link database_config_database_connect_args to database_config_sqlite_database_connect_args--><g id="link_database_config_database_connect_args_database_config_sqlite_database_connect_args"><path codeLine="93" d="M919.01,696.47 C938.34,694.57 958.11,692.63 977.47,690.73 " fill="none" id="database_config_database_connect_args-backto-database_config_sqlite_database_connect_args" style="stroke:#181818;stroke-width:1.0;"/><polygon fill="none" points="919.65,703.44,899.06,698.43,918.28,689.51,919.65,703.44" style="stroke:#181818;stroke-width:1.0;"/></g><!--MD5=[ad150c98e727199ad2540ea97cd05dc4]
link database_config_postgresql_database_connect_args to database_config_sqlite_database_connect_args--><!--MD5=[43b812f7114864f345785d1b33a02349]
@startuml
left to right direction

package pydantic
{
    class pydantic_base_model as "BaseModel"
}

package "BL_Python.web"
{
    class web_config as "config.Config"
    {
        + logging
        + web
        + flask
    }
    class web_config_logging as "config.LoggingConfig"
    class web_config_flask as "config.FlaskConfig"
    {
        + openapi
        + session
    }
    class web_config_flask_openapi as "config.FlaskOpenApiConfig"
    class web_config_flask_session as "config.FlaskSessionConfig"
    {
        + cookie
    }

    class web_config_flask_session_cookie as "config.FlaskSessionCookieConfig"
    class web_config_web as "config.WebConfig"
    {
        + security
    }

    class web_config_web_security as "config.WebSecurityConfig"
    {
        + cors
    }
    class web_config_web_security_cors as "config.WebSecurityCorsConfig"
}

package "BL_Python.identity"
{
    class identity_config as "config.Config"
    {
        + sso
    }
    class identity_config_sso as "config.SSOConfig"
    {
        + settings
    }
    class identity_config_sso_settings as "config.SSOSettingsConfig"
    class identity_config_saml2 as "config.SAML2Config"
}

package "BL_Python.database"
{
    class database_config as "config.Config"
    {
        + database
    }
    class database_config_database as "config.DatabaseConfig"
    {
        + connect_args
    }
    class database_config_database_connect_args as "config.DatabaseConnectArgsConfig"
    class database_config_postgresql_database_connect_args as "config.PostgreSQLDatabaseConnectArgsConfig"
    class database_config_sqlite_database_connect_args as "config.SQLiteDatabaseConnectArgsConfig"
}

pydantic_base_model <|- - web_config
pydantic_base_model <|- - identity_config
pydantic_base_model <|- - database_config

web_config *- - web_config_flask
web_config *- - web_config_web
web_config *- - - web_config_logging
web_config_flask *- - web_config_flask_openapi
web_config_flask *- - web_config_flask_session
web_config_flask_session *- - web_config_flask_session_cookie
web_config_web *- - web_config_web_security
web_config_web_security *- - web_config_web_security_cors

identity_config *- - identity_config_sso
identity_config_sso *- - identity_config_sso_settings
identity_config_sso *.. identity_config_saml2
identity_config_sso_settings <|-left- identity_config_saml2

database_config *- - database_config_database
database_config_database *- - database_config_database_connect_args
database_config_database *.. database_config_postgresql_database_connect_args
database_config_database *.. database_config_sqlite_database_connect_args
database_config_database_connect_args <|- - database_config_postgresql_database_connect_args
database_config_database_connect_args <|- - database_config_sqlite_database_connect_args
database_config_sqlite_database_connect_args -left[hidden]- database_config_postgresql_database_connect_args
@enduml

PlantUML version 1.2022.6(Tue Jun 21 17:34:49 GMT 2022)
(GPL source distribution)
Java Runtime: OpenJDK Runtime Environment
JVM: OpenJDK 64-Bit Server VM
Default Encoding: UTF-8
Language: en
Country: US
--></g></svg>