<?xml version="1.0" encoding="UTF-8" standalone="no"?><svg xmlns="http://www.w3.org/2000/svg" xmlns:xlink="http://www.w3.org/1999/xlink" contentStyleType="text/css" height="284px" preserveAspectRatio="none" style="width:550px;height:284px;background:#FFFFFF;" version="1.1" viewBox="0 0 550 284" width="550px" zoomAndPan="magnify"><defs/><g><!--MD5=[be6700cbb4ecacf17ba1942ef256a4d0]
cluster pydantic--><g id="cluster_pydantic"><path d="M195.5,6 L263.5,6 A3.75,3.75 0 0 1 266,8.5 L273,28.2969 L332.5,28.2969 A2.5,2.5 0 0 1 335,30.7969 L335,102.5 A2.5,2.5 0 0 1 332.5,105 L195.5,105 A2.5,2.5 0 0 1 193,102.5 L193,8.5 A2.5,2.5 0 0 1 195.5,6 " style="stroke:#000000;stroke-width:1.5;fill:none;"/><line style="stroke:#000000;stroke-width:1.5;fill:none;" x1="193" x2="273" y1="28.2969" y2="28.2969"/><text fill="#000000" font-family="sans-serif" font-size="14" font-weight="bold" lengthAdjust="spacing" textLength="67" x="197" y="20.9951">pydantic</text></g><!--MD5=[df4dac99b5828717dc5b608ae18c0ed7]
cluster BL_Python.web--><g id="cluster_BL_Python.web"><path d="M8.5,129 L129.5,129 A3.75,3.75 0 0 1 132,131.5 L139,151.2969 L157.5,151.2969 A2.5,2.5 0 0 1 160,153.7969 L160,274.5 A2.5,2.5 0 0 1 157.5,277 L8.5,277 A2.5,2.5 0 0 1 6,274.5 L6,131.5 A2.5,2.5 0 0 1 8.5,129 " style="stroke:#000000;stroke-width:1.5;fill:none;"/><line style="stroke:#000000;stroke-width:1.5;fill:none;" x1="6" x2="139" y1="151.2969" y2="151.2969"/><text fill="#000000" font-family="sans-serif" font-size="14" font-weight="bold" lengthAdjust="spacing" textLength="120" x="10" y="143.9951">BL_Python.web</text></g><!--MD5=[55363bd121a3e61ac9502285048d1a8e]
cluster BL_Python.identity--><g id="cluster_BL_Python.identity"><path d="M186.5,145.5 L332.5,145.5 A3.75,3.75 0 0 1 335,148 L342,167.7969 L342.5,167.7969 A2.5,2.5 0 0 1 345,170.2969 L345,258 A2.5,2.5 0 0 1 342.5,260.5 L186.5,260.5 A2.5,2.5 0 0 1 184,258 L184,148 A2.5,2.5 0 0 1 186.5,145.5 " style="stroke:#000000;stroke-width:1.5;fill:none;"/><line style="stroke:#000000;stroke-width:1.5;fill:none;" x1="184" x2="342" y1="167.7969" y2="167.7969"/><text fill="#000000" font-family="sans-serif" font-size="14" font-weight="bold" lengthAdjust="spacing" textLength="145" x="188" y="160.4951">BL_Python.identity</text></g><!--MD5=[661a9c00c111b7fc1c6eb68232edef65]
cluster BL_Python.database--><g id="cluster_BL_Python.database"><path d="M371.5,145.5 L530.5,145.5 A3.75,3.75 0 0 1 533,148 L540,167.7969 L540.5,167.7969 A2.5,2.5 0 0 1 543,170.2969 L543,258 A2.5,2.5 0 0 1 540.5,260.5 L371.5,260.5 A2.5,2.5 0 0 1 369,258 L369,148 A2.5,2.5 0 0 1 371.5,145.5 " style="stroke:#000000;stroke-width:1.5;fill:none;"/><line style="stroke:#000000;stroke-width:1.5;fill:none;" x1="369" x2="540" y1="167.7969" y2="167.7969"/><text fill="#000000" font-family="sans-serif" font-size="14" font-weight="bold" lengthAdjust="spacing" textLength="158" x="373" y="160.4951">BL_Python.database</text></g><!--MD5=[5f1ef0b6cf24cec8f63b8f3e76d4085e]
class pydantic_base_model--><g id="elem_pydantic_base_model"><rect codeLine="4" fill="#F1F1F1" height="48" id="pydantic_base_model" rx="2.5" ry="2.5" style="stroke:#181818;stroke-width:0.5;" width="109" x="209.5" y="41"/><ellipse cx="224.5" cy="57" fill="#ADD1B2" rx="11" ry="11" style="stroke:#181818;stroke-width:1.0;"/><path d="M227.4688,62.6406 Q226.8906,62.9375 226.25,63.0781 Q225.6094,63.2344 224.9063,63.2344 Q222.4063,63.2344 221.0781,61.5938 Q219.7656,59.9375 219.7656,56.8125 Q219.7656,53.6875 221.0781,52.0313 Q222.4063,50.375 224.9063,50.375 Q225.6094,50.375 226.25,50.5313 Q226.9063,50.6875 227.4688,50.9844 L227.4688,53.7031 Q226.8438,53.125 226.25,52.8594 Q225.6563,52.5781 225.0313,52.5781 Q223.6875,52.5781 223,53.6563 Q222.3125,54.7188 222.3125,56.8125 Q222.3125,58.9063 223,59.9844 Q223.6875,61.0469 225.0313,61.0469 Q225.6563,61.0469 226.25,60.7813 Q226.8438,60.5 227.4688,59.9219 L227.4688,62.6406 Z " fill="#000000"/><text fill="#000000" font-family="sans-serif" font-size="14" lengthAdjust="spacing" textLength="77" x="238.5" y="61.8467">BaseModel</text><line style="stroke:#181818;stroke-width:0.5;" x1="210.5" x2="317.5" y1="73" y2="73"/><line style="stroke:#181818;stroke-width:0.5;" x1="210.5" x2="317.5" y1="81" y2="81"/></g><!--MD5=[61b517ed9687cee4a88ea4c4482afe68]
class web_config--><g id="elem_web_config"><rect codeLine="9" fill="#F1F1F1" height="96.8906" id="web_config" rx="2.5" ry="2.5" style="stroke:#181818;stroke-width:0.5;" width="122" x="22" y="164"/><ellipse cx="37" cy="180" fill="#ADD1B2" rx="11" ry="11" style="stroke:#181818;stroke-width:1.0;"/><path d="M39.9688,185.6406 Q39.3906,185.9375 38.75,186.0781 Q38.1094,186.2344 37.4063,186.2344 Q34.9063,186.2344 33.5781,184.5938 Q32.2656,182.9375 32.2656,179.8125 Q32.2656,176.6875 33.5781,175.0313 Q34.9063,173.375 37.4063,173.375 Q38.1094,173.375 38.75,173.5313 Q39.4063,173.6875 39.9688,173.9844 L39.9688,176.7031 Q39.3438,176.125 38.75,175.8594 Q38.1563,175.5781 37.5313,175.5781 Q36.1875,175.5781 35.5,176.6563 Q34.8125,177.7188 34.8125,179.8125 Q34.8125,181.9063 35.5,182.9844 Q36.1875,184.0469 37.5313,184.0469 Q38.1563,184.0469 38.75,183.7813 Q39.3438,183.5 39.9688,182.9219 L39.9688,185.6406 Z " fill="#000000"/><text fill="#000000" font-family="sans-serif" font-size="14" lengthAdjust="spacing" textLength="90" x="51" y="184.8467">config.Config</text><line style="stroke:#181818;stroke-width:0.5;" x1="23" x2="143" y1="196" y2="196"/><ellipse cx="33" cy="207" fill="none" rx="3" ry="3" style="stroke:#038048;stroke-width:1.0;"/><text fill="#000000" font-family="sans-serif" font-size="14" lengthAdjust="spacing" textLength="51" x="42" y="212.9951">logging</text><ellipse cx="33" cy="223.2969" fill="none" rx="3" ry="3" style="stroke:#038048;stroke-width:1.0;"/><text fill="#000000" font-family="sans-serif" font-size="14" lengthAdjust="spacing" textLength="29" x="42" y="229.292">web</text><ellipse cx="33" cy="239.5938" fill="none" rx="3" ry="3" style="stroke:#038048;stroke-width:1.0;"/><text fill="#000000" font-family="sans-serif" font-size="14" lengthAdjust="spacing" textLength="31" x="42" y="245.5889">flask</text><line style="stroke:#181818;stroke-width:0.5;" x1="23" x2="143" y1="252.8906" y2="252.8906"/></g><!--MD5=[533647fea60084953997cacd050d4869]
class identity_config--><g id="elem_identity_config"><rect codeLine="19" fill="#F1F1F1" height="64.2969" id="identity_config" rx="2.5" ry="2.5" style="stroke:#181818;stroke-width:0.5;" width="122" x="203" y="180.5"/><ellipse cx="218" cy="196.5" fill="#ADD1B2" rx="11" ry="11" style="stroke:#181818;stroke-width:1.0;"/><path d="M220.9688,202.1406 Q220.3906,202.4375 219.75,202.5781 Q219.1094,202.7344 218.4063,202.7344 Q215.9063,202.7344 214.5781,201.0938 Q213.2656,199.4375 213.2656,196.3125 Q213.2656,193.1875 214.5781,191.5313 Q215.9063,189.875 218.4063,189.875 Q219.1094,189.875 219.75,190.0313 Q220.4063,190.1875 220.9688,190.4844 L220.9688,193.2031 Q220.3438,192.625 219.75,192.3594 Q219.1563,192.0781 218.5313,192.0781 Q217.1875,192.0781 216.5,193.1563 Q215.8125,194.2188 215.8125,196.3125 Q215.8125,198.4063 216.5,199.4844 Q217.1875,200.5469 218.5313,200.5469 Q219.1563,200.5469 219.75,200.2813 Q220.3438,200 220.9688,199.4219 L220.9688,202.1406 Z " fill="#000000"/><text fill="#000000" font-family="sans-serif" font-size="14" lengthAdjust="spacing" textLength="90" x="232" y="201.3467">config.Config</text><line style="stroke:#181818;stroke-width:0.5;" x1="204" x2="324" y1="212.5" y2="212.5"/><ellipse cx="214" cy="223.5" fill="none" rx="3" ry="3" style="stroke:#038048;stroke-width:1.0;"/><text fill="#000000" font-family="sans-serif" font-size="14" lengthAdjust="spacing" textLength="25" x="223" y="229.4951">sso</text><line style="stroke:#181818;stroke-width:0.5;" x1="204" x2="324" y1="236.7969" y2="236.7969"/></g><!--MD5=[b80c473a51fcaec7cb7274747f6da2a2]
class database_config--><g id="elem_database_config"><rect codeLine="27" fill="#F1F1F1" height="64.2969" id="database_config" rx="2.5" ry="2.5" style="stroke:#181818;stroke-width:0.5;" width="122" x="385" y="180.5"/><ellipse cx="400" cy="196.5" fill="#ADD1B2" rx="11" ry="11" style="stroke:#181818;stroke-width:1.0;"/><path d="M402.9688,202.1406 Q402.3906,202.4375 401.75,202.5781 Q401.1094,202.7344 400.4063,202.7344 Q397.9063,202.7344 396.5781,201.0938 Q395.2656,199.4375 395.2656,196.3125 Q395.2656,193.1875 396.5781,191.5313 Q397.9063,189.875 400.4063,189.875 Q401.1094,189.875 401.75,190.0313 Q402.4063,190.1875 402.9688,190.4844 L402.9688,193.2031 Q402.3438,192.625 401.75,192.3594 Q401.1563,192.0781 400.5313,192.0781 Q399.1875,192.0781 398.5,193.1563 Q397.8125,194.2188 397.8125,196.3125 Q397.8125,198.4063 398.5,199.4844 Q399.1875,200.5469 400.5313,200.5469 Q401.1563,200.5469 401.75,200.2813 Q402.3438,200 402.9688,199.4219 L402.9688,202.1406 Z " fill="#000000"/><text fill="#000000" font-family="sans-serif" font-size="14" lengthAdjust="spacing" textLength="90" x="414" y="201.3467">config.Config</text><line style="stroke:#181818;stroke-width:0.5;" x1="386" x2="506" y1="212.5" y2="212.5"/><ellipse cx="396" cy="223.5" fill="none" rx="3" ry="3" style="stroke:#038048;stroke-width:1.0;"/><text fill="#000000" font-family="sans-serif" font-size="14" lengthAdjust="spacing" textLength="64" x="405" y="229.4951">database</text><line style="stroke:#181818;stroke-width:0.5;" x1="386" x2="506" y1="236.7969" y2="236.7969"/></g><!--MD5=[1642b547e48b3f3b10b88568b40ba38f]
reverse link pydantic_base_model to web_config--><g id="link_pydantic_base_model_web_config"><path codeLine="33" d="M213.8,100.81 C204.76,107.36 195.52,114.28 187,121 C169.9,134.49 151.82,149.83 135.61,163.99 " fill="none" id="pydantic_base_model-backto-web_config" style="stroke:#181818;stroke-width:1.0;"/><polygon fill="none" points="209.79,95.06,230.13,89.14,217.92,106.46,209.79,95.06" style="stroke:#181818;stroke-width:1.0;"/></g><!--MD5=[0447a8873e1f16bc4d510e22ac14426d]
reverse link pydantic_base_model to identity_config--><g id="link_pydantic_base_model_identity_config"><path codeLine="34" d="M264,109.18 C264,132.07 264,159.67 264,180.43 " fill="none" id="pydantic_base_model-backto-identity_config" style="stroke:#181818;stroke-width:1.0;"/><polygon fill="none" points="257,109.05,264,89.05,271,109.05,257,109.05" style="stroke:#181818;stroke-width:1.0;"/></g><!--MD5=[1a60c48a83344a7ecc1f0c26690f9f2c]
reverse link pydantic_base_model to database_config--><g id="link_pydantic_base_model_database_config"><path codeLine="35" d="M314.18,100.84 C323.21,107.39 332.47,114.3 341,121 C365.04,139.88 391.06,162.3 411.19,180.1 " fill="none" id="pydantic_base_model-backto-database_config" style="stroke:#181818;stroke-width:1.0;"/><polygon fill="none" points="310.05,106.49,297.84,89.17,318.18,95.1,310.05,106.49" style="stroke:#181818;stroke-width:1.0;"/></g><!--MD5=[31feb8a341b71530e777b9bc304305fc]
@startuml

package pydantic
{
    class pydantic_base_model as "BaseModel"
}

package "BL_Python.web"
{
    class web_config as "config.Config"
    {
        + logging
        + web
        + flask
    }
}

package  "BL_Python.identity"
{
    class identity_config as "config.Config"
    {
        + sso
    }
}

package "BL_Python.database"
{
    class database_config as "config.Config"
    {
        + database
    }
}

pydantic_base_model <|- - web_config
pydantic_base_model <|- - identity_config
pydantic_base_model <|- - database_config
@enduml

PlantUML version 1.2022.6(Tue Jun 21 17:34:49 GMT 2022)
(GPL source distribution)
Java Runtime: OpenJDK Runtime Environment
JVM: OpenJDK 64-Bit Server VM
Default Encoding: UTF-8
Language: en
Country: US
--></g></svg>