<?xml version="1.0" encoding="UTF-8" standalone="no"?><svg xmlns="http://www.w3.org/2000/svg" xmlns:xlink="http://www.w3.org/1999/xlink" contentStyleType="text/css" height="1175px" preserveAspectRatio="none" style="width:2202px;height:1175px;background:#00000000;" version="1.1" viewBox="0 0 2202 1175" width="2202.0833px" zoomAndPan="magnify"><defs><linearGradient id="g17hdgssvydg1h0" x1="50%" x2="50%" y1="0%" y2="100%"><stop offset="0%" stop-color="#EDF0F2"/><stop offset="100%" stop-color="#E9ECEF"/></linearGradient><linearGradient id="g17hdgssvydg1h1" x1="50%" x2="50%" y1="0%" y2="100%"><stop offset="0%" stop-color="#35638F"/><stop offset="100%" stop-color="#033C73"/></linearGradient><linearGradient id="g17hdgssvydg1h2" x1="50%" x2="50%" y1="0%" y2="100%"><stop offset="0%" stop-color="#59B6EC"/><stop offset="100%" stop-color="#2FA4E7"/></linearGradient><linearGradient id="g17hdgssvydg1h3" x1="50%" x2="50%" y1="0%" y2="100%"><stop offset="0%" stop-color="#FFFFFF"/><stop offset="100%" stop-color="#EDF0F2"/></linearGradient></defs><g><rect fill="url(#g17hdgssvydg1h0)" height="24.9674" style="stroke:url(#g17hdgssvydg1h0);stroke-width:1.0416666666666667;" width="2167.7083" x="15.625" y="11.4583"/><ellipse cx="360.4167" cy="52.0508" fill="#033C73" rx="10.4167" ry="10.4167" style="stroke:#2683B9;stroke-width:1.0416666666666667;"/><path d="M20.8333,77.0671 L20.8333,127.002 A0,0 0 0 0 20.8333,127.002 L253.125,127.002 A0,0 0 0 0 253.125,127.002 L253.125,106.2012 L273.9583,102.0345 L253.125,97.8678 L253.125,87.4837 L242.7083,77.0671 L20.8333,77.0671 A0,0 0 0 0 20.8333,77.0671 " fill="url(#g17hdgssvydg1h1)" style="stroke:#2683B9;stroke-width:1.0416666666666667;"/><path d="M242.7083,77.0671 L242.7083,87.4837 L253.125,87.4837 L242.7083,77.0671 " fill="url(#g17hdgssvydg1h1)" style="stroke:#2683B9;stroke-width:1.0416666666666667;"/><text fill="#FFFFFF" font-family="&quot;Verdana&quot;" font-size="12.5" lengthAdjust="spacing" textLength="183.3333" x="32.2917" y="99.0865">Either the root repository or</text><text fill="#FFFFFF" font-family="&quot;Verdana&quot;" font-size="12.5" lengthAdjust="spacing" textLength="200" x="32.2917" y="113.6373">one of the individual packages</text><rect fill="url(#g17hdgssvydg1h2)" height="37.4674" rx="4.1667" ry="4.1667" style="stroke:#2FA4E7;stroke-width:1.0416666666666667;" width="172.9167" x="273.9583" y="83.3008"/><text fill="#FFFFFF" font-family="&quot;Verdana&quot;" font-size="12.5" lengthAdjust="spacing" textLength="150" x="285.4167" y="106.3619">Ready to make release</text><rect fill="url(#g17hdgssvydg1h2)" height="37.4674" rx="4.1667" ry="4.1667" style="stroke:#2FA4E7;stroke-width:1.0416666666666667;" width="78.125" x="321.3542" y="609.6659"/><text fill="#FFFFFF" font-family="&quot;Verdana&quot;" font-size="12.5" lengthAdjust="spacing" textLength="55.2083" x="332.8125" y="632.7271">Open PR</text><rect fill="url(#g17hdgssvydg1h2)" height="37.4674" rx="4.1667" ry="4.1667" style="stroke:#2FA4E7;stroke-width:1.0416666666666667;" width="175" x="272.9167" y="667.9667"/><text fill="#FFFFFF" font-family="&quot;Verdana&quot;" font-size="12.5" lengthAdjust="spacing" textLength="152.0833" x="284.375" y="691.0278">PR approval and merge</text><rect fill="url(#g17hdgssvydg1h2)" height="37.4674" rx="4.1667" ry="4.1667" style="stroke:#2FA4E7;stroke-width:1.0416666666666667;" width="152.0833" x="284.375" y="726.2675"/><text fill="#FFFFFF" font-family="&quot;Verdana&quot;" font-size="12.5" lengthAdjust="spacing" textLength="129.1667" x="295.8333" y="749.3286">Create new Git tags</text><rect fill="url(#g17hdgssvydg1h2)" height="37.4674" rx="4.1667" ry="4.1667" style="stroke:#2FA4E7;stroke-width:1.0416666666666667;" width="88.5417" x="316.1458" y="994.5272"/><text fill="#FFFFFF" font-family="&quot;Verdana&quot;" font-size="12.5" lengthAdjust="spacing" textLength="65.625" x="327.6042" y="1017.5883">Push tags</text><rect fill="url(#g17hdgssvydg1h2)" height="66.569" rx="4.1667" ry="4.1667" style="stroke:#2FA4E7;stroke-width:1.0416666666666667;" width="233.3333" x="243.75" y="1052.828"/><text fill="#FFFFFF" font-family="&quot;Verdana&quot;" font-size="12.5" lengthAdjust="spacing" textLength="151.0417" x="255.2083" y="1075.8891">GitHub builds package,</text><text fill="#FFFFFF" font-family="&quot;Verdana&quot;" font-size="12.5" lengthAdjust="spacing" textLength="170.8333" x="255.2083" y="1090.4399">publishes release on PyPI,</text><text fill="#FFFFFF" font-family="&quot;Verdana&quot;" font-size="12.5" lengthAdjust="spacing" textLength="210.4167" x="255.2083" y="1104.9906">and creates new GitHub release</text><ellipse cx="360.4167" cy="1151.6886" rx="11.4583" ry="11.4583" style="stroke:#2683B9;stroke-width:1.0416666666666667;fill:none;"/><ellipse cx="360.4167" cy="1151.6886" fill="#2683B9" rx="6.25" ry="6.25" style="stroke:#13415C;stroke-width:1.0416666666666667;"/><line style="stroke:#033C73;stroke-width:2.0833333333333335;" x1="15.625" x2="15.625" y1="11.4583" y2="1163.147"/><path d="M548.4375,148.877 L548.4375,184.2611 A0,0 0 0 0 548.4375,184.2611 L819.2708,184.2611 A0,0 0 0 0 819.2708,184.2611 L819.2708,170.7357 L840.1042,166.569 L819.2708,162.4023 L819.2708,159.2936 L808.8542,148.877 L548.4375,148.877 A0,0 0 0 0 548.4375,148.877 " fill="url(#g17hdgssvydg1h1)" style="stroke:#2683B9;stroke-width:1.0416666666666667;"/><path d="M808.8542,148.877 L808.8542,159.2936 L819.2708,159.2936 L808.8542,148.877 " fill="url(#g17hdgssvydg1h1)" style="stroke:#2683B9;stroke-width:1.0416666666666667;"/><text fill="#FFFFFF" font-family="&quot;Verdana&quot;" font-size="12.5" lengthAdjust="spacing" textLength="238.5417" x="559.8958" y="170.8964">Current version is in `src/__init__.py`.</text><rect fill="url(#g17hdgssvydg1h2)" height="37.4674" rx="4.1667" ry="4.1667" style="stroke:#2FA4E7;stroke-width:1.0416666666666667;" width="233.3333" x="840.1042" y="147.8353"/><text fill="#FFFFFF" font-family="&quot;Verdana&quot;" font-size="12.5" lengthAdjust="spacing" textLength="210.4167" x="851.5625" y="170.8964">Determine root package version</text><path d="M486.4583,195.7194 L486.4583,260.2051 A0,0 0 0 0 486.4583,260.2051 L795.8333,260.2051 A0,0 0 0 0 795.8333,260.2051 L795.8333,232.1289 L816.6667,227.9622 L795.8333,223.7956 L795.8333,206.1361 L785.4167,195.7194 L486.4583,195.7194 A0,0 0 0 0 486.4583,195.7194 " fill="url(#g17hdgssvydg1h1)" style="stroke:#2683B9;stroke-width:1.0416666666666667;"/><path d="M785.4167,195.7194 L785.4167,206.1361 L795.8333,206.1361 L785.4167,195.7194 " fill="url(#g17hdgssvydg1h1)" style="stroke:#2683B9;stroke-width:1.0416666666666667;"/><text fill="#FFFFFF" font-family="&quot;Verdana&quot;" font-size="12.5" lengthAdjust="spacing" textLength="264.5833" x="497.9167" y="217.7389">The root package version will depend on</text><text fill="#FFFFFF" font-family="&quot;Verdana&quot;" font-size="12.5" lengthAdjust="spacing" textLength="277.0833" x="497.9167" y="232.2896">the version change of any other packages</text><text fill="#FFFFFF" font-family="&quot;Verdana&quot;" font-size="12.5" lengthAdjust="spacing" textLength="219.7917" x="497.9167" y="246.8404">being published with this release.</text><rect fill="url(#g17hdgssvydg1h2)" height="37.4674" rx="4.1667" ry="4.1667" style="stroke:#2FA4E7;stroke-width:1.0416666666666667;" width="280.2083" x="816.6667" y="209.2285"/><text fill="#FFFFFF" font-family="&quot;Verdana&quot;" font-size="12.5" lengthAdjust="spacing" textLength="257.2917" x="828.125" y="232.2896">Update the version number accordingly</text><rect fill="url(#g17hdgssvydg1h2)" height="37.4674" rx="4.1667" ry="4.1667" style="stroke:#2FA4E7;stroke-width:1.0416666666666667;" width="270.8333" x="821.3542" y="551.3652"/><text fill="#FFFFFF" font-family="&quot;Verdana&quot;" font-size="12.5" lengthAdjust="spacing" textLength="247.9167" x="832.8125" y="574.4263">Update the root package CHANGELOG</text><path d="M555.2083,785.6099 L555.2083,820.9941 A0,0 0 0 0 555.2083,820.9941 L826.0417,820.9941 A0,0 0 0 0 826.0417,820.9941 L826.0417,807.4687 L846.875,803.302 L826.0417,799.1353 L826.0417,796.0266 L815.625,785.6099 L555.2083,785.6099 A0,0 0 0 0 555.2083,785.6099 " fill="url(#g17hdgssvydg1h1)" style="stroke:#2683B9;stroke-width:1.0416666666666667;"/><path d="M815.625,785.6099 L815.625,796.0266 L826.0417,796.0266 L815.625,785.6099 " fill="url(#g17hdgssvydg1h1)" style="stroke:#2683B9;stroke-width:1.0416666666666667;"/><text fill="#FFFFFF" font-family="&quot;Verdana&quot;" font-size="12.5" lengthAdjust="spacing" textLength="238.5417" x="566.6667" y="807.6294">Replace `v1.0.0` with actual version.</text><rect fill="url(#g17hdgssvydg1h2)" height="37.4674" rx="4.1667" ry="4.1667" style="stroke:#2FA4E7;stroke-width:1.0416666666666667;" width="219.7917" x="846.875" y="784.5683"/><text fill="#FFFFFF" font-family="&quot;Verdana&quot;" font-size="12.5" lengthAdjust="spacing" textLength="196.875" x="858.3333" y="807.6294">Name is `Ligare.all-v1.0.0`</text><line style="stroke:#033C73;stroke-width:2.0833333333333335;" x1="481.25" x2="481.25" y1="11.4583" y2="1163.147"/><path d="M1694.7917,339.0116 L1694.7917,359.8124 L1673.9583,363.9791 L1694.7917,368.1458 L1694.7917,388.9465 A0,0 0 0 0 1694.7917,388.9465 L2144.7917,388.9465 A0,0 0 0 0 2144.7917,388.9465 L2144.7917,349.4283 L2134.375,339.0116 L1694.7917,339.0116 A0,0 0 0 0 1694.7917,339.0116 " fill="url(#g17hdgssvydg1h1)" style="stroke:#2683B9;stroke-width:1.0416666666666667;"/><path d="M2134.375,339.0116 L2134.375,349.4283 L2144.7917,349.4283 L2134.375,339.0116 " fill="url(#g17hdgssvydg1h1)" style="stroke:#2683B9;stroke-width:1.0416666666666667;"/><text fill="#FFFFFF" font-family="&quot;Verdana&quot;" font-size="12.5" lengthAdjust="spacing" textLength="130.2083" x="1706.25" y="361.0311">Current version is in</text><text fill="#FFFFFF" font-family="&quot;Verdana&quot;" font-size="12.5" lengthAdjust="spacing" textLength="417.7083" x="1706.25" y="375.5819">`src/&lt;package name&gt;/Ligare/&lt;package name&gt;/__init__.py`.</text><rect fill="url(#g17hdgssvydg1h2)" height="37.4674" rx="4.1667" ry="4.1667" style="stroke:#2FA4E7;stroke-width:1.0416666666666667;" width="202.0833" x="1471.875" y="345.2454"/><text fill="#FFFFFF" font-family="&quot;Verdana&quot;" font-size="12.5" lengthAdjust="spacing" textLength="179.1667" x="1483.3333" y="368.3065">Determine package version</text><rect fill="url(#g17hdgssvydg1h2)" height="37.4674" rx="4.1667" ry="4.1667" style="stroke:#2FA4E7;stroke-width:1.0416666666666667;" width="280.2083" x="1432.8125" y="411.8469"/><text fill="#FFFFFF" font-family="&quot;Verdana&quot;" font-size="12.5" lengthAdjust="spacing" textLength="257.2917" x="1444.2708" y="434.908">Update the version number accordingly</text><rect fill="url(#g17hdgssvydg1h2)" height="37.4674" rx="4.1667" ry="4.1667" style="stroke:#2FA4E7;stroke-width:1.0416666666666667;" width="239.5833" x="1453.125" y="470.1477"/><text fill="#FFFFFF" font-family="&quot;Verdana&quot;" font-size="12.5" lengthAdjust="spacing" textLength="216.6667" x="1464.5833" y="493.2088">Update the package CHANGELOG</text><polygon fill="url(#g17hdgssvydg1h3)" points="1460.4167,281.0384,1685.4167,281.0384,1697.9167,293.5384,1685.4167,306.0384,1460.4167,306.0384,1447.9167,293.5384,1460.4167,281.0384" style="stroke:#BABDBF;stroke-width:1.0416666666666667;"/><text fill="#343A40" font-family="&quot;Verdana&quot;" font-size="12.5" font-weight="bold" lengthAdjust="spacing" textLength="26.0417" x="1582.2917" y="322.8495">yes</text><text fill="#343A40" font-family="&quot;Verdana&quot;" font-size="12.5" lengthAdjust="spacing" textLength="214.5833" x="1465.625" y="297.8658">Did any other packages change?</text><text fill="#343A40" font-family="&quot;Verdana&quot;" font-size="12.5" font-weight="bold" lengthAdjust="spacing" textLength="18.75" x="1423.9583" y="285.3821">no</text><path d="M1133.3333,900.8423 L1133.3333,950.7772 A0,0 0 0 0 1133.3333,950.7772 L1436.4583,950.7772 A0,0 0 0 0 1436.4583,950.7772 L1436.4583,929.9764 L1457.2917,925.8097 L1436.4583,921.6431 L1436.4583,911.259 L1426.0417,900.8423 L1133.3333,900.8423 A0,0 0 0 0 1133.3333,900.8423 " fill="url(#g17hdgssvydg1h1)" style="stroke:#2683B9;stroke-width:1.0416666666666667;"/><path d="M1426.0417,900.8423 L1426.0417,911.259 L1436.4583,911.259 L1426.0417,900.8423 " fill="url(#g17hdgssvydg1h1)" style="stroke:#2683B9;stroke-width:1.0416666666666667;"/><text fill="#FFFFFF" font-family="&quot;Verdana&quot;" font-size="12.5" lengthAdjust="spacing" textLength="270.8333" x="1144.7917" y="922.8617">Replace `web` with actual package name</text><text fill="#FFFFFF" font-family="&quot;Verdana&quot;" font-size="12.5" lengthAdjust="spacing" textLength="211.4583" x="1144.7917" y="937.4125">and `v1.0.0` with actual version.</text><rect fill="url(#g17hdgssvydg1h2)" height="37.4674" rx="4.1667" ry="4.1667" style="stroke:#2FA4E7;stroke-width:1.0416666666666667;" width="231.25" x="1457.2917" y="907.076"/><text fill="#FFFFFF" font-family="&quot;Verdana&quot;" font-size="12.5" lengthAdjust="spacing" textLength="208.3333" x="1468.75" y="930.1371">Name is `Ligare.web-v1.0.0`</text><polygon fill="url(#g17hdgssvydg1h3)" points="1472.9167,842.8691,1672.9167,842.8691,1685.4167,855.3691,1672.9167,867.8691,1472.9167,867.8691,1460.4167,855.3691,1472.9167,842.8691" style="stroke:#BABDBF;stroke-width:1.0416666666666667;"/><text fill="#343A40" font-family="&quot;Verdana&quot;" font-size="12.5" font-weight="bold" lengthAdjust="spacing" textLength="26.0417" x="1582.2917" y="884.6802">yes</text><text fill="#343A40" font-family="&quot;Verdana&quot;" font-size="12.5" lengthAdjust="spacing" textLength="189.5833" x="1478.125" y="859.6965">Any other package releases?</text><text fill="#343A40" font-family="&quot;Verdana&quot;" font-size="12.5" font-weight="bold" lengthAdjust="spacing" textLength="18.75" x="1436.4583" y="847.2127">no</text><line style="stroke:#033C73;stroke-width:2.0833333333333335;" x1="1101.0417" x2="1101.0417" y1="11.4583" y2="1163.147"/><line style="stroke:#033C73;stroke-width:2.0833333333333335;" x1="2177.0833" x2="2177.0833" y1="11.4583" y2="1163.147"/><line style="stroke:#2FA4E7;stroke-width:3.125;" x1="360.4167" x2="360.4167" y1="62.4674" y2="83.3008"/><polygon fill="#2FA4E7" points="356.25,72.8841,360.4167,83.3008,364.5833,72.8841,360.4167,77.0508" style="stroke:#2FA4E7;stroke-width:1.0416666666666667;"/><line style="stroke:#2FA4E7;stroke-width:3.125;" x1="360.4167" x2="360.4167" y1="647.1334" y2="667.9667"/><polygon fill="#2FA4E7" points="356.25,657.55,360.4167,667.9667,364.5833,657.55,360.4167,661.7167" style="stroke:#2FA4E7;stroke-width:1.0416666666666667;"/><line style="stroke:#2FA4E7;stroke-width:3.125;" x1="360.4167" x2="360.4167" y1="705.4342" y2="726.2675"/><polygon fill="#2FA4E7" points="356.25,715.8508,360.4167,726.2675,364.5833,715.8508,360.4167,720.0175" style="stroke:#2FA4E7;stroke-width:1.0416666666666667;"/><line style="stroke:#2FA4E7;stroke-width:3.125;" x1="360.4167" x2="360.4167" y1="1031.9946" y2="1052.828"/><polygon fill="#2FA4E7" points="356.25,1042.4113,360.4167,1052.828,364.5833,1042.4113,360.4167,1046.578" style="stroke:#2FA4E7;stroke-width:1.0416666666666667;"/><line style="stroke:#2FA4E7;stroke-width:3.125;" x1="360.4167" x2="360.4167" y1="1119.397" y2="1140.2303"/><polygon fill="#2FA4E7" points="356.25,1129.8136,360.4167,1140.2303,364.5833,1129.8136,360.4167,1133.9803" style="stroke:#2FA4E7;stroke-width:1.0416666666666667;"/><line style="stroke:#2FA4E7;stroke-width:3.125;" x1="956.7708" x2="956.7708" y1="185.3027" y2="209.2285"/><polygon fill="#2FA4E7" points="952.6042,198.8118,956.7708,209.2285,960.9375,198.8118,956.7708,202.9785" style="stroke:#2FA4E7;stroke-width:1.0416666666666667;"/><line style="stroke:#2FA4E7;stroke-width:3.125;" x1="1572.9167" x2="1572.9167" y1="382.7128" y2="411.8469"/><polygon fill="#2FA4E7" points="1568.75,401.4303,1572.9167,411.8469,1577.0833,401.4303,1572.9167,405.5969" style="stroke:#2FA4E7;stroke-width:1.0416666666666667;"/><line style="stroke:#2FA4E7;stroke-width:3.125;" x1="1572.9167" x2="1572.9167" y1="449.3144" y2="470.1477"/><polygon fill="#2FA4E7" points="1568.75,459.731,1572.9167,470.1477,1577.0833,459.731,1572.9167,463.8977" style="stroke:#2FA4E7;stroke-width:1.0416666666666667;"/><line style="stroke:#2FA4E7;stroke-width:3.125;" x1="1572.9167" x2="1572.9167" y1="306.0384" y2="345.2454"/><polygon fill="#2FA4E7" points="1568.75,334.8287,1572.9167,345.2454,1577.0833,334.8287,1572.9167,338.9954" style="stroke:#2FA4E7;stroke-width:1.0416666666666667;"/><line style="stroke:#2FA4E7;stroke-width:3.125;" x1="1572.9167" x2="1572.9167" y1="507.6152" y2="518.0318"/><line style="stroke:#2FA4E7;stroke-width:3.125;" x1="1572.9167" x2="2157.2917" y1="518.0318" y2="518.0318"/><polygon fill="#2FA4E7" points="2153.125,409.7799,2157.2917,399.3632,2161.4583,409.7799,2157.2917,405.6132" style="stroke:#2FA4E7;stroke-width:3.125;"/><line style="stroke:#2FA4E7;stroke-width:3.125;" x1="2157.2917" x2="2157.2917" y1="293.5384" y2="518.0318"/><line style="stroke:#2FA4E7;stroke-width:3.125;" x1="2157.2917" x2="1697.9167" y1="293.5384" y2="293.5384"/><polygon fill="#2FA4E7" points="1708.3333,289.3717,1697.9167,293.5384,1708.3333,297.7051,1704.1667,293.5384" style="stroke:#2FA4E7;stroke-width:1.0416666666666667;"/><line style="stroke:#2FA4E7;stroke-width:3.125;" x1="1447.9167" x2="1420.3125" y1="293.5384" y2="293.5384"/><polygon fill="#2FA4E7" points="1416.1458,404.3111,1420.3125,414.7278,1424.4792,404.3111,1420.3125,408.4778" style="stroke:#2FA4E7;stroke-width:3.125;"/><line style="stroke:#2FA4E7;stroke-width:3.125;" x1="1420.3125" x2="1420.3125" y1="293.5384" y2="535.7402"/><line style="stroke:#2FA4E7;stroke-width:3.125;" x1="1420.3125" x2="956.7708" y1="535.7402" y2="535.7402"/><line style="stroke:#2FA4E7;stroke-width:3.125;" x1="956.7708" x2="956.7708" y1="535.7402" y2="551.3652"/><polygon fill="#2FA4E7" points="952.6042,540.9485,956.7708,551.3652,960.9375,540.9485,956.7708,545.1152" style="stroke:#2FA4E7;stroke-width:1.0416666666666667;"/><line style="stroke:#2FA4E7;stroke-width:3.125;" x1="1572.9167" x2="1572.9167" y1="867.8691" y2="907.076"/><polygon fill="#2FA4E7" points="1568.75,896.6593,1572.9167,907.076,1577.0833,896.6593,1572.9167,900.826" style="stroke:#2FA4E7;stroke-width:1.0416666666666667;"/><line style="stroke:#2FA4E7;stroke-width:3.125;" x1="1572.9167" x2="1572.9167" y1="944.5435" y2="961.1938"/><line style="stroke:#2FA4E7;stroke-width:3.125;" x1="1572.9167" x2="1701.0417" y1="961.1938" y2="961.1938"/><polygon fill="#2FA4E7" points="1696.875,911.2427,1701.0417,900.826,1705.2083,911.2427,1701.0417,907.076" style="stroke:#2FA4E7;stroke-width:3.125;"/><line style="stroke:#2FA4E7;stroke-width:3.125;" x1="1701.0417" x2="1701.0417" y1="855.3691" y2="961.1938"/><line style="stroke:#2FA4E7;stroke-width:3.125;" x1="1701.0417" x2="1685.4167" y1="855.3691" y2="855.3691"/><polygon fill="#2FA4E7" points="1695.8333,851.2024,1685.4167,855.3691,1695.8333,859.5357,1691.6667,855.3691" style="stroke:#2FA4E7;stroke-width:1.0416666666666667;"/><line style="stroke:#2FA4E7;stroke-width:3.125;" x1="1460.4167" x2="1120.8333" y1="855.3691" y2="855.3691"/><polygon fill="#2FA4E7" points="1116.6667,905.7739,1120.8333,916.1906,1125,905.7739,1120.8333,909.9406" style="stroke:#2FA4E7;stroke-width:3.125;"/><line style="stroke:#2FA4E7;stroke-width:3.125;" x1="1120.8333" x2="1120.8333" y1="855.3691" y2="978.9022"/><line style="stroke:#2FA4E7;stroke-width:3.125;" x1="1120.8333" x2="360.4167" y1="978.9022" y2="978.9022"/><line style="stroke:#2FA4E7;stroke-width:3.125;" x1="360.4167" x2="360.4167" y1="978.9022" y2="994.5272"/><polygon fill="#2FA4E7" points="356.25,984.1105,360.4167,994.5272,364.5833,984.1105,360.4167,988.2772" style="stroke:#2FA4E7;stroke-width:1.0416666666666667;"/><line style="stroke:#2FA4E7;stroke-width:3.125;" x1="360.4167" x2="360.4167" y1="120.7682" y2="132.2103"/><line style="stroke:#2FA4E7;stroke-width:3.125;" x1="360.4167" x2="956.7708" y1="132.2103" y2="132.2103"/><line style="stroke:#2FA4E7;stroke-width:3.125;" x1="956.7708" x2="956.7708" y1="132.2103" y2="147.8353"/><polygon fill="#2FA4E7" points="952.6042,137.4186,956.7708,147.8353,960.9375,137.4186,956.7708,141.5853" style="stroke:#2FA4E7;stroke-width:1.0416666666666667;"/><line style="stroke:#2FA4E7;stroke-width:3.125;" x1="956.7708" x2="956.7708" y1="246.696" y2="265.4134"/><line style="stroke:#2FA4E7;stroke-width:3.125;" x1="956.7708" x2="1572.9167" y1="265.4134" y2="265.4134"/><line style="stroke:#2FA4E7;stroke-width:3.125;" x1="1572.9167" x2="1572.9167" y1="265.4134" y2="281.0384"/><polygon fill="#2FA4E7" points="1568.75,270.6217,1572.9167,281.0384,1577.0833,270.6217,1572.9167,274.7884" style="stroke:#2FA4E7;stroke-width:1.0416666666666667;"/><line style="stroke:#2FA4E7;stroke-width:3.125;" x1="956.7708" x2="956.7708" y1="588.8326" y2="594.0409"/><line style="stroke:#2FA4E7;stroke-width:3.125;" x1="956.7708" x2="360.4167" y1="594.0409" y2="594.0409"/><line style="stroke:#2FA4E7;stroke-width:3.125;" x1="360.4167" x2="360.4167" y1="594.0409" y2="609.6659"/><polygon fill="#2FA4E7" points="356.25,599.2493,360.4167,609.6659,364.5833,599.2493,360.4167,603.4159" style="stroke:#2FA4E7;stroke-width:1.0416666666666667;"/><line style="stroke:#2FA4E7;stroke-width:3.125;" x1="360.4167" x2="360.4167" y1="763.7349" y2="768.9433"/><line style="stroke:#2FA4E7;stroke-width:3.125;" x1="360.4167" x2="956.7708" y1="768.9433" y2="768.9433"/><line style="stroke:#2FA4E7;stroke-width:3.125;" x1="956.7708" x2="956.7708" y1="768.9433" y2="784.5683"/><polygon fill="#2FA4E7" points="952.6042,774.1516,956.7708,784.5683,960.9375,774.1516,956.7708,778.3183" style="stroke:#2FA4E7;stroke-width:1.0416666666666667;"/><line style="stroke:#2FA4E7;stroke-width:3.125;" x1="956.7708" x2="956.7708" y1="822.0357" y2="827.2441"/><line style="stroke:#2FA4E7;stroke-width:3.125;" x1="956.7708" x2="1572.9167" y1="827.2441" y2="827.2441"/><line style="stroke:#2FA4E7;stroke-width:3.125;" x1="1572.9167" x2="1572.9167" y1="827.2441" y2="842.8691"/><polygon fill="#2FA4E7" points="1568.75,832.4524,1572.9167,842.8691,1577.0833,832.4524,1572.9167,836.6191" style="stroke:#2FA4E7;stroke-width:1.0416666666666667;"/><text fill="#2FA4E7" font-family="&quot;Verdana&quot;" font-size="12.5" lengthAdjust="spacing" textLength="4.1667" x="246.3542" y="28.2694"> </text><text fill="#2FA4E7" font-family="&quot;Verdana&quot;" font-size="12.5" lengthAdjust="spacing" textLength="90.625" x="745.8333" y="28.2694">Root package</text><text fill="#2FA4E7" font-family="&quot;Verdana&quot;" font-size="12.5" lengthAdjust="spacing" textLength="104.1667" x="1586.9792" y="28.2694">Other packages</text><!--MD5=[6f273210073f11252a466252d9e53a82]
@startuml
!theme cerulean


| |
    start
    :Ready to make release;
    note
    Either the root repository or
    one of the individual packages
    end note

|Root package|
    :Determine root package version;
    noteleft
    Current version is in `src/~__init__.py`.
    end note

    :Update the version number accordingly;
    noteleft
    The root package version will depend on
    the version change of any other packages
    being published with this release.
    end note

|Other packages|
    while (Did any other packages change?) is (<b>yes)
        :Determine package version;
        note right
        Current version is in
        `src/<package name>/Ligare/<package name>/~__init__.py`.
        end note
        :Update the version number accordingly;
        :Update the package CHANGELOG;
    endwhile (<b>no)

|Root package|
    :Update the root package CHANGELOG;

| |
    :Open PR;
    :PR approval and merge;
    :Create new Git tags;

|Root package|
    :Name is `Ligare.all-v1.0.0`;
    note
    Replace `v1.0.0` with actual version.
    end note

|Other packages|
    while (Any other package releases?) is (<b>yes)
        ' this may be automated in the future
        'if (Determine tag name from package and version) is (Root package) then
        :Name is `Ligare.web-v1.0.0`;
        note
        Replace `web` with actual package name
        and `v1.0.0` with actual version.
        end note
    endwhile (<b>no)

| |
    :Push tags;
    :GitHub builds package,
    publishes release on PyPI,
    and creates new GitHub release;
stop
@enduml

@startuml



skinparam backgroundColor transparent
skinparam useBetaStyle false






<style>
  root {
    BackgroundColor transparent
    FontColor #FFF
    HyperLinkColor #FD7E14
    LineColor #2683B9
    LineThickness 1
    Margin 10
    Padding 6
    Shadowing 0.0
  }
  node {
   Padding 15
   roundcorner 20
   BackgroundColor #2FA4E7-#2683B9
  }
  caption {
    LineThickness 0
  }
  footer {
    LineThickness 0
  }
  groupHeader {
    BackgroundColor #E9ECEF
    FontColor #033C73
    FontStyle bold
  }
  header {
    LineThickness 0
  }
  referenceHeader {
    BackgroundColor transparent
    FontColor #343A40
    FontStyle bold
  }
  separator {
    BackgroundColor #343A40
    FontColor transparent
    FontStyle bold
  }
  title {
	FontSize 20
	BorderRoundCorner            8
	BorderThickness 	         1
	BackgroundColor  #EDF0F2-#E9ECEF
	FontColor #2FA4E7
	BorderColor #E9ECEF
  }
  nwdiagDiagram {
	network {
			FontColor #FFF
	BorderColor #2FA4E7
	BackgroundColor #59B6EC-#2FA4E7    
		LineColor #2FA4E7
		LineThickness 1.0
		FontColor #2683B9
	}
	server {
			FontColor #FFF
	BorderColor #2FA4E7
	BackgroundColor #59B6EC-#2FA4E7
	}
	arrow {
		FontColor #2683B9
		LineColor #2683B9
	}
	group {
		BackGroundColor #F8F9FA
		LineColor $LIGHT_DARK
		LineThickness 2.0
		Margin 5
		Padding 5
	}
  }
  ganttDiagram {
	task {
			FontColor #FFF
	BorderColor #2FA4E7
	BackgroundColor #59B6EC-#2FA4E7
		LineColor #2FA4E7
		Margin 10
		Padding 6
	}
	note {
		FontColor #FFF
		LineColor #02305C
		BackGroundColor #033C73
	}
	separator {
		LineColor #E9ECEF
		BackGroundColor #E9ECEF-#BABDBF
		FontColor #343A40
	}
	milestone {
		FontColor #033C73
		FontSize 16
		FontStyle italic
		BackGroundColor #E9ECEF
		LineColor #BABDBF
	}
	timeline {
		BackgroundColor #E9ECEF
		FontColor #343A40
	}
	closed {
		BackgroundColor #B14500
		FontColor #FFF
	}
  }
</style>
skinparam defaultFontName        "Verdana"
skinparam defaultFontSize        12
skinparam dpi                    100
skinparam shadowing              false
skinparam roundcorner            8
skinparam ParticipantPadding     40
skinparam BoxPadding             40
skinparam Padding                5
skinparam ArrowColor             #868E96
skinparam stereotype {
    CBackgroundColor #EDF0F2
    CBorderColor #BABDBF
    ABackgroundColor #8FB961
    ABorderColor #5C862E
    IBackgroundColor #D2494E
    IBorderColor #9F161B
    EBackgroundColor #E47833
    EBorderColor #B14500
    NBackgroundColor #35638F
    NBorderColor #02305C
}
skinparam title {
	FontColor	                 #2FA4E7
	BorderColor	                 #BABDBF
	FontSize	    	         20
	BorderRoundCorner            8
	BorderThickness 	         1
	BackgroundColor              #EDF0F2-#E9ECEF
}


skinparam legend {
	BackgroundColor #E9ECEF
	BorderColor #BABDBF
	FontColor #343A40
}

skinparam swimlane {
	BorderColor #033C73
	BorderThickness 2
	TitleBackgroundColor  #EDF0F2-#E9ECEF
	TitleFontColor #2FA4E7
}


skinparam activity {
		FontColor #FFF
	BorderColor #2FA4E7
	BackgroundColor #59B6EC-#2FA4E7
	BarColor #73A839
	StartColor #033C73
	EndColor #033C73
	DiamondBackgroundColor #FFF-#EDF0F2
  	DiamondBorderColor #BABDBF
	DiamondFontColor #343A40
}


skinparam participant {
		FontColor #FFF
	BorderColor #2FA4E7
	BackgroundColor #59B6EC-#2FA4E7
	ParticipantBorderThickness 2
}


skinparam actor {
		FontColor #FFF
	BorderColor #2FA4E7
	BackgroundColor #59B6EC-#2FA4E7
	FontColor #343A40
}


skinparam arrow {
	Thickness 3
	Color #2FA4E7
	FontColor #343A40
}


skinparam sequence {
	BorderColor #2FA4E7
	TitleFontColor #2FA4E7
	BackgroundColor transparent
	StartColor #2FA4E7
	EndColor #2FA4E7
	BoxBackgroundColor #F8F9FA
	BoxBorderColor #868E96
	BoxFontColor #343A40
	DelayFontColor #343A40
	LifeLineBorderColor #BABDBF
	LifeLineBorderThickness 2
	LifeLineBackgroundColor #EDF0F2
	GroupBorderColor #868E96
	GroupFontColor #343A40
	GroupHeaderFontColor #033C73
	DividerBackgroundColor #FFF-#F8F9FA
    DividerBorderColor #868E96
    DividerBorderThickness 2
    DividerFontColor #343A40
	ReferenceBackgroundColor transparent
	ReferenceBorderColor #868E96
	ReferenceFontColor #343A40
	ReferenceHeaderFontColor #033C73
	StereotypeFontColor #FFF
}


skinparam partition {
	BorderColor #2FA4E7
	FontColor #2FA4E7
	BackgroundColor transparent
}


skinparam collections {
		FontColor #FFF
	BorderColor #2FA4E7
	BackgroundColor #59B6EC-#2FA4E7
}


skinparam control {
		FontColor #FFF
	BorderColor #2FA4E7
	BackgroundColor #59B6EC-#2FA4E7
	FontColor #343A40
}


skinparam entity {
		FontColor #FFF
	BorderColor #2FA4E7
	BackgroundColor #59B6EC-#2FA4E7
	FontColor #343A40
}


skinparam boundary {
		FontColor #FFF
	BorderColor #2FA4E7
	BackgroundColor #59B6EC-#2FA4E7
	FontColor #343A40
}


skinparam agent {
	BackgroundColor #orange
	BorderColor #999999
	FontColor #333333
}


skinparam note {
	BorderThickness 1
	BackgroundColor #35638F-#033C73
	BorderColor #033C73
	FontColor #FFF
}


skinparam artifact {
	BackgroundColor #FFF-#F8F9FA
	BorderColor #BABDBF
	FontColor #343A40
}


skinparam component {
		FontColor #FFF
	BorderColor #2FA4E7
	BackgroundColor #59B6EC-#2FA4E7
}


skinparam interface {
	BackgroundColor  #D2494E
	BorderColor  #C71C22
	FontColor #343A40
}


skinparam storage {
	BackgroundColor #E47833-#DD5600
  	BorderColor #DD5600
	FontColor #FFF
}


skinparam node {
	BackgroundColor #EDF0F2-#E9ECEF
	BorderColor #E9ECEF
	FontColor #343A40
}


skinparam cloud {
	BackgroundColor #F2FCFE-#eeeeee
	BorderColor #F2FCFE
	FontColor #2FA4E7
}


skinparam database {
		FontColor #FFF
	BorderColor #2FA4E7
	BackgroundColor #59B6EC-#2FA4E7
	FontColor #343A40
}


skinparam class {
		FontColor #FFF
	BorderColor #2FA4E7
	BackgroundColor #59B6EC-#2FA4E7
	HeaderBackgroundColor #2FA4E7-#2683B9
	StereotypeFontColor #343A40
	BorderThickness 1
	AttributeFontColor #F8F9FA
	AttributeFontSize 11
}


skinparam object {
		FontColor #FFF
	BorderColor #2FA4E7
	BackgroundColor #59B6EC-#2FA4E7
	StereotypeFontColor #343A40
	BorderThickness 1
	AttributeFontColor #343A40
	AttributeFontSize 11
}


skinparam usecase {
		FontColor #FFF
	BorderColor #2FA4E7
	BackgroundColor #59B6EC-#2FA4E7
	BorderThickness 2
	StereotypeFontColor #2FA4E7
}


skinparam rectangle {
	FontColor #2FA4E7
	BorderColor #59B6EC
	BackgroundColor transparent
	BorderThickness 2
	StereotypeFontColor #2FA4E7
}


skinparam package {
	FontColor #2FA4E7
	BorderColor #59B6EC
	BackgroundColor transparent
	BorderThickness 2
}


skinparam folder {
	BackgroundColor #FFF-#EDF0F2
  	BorderColor #DD5600
	FontColor #DD5600
	BorderThickness 2
}


skinparam frame {
	BackgroundColor #FFF-#EDF0F2
  	BorderColor #033C73
	FontColor #033C73
	BorderThickness 2
}


skinparam state {
		FontColor #FFF
	BorderColor #2FA4E7
	BackgroundColor #59B6EC-#2FA4E7
	BorderColor #2683B9
	StartColor #033C73
	EndColor #033C73
	AttributeFontColor #343A40
	AttributeFontSize 11
}


skinparam queue {
		FontColor #FFF
	BorderColor #2FA4E7
	BackgroundColor #59B6EC-#2FA4E7
}


skinparam card {
	BackgroundColor #35638F-#033C73
	BorderColor #033C73
	FontColor #FFF
}


skinparam file {
	BackgroundColor #EDF0F2-#E9ECEF
	BorderColor #033C73
	FontColor #868E96

}


skinparam stack {
		FontColor #FFF
	BorderColor #2FA4E7
	BackgroundColor #59B6EC-#2FA4E7
}


| |
    start
    :Ready to make release;
    note
    Either the root repository or
    one of the individual packages
    end note

|Root package|
    :Determine root package version;
    noteleft
    Current version is in `src/~__init__.py`.
    end note

    :Update the version number accordingly;
    noteleft
    The root package version will depend on
    the version change of any other packages
    being published with this release.
    end note

|Other packages|
    while (Did any other packages change?) is (<b>yes)
        :Determine package version;
        note right
        Current version is in
        `src/<package name>/Ligare/<package name>/~__init__.py`.
        end note
        :Update the version number accordingly;
        :Update the package CHANGELOG;
    endwhile (<b>no)

|Root package|
    :Update the root package CHANGELOG;

| |
    :Open PR;
    :PR approval and merge;
    :Create new Git tags;

|Root package|
    :Name is `Ligare.all-v1.0.0`;
    note
    Replace `v1.0.0` with actual version.
    end note

|Other packages|
    while (Any other package releases?) is (<b>yes)
        :Name is `Ligare.web-v1.0.0`;
        note
        Replace `web` with actual package name
        and `v1.0.0` with actual version.
        end note
    endwhile (<b>no)

| |
    :Push tags;
    :GitHub builds package,
    publishes release on PyPI,
    and creates new GitHub release;
stop
@enduml

PlantUML version 1.2022.6(Tue Jun 21 17:34:49 GMT 2022)
(GPL source distribution)
Java Runtime: OpenJDK Runtime Environment
JVM: OpenJDK 64-Bit Server VM
Default Encoding: UTF-8
Language: en
Country: US
--></g></svg>